<svg xmlns="http://www.w3.org/2000/svg" viewBox="0 0 326.65 102.14"><defs><style>.a{fill:#aeaeae;}</style></defs><title>graphic-puzzle-pieces</title><path class="a" d="M81,291.57a7.16,7.16,0,0,1-1.56-.18,5,5,0,0,1-3.24-2,2.3,2.3,0,0,1-.25-1.84,2.88,2.88,0,0,1,1.48-1.81,3.69,3.69,0,0,0,1.78-2.15,6.57,6.57,0,0,0-1-4.88L78,278.41l-5.27-1c-4.83-.88-9.82-1.79-12.6-2.26,2.31-3.59,4.54-9.66,5.77-15.74l0.12-.59-0.47-.38a17.92,17.92,0,0,0-6-3.19,5.77,5.77,0,0,0-1.28-.15,7.82,7.82,0,0,0-1.79.25,7.52,7.52,0,0,1-1.76.24,7.76,7.76,0,0,1-1.7-.21,5.09,5.09,0,0,1-3.34-2,2.23,2.23,0,0,1-.27-1.77c0.34-1.28,1.68-2.07,3.49-2.07a7.76,7.76,0,0,1,1.68.2,6.39,6.39,0,0,1,3,1.48,6.1,6.1,0,0,0,2.7,1.4,11.92,11.92,0,0,0,2.56.26,10.8,10.8,0,0,0,3.75-.57l0.52-.22,0.08-.56c0.6-4.53.89-8.34,1-10.22l0.25-.12c8.89,1.32,16.41,2.6,23,3.9l0.11,0h0.11c1.44,0,3.91-2.14,4.46-4.25a3.46,3.46,0,0,0-.52-2.71,2.59,2.59,0,0,1-.4-2.18c0.51-1.94,2.64-2.15,3.54-2.15a7.17,7.17,0,0,1,1.56.18,5,5,0,0,1,3.24,2,2.3,2.3,0,0,1,.25,1.84,2.88,2.88,0,0,1-1.48,1.81,3.7,3.7,0,0,0-1.78,2.15c-0.55,2.06.52,4.88,1.74,5.66l0.14,0.09,0.16,0a87.59,87.59,0,0,1,13.05,4.13l0,0.07c-1.92,3.21-3.83,8.77-5.68,16.55l-0.12.53,0.37,0.39a12.21,12.21,0,0,0,5.35,2.83,5.75,5.75,0,0,0,1.28.15,7.82,7.82,0,0,0,1.79-.25,7.52,7.52,0,0,1,1.76-.24,7.76,7.76,0,0,1,1.7.21,5.09,5.09,0,0,1,3.34,2,2.23,2.23,0,0,1,.27,1.77c-0.34,1.28-1.68,2.07-3.49,2.07h0a7.78,7.78,0,0,1-1.68-.2,6.4,6.4,0,0,1-3-1.48,6.09,6.09,0,0,0-2.69-1.4,12,12,0,0,0-2.56-.26,12.7,12.7,0,0,0-3.13.36l-0.6.16-0.12.61c-0.94,4.7-1.58,8.65-1.84,10.33-3.17-.79-10.83-3.21-13.92-4.42a37,37,0,0,0-4.57-1.15l-0.23,0-0.23.06a6.83,6.83,0,0,0-4,4.18,3.46,3.46,0,0,0,.52,2.71,2.59,2.59,0,0,1,.4,2.18C84,291.37,81.91,291.57,81,291.57Z" transform="translate(-16 -233.86)"/><path class="a" d="M136.43,299l-0.65-.17c-0.17-1.67-.52-5.23-0.79-9.52a11.39,11.39,0,0,1,4-.84,4.32,4.32,0,0,1,2.1.57,8.68,8.68,0,0,0,4.21,1c4.48,0,6.52-2.54,6.52-4.9s-2-4.9-6.52-4.9a8.68,8.68,0,0,0-4.21,1,4.32,4.32,0,0,1-2.1.57,11.31,11.31,0,0,1-4.37-1c-0.16-7.64.27-13.13,1.27-16.35h21.46a4.18,4.18,0,0,1,.69,2,1.73,1.73,0,0,1-.67,1.15,4.63,4.63,0,0,0-1.48,3.4c0,2.93,2.64,5,6.41,5s6.41-2,6.41-5a4.63,4.63,0,0,0-1.48-3.4,1.73,1.73,0,0,1-.67-1.15,4.18,4.18,0,0,1,.69-2h18.92l0.14,0.08c0.17,1.58.53,5.26,0.81,9.71a11.39,11.39,0,0,1-4,.84,4.32,4.32,0,0,1-2.1-.57,8.68,8.68,0,0,0-4.21-1c-4.48,0-6.52,2.54-6.52,4.9s2,4.9,6.52,4.9a8.68,8.68,0,0,0,4.21-1,4.32,4.32,0,0,1,2.1-.57,11.31,11.31,0,0,1,4.37,1c0.16,7.6-.26,13.07-1.26,16.29l-0.29.19-17,.49a4.54,4.54,0,0,1-1-2.41,1.73,1.73,0,0,1,.67-1.15,4.63,4.63,0,0,0,1.48-3.4c0-2.93-2.64-5-6.41-5s-6.41,2-6.41,5a4.63,4.63,0,0,0,1.48,3.4,1.73,1.73,0,0,1,.67,1.15,4.54,4.54,0,0,1-1,2.41Z" transform="translate(-16 -233.86)"/><path class="a" d="M207.74,313.4c-2.2,0-4.41-.92-4.41-3a2.7,2.7,0,0,1,1-2.05,3.55,3.55,0,0,0,1.19-2.5c0-2.11-1.74-4.6-3.1-5.09l-0.15-.05h-0.16a89.62,89.62,0,0,1-13.77-1.18l-0.08-.09c1-3.54,1.47-9.36,1.28-17.32v-0.53l-0.44-.29a12.69,12.69,0,0,0-5.91-1.57,6.22,6.22,0,0,0-3,.77,6.67,6.67,0,0,1-3.35.78c-2.66,0-4.52-1.19-4.52-2.9s1.86-2.9,4.52-2.9a6.68,6.68,0,0,1,3.35.78,6.21,6.21,0,0,0,3,.77,13.22,13.22,0,0,0,5.51-1.34l0.57-.3,0-.64c-0.29-4.71-.67-8.67-0.85-10.39,3.41,0.09,11.31.76,14.63,1.26a26.65,26.65,0,0,0,3.28.13h1.69l0.21-.11a6.53,6.53,0,0,0,2.84-5,3.55,3.55,0,0,0-1.19-2.5,2.7,2.7,0,0,1-1-2.05c0-2.06,2.22-3,4.41-3s4.41,0.92,4.41,3a2.7,2.7,0,0,1-1,2.05,3.55,3.55,0,0,0-1.19,2.5,6.77,6.77,0,0,0,2.18,4.51l0.3,0.26,5.41-.22c4.93-.19,10-0.39,12.82-0.54-1.33,4-1.95,10.4-1.58,16.58l0,0.58,0.53,0.26a18.59,18.59,0,0,0,6.66,1.78,6.22,6.22,0,0,0,3-.77,6.69,6.69,0,0,1,3.35-.78c2.66,0,4.52,1.19,4.52,2.9s-1.86,2.9-4.52,2.9a6.69,6.69,0,0,1-3.35-.78,6.22,6.22,0,0,0-3-.77,12.19,12.19,0,0,0-6.06,1.69l-0.48.35,0.07,0.58c0.58,4.53,1.27,8.28,1.64,10.13l-0.18.15c-9,.65-16.59,1-23.34,1.21h-0.11l-0.11,0c-1.4.34-3.28,2.95-3.28,5.14a3.55,3.55,0,0,0,1.19,2.5,2.7,2.7,0,0,1,1,2.05C212.15,312.48,209.94,313.4,207.74,313.4Z" transform="translate(-16 -233.86)"/><path class="a" d="M34,336l-0.44-.09a8.77,8.77,0,0,0-.53-2.2,13.28,13.28,0,0,1-.74-6.64l0.11-.76L31.7,326a13.44,13.44,0,0,0-4.86-1,6.22,6.22,0,0,0-3,.77,6.68,6.68,0,0,1-3.35.78c-2.66,0-4.52-1.19-4.52-2.9s1.86-2.9,4.52-2.9a6.68,6.68,0,0,1,3.35.78,6.22,6.22,0,0,0,3,.77,7.07,7.07,0,0,0,4.38-1.4l0.4-.26,0.12-.53c0-.41.06-0.76,0.08-1,0.22-5.06,1.42-15.84,1.63-17.77l0.25-.3L55,301.1l0.3-.33A6.68,6.68,0,0,0,57,296.67a3.55,3.55,0,0,0-1.19-2.5,2.71,2.71,0,0,1-1-2.05c0-2.06,2.22-3,4.41-3s4.41,0.93,4.41,3a2.71,2.71,0,0,1-1,2.05,3.55,3.55,0,0,0-1.19,2.5,6.69,6.69,0,0,0,1.75,4.09l0.3,0.33,19.5-.11c-1.79,4.09-4.36,10.85-3.58,14.24,0.12,0.5.23,1.11,0.35,1.87l0.07,0.45,0.38,0.24a12.78,12.78,0,0,0,5.88,1.56,6.21,6.21,0,0,0,3-.77,6.68,6.68,0,0,1,3.35-.78c2.66,0,4.52,1.19,4.52,2.9s-1.86,2.9-4.52,2.9a6.68,6.68,0,0,1-3.35-.78,6.21,6.21,0,0,0-3-.77,13.39,13.39,0,0,0-4.9,1.05l-0.67.29,0.07,0.73A109.32,109.32,0,0,0,82.81,336H34Z" transform="translate(-16 -233.86)"/><path class="a" d="M85,336l-0.22-.19a109.29,109.29,0,0,1-2-11.14A11.13,11.13,0,0,1,86.2,324a4.32,4.32,0,0,1,2.1.57,8.68,8.68,0,0,0,4.21,1c4.48,0,6.52-2.54,6.52-4.9s-2-4.9-6.52-4.9a8.68,8.68,0,0,0-4.21,1,4.32,4.32,0,0,1-2.1.57,11.34,11.34,0,0,1-4.43-1c-0.1-.59-0.2-1.1-0.3-1.53-0.49-2.12.85-7.07,3.59-13.27l1-.68c2.81-.15,7.88-0.35,12.79-0.54l4.52-.18a4.72,4.72,0,0,1,1.23,2.75A1.73,1.73,0,0,1,104,304a4.63,4.63,0,0,0-1.48,3.4c0,2.93,2.64,5,6.41,5s6.41-2,6.41-5a4.63,4.63,0,0,0-1.48-3.4,1.73,1.73,0,0,1-.67-1.15,4.82,4.82,0,0,1,1.58-3.09h1.15a24.07,24.07,0,0,1,3,.11c3.53,0.53,12.15,1.25,15.29,1.29l0.55,0.37c0.55,1.54,3,8.76,2.82,13.56,0,0.12,0,.25,0,0.4a11.29,11.29,0,0,1-4.41,1,4.32,4.32,0,0,1-2.1-.57,8.68,8.68,0,0,0-4.21-1c-4.48,0-6.52,2.54-6.52,4.9s2,4.9,6.52,4.9a8.68,8.68,0,0,0,4.21-1,4.32,4.32,0,0,1,2.1-.57,11.13,11.13,0,0,1,3.37.61c-0.63,4.47-1.37,9.37-1.8,12.15l-0.06,0H85Z" transform="translate(-16 -233.86)"/><path class="a" d="M136.69,336c0.46-3,1.24-8.15,1.87-12.69l0.11-.76-0.7-.3a13.4,13.4,0,0,0-4.87-1,6.21,6.21,0,0,0-3,.77,6.68,6.68,0,0,1-3.35.78c-2.66,0-4.52-1.19-4.52-2.9s1.86-2.9,4.52-2.9a6.68,6.68,0,0,1,3.35.78,6.21,6.21,0,0,0,3,.77,12.68,12.68,0,0,0,5.91-1.57l0.41-.26,0-.48c0-.41.06-0.76,0.08-1,0.21-5-2.13-12.06-2.85-14.09l0.06-.07,22.68,0.76,0.31-.34a6.68,6.68,0,0,0,1.76-4.09,3.55,3.55,0,0,0-1.19-2.5,2.7,2.7,0,0,1-1-2.05c0-2,2.29-3,4.41-3s4.41,0.92,4.41,3a2.7,2.7,0,0,1-1,2.05,3.55,3.55,0,0,0-1.19,2.5,6.69,6.69,0,0,0,1.75,4.09l0.31,0.34,16.9-.49c-0.88,3.4-3,12.44-2.17,16.16,0.11,0.5.23,1.13,0.35,1.87l0.07,0.45L183.6,320a12.79,12.79,0,0,0,5.88,1.56,6.21,6.21,0,0,0,3-.77,6.68,6.68,0,0,1,3.35-.78c2.66,0,4.52,1.19,4.52,2.9s-1.86,2.9-4.52,2.9a6.68,6.68,0,0,1-3.35-.78,6.21,6.21,0,0,0-3-.77,13.39,13.39,0,0,0-4.9,1.05l-0.67.29,0.1,1a85.89,85.89,0,0,0,1.21,9.12L185,336H136.69Z" transform="translate(-16 -233.86)"/><path class="a" d="M239,336a46.81,46.81,0,0,0,2.71-11.14l0.09-.75-0.69-.29a15.17,15.17,0,0,0-5.49-1.17,7,7,0,0,0-3.32.86,7.74,7.74,0,0,1-3.89.91c-3.12,0-5.3-1.42-5.3-3.46s2.18-3.46,5.3-3.46a7.73,7.73,0,0,1,3.89.91,7,7,0,0,0,3.32.86,15.24,15.24,0,0,0,5.82-1.31l0.6-.28,0-.67A51.39,51.39,0,0,0,239,301.3l0.05,0c3.94-.41,10.07-0.61,18.21-0.61,2,0,4,0,5.95,0a4.8,4.8,0,0,1,1.54,3.05,1.73,1.73,0,0,1-.67,1.15,4.63,4.63,0,0,0-1.48,3.4c0,2.93,2.64,5,6.41,5s6.41-2,6.41-5a4.63,4.63,0,0,0-1.48-3.4,1.73,1.73,0,0,1-.67-1.15,4.81,4.81,0,0,1,1.31-2.83c6.25,0.17,11.21.38,13.37,0.53a73,73,0,0,1,1.59,11.43l0,0.75,0.73,0.17a12.06,12.06,0,0,0,2.64.33,6.22,6.22,0,0,0,3-.77,6.68,6.68,0,0,1,3.35-.78c2.66,0,4.52,1.19,4.52,2.9s-1.86,2.9-4.52,2.9a6.68,6.68,0,0,1-3.35-.78,6.22,6.22,0,0,0-3-.77,11.76,11.76,0,0,0-2.51.3l-0.78.17v0.79a132.92,132.92,0,0,1-1.69,17.9H239Z" transform="translate(-16 -233.86)"/><path class="a" d="M321.28,300.16a5.54,5.54,0,0,1-1.85-3.31,1.73,1.73,0,0,1,.67-1.15,4.63,4.63,0,0,0,1.48-3.4c0-2.93-2.64-5-6.41-5s-6.41,2-6.41,5a4.63,4.63,0,0,0,1.48,3.4,1.73,1.73,0,0,1,.67,1.15,5.77,5.77,0,0,1-1.89,3.28c-9.3-.17-16.08-0.61-19.71-1.28a113.13,113.13,0,0,1-.77-14.51v-0.66l-0.6-.26a13.38,13.38,0,0,0-4.89-1,6.21,6.21,0,0,0-3,.77,6.68,6.68,0,0,1-3.35.78c-2.66,0-4.52-1.19-4.52-2.9s1.86-2.9,4.52-2.9a6.68,6.68,0,0,1,3.35.78,6.21,6.21,0,0,0,3,.77,13.42,13.42,0,0,0,5.17-1.17l0.5-.24,0.07-.55c0.53-4.51,2-11.55,2.5-13.91a161.29,161.29,0,0,0,17.29,1.67l0.58,0,0.31-.49a6.23,6.23,0,0,0,1-3.15,3.55,3.55,0,0,0-1.19-2.5,2.7,2.7,0,0,1-1-2.05c0-2.06,2.22-3,4.41-3s4.41,0.92,4.41,3a2.71,2.71,0,0,1-1,2.05,3.55,3.55,0,0,0-1.19,2.5,6.26,6.26,0,0,0,1.2,3.38l0.3,0.43H317a175.66,175.66,0,0,0,21.63-1.35,42.91,42.91,0,0,1,4,15.09,11.26,11.26,0,0,1-3.6.69,4.31,4.31,0,0,1-2.1-.57,8.68,8.68,0,0,0-4.21-1c-4.48,0-6.52,2.54-6.52,4.9s2,4.9,6.52,4.9a8.68,8.68,0,0,0,4.21-1,4.31,4.31,0,0,1,2.1-.57,11.18,11.18,0,0,1,3.39.61,43.21,43.21,0,0,1-3.24,11.74A149.17,149.17,0,0,1,321.28,300.16Z" transform="translate(-16 -233.86)"/><path class="a" d="M269,311.27c-2.13,0-4.41-.93-4.41-3a2.7,2.7,0,0,1,1-2.05,3.55,3.55,0,0,0,1.19-2.5,6.51,6.51,0,0,0-2.73-4.92l-0.23-.13-3.08,0h-6.31l-4.46.06-3.14.08-2.86.11L242,299l-1.22.08-1.15.09-0.59.05c-0.33-1.62-1-5.21-1.59-9.63a11.49,11.49,0,0,1,4.4-1,4.32,4.32,0,0,1,2.1.57,8.68,8.68,0,0,0,4.21,1c4.48,0,6.52-2.54,6.52-4.9s-2-4.9-6.52-4.9a8.68,8.68,0,0,0-4.21,1,4.32,4.32,0,0,1-2.1.57,16.23,16.23,0,0,1-5.26-1.34c-0.29-6,.34-12,1.64-15.58a2.84,2.84,0,0,1,.43-0.12c4.22-.59,10-1.05,16.59-1.33a4.46,4.46,0,0,1,.92,2.36,1.73,1.73,0,0,1-.67,1.15,4.63,4.63,0,0,0-1.48,3.4c0,2.93,2.64,5,6.41,5s6.41-2,6.41-5a4.63,4.63,0,0,0-1.48-3.4,1.73,1.73,0,0,1-.67-1.15,4.68,4.68,0,0,1,1.13-2.63l4.1,0c6.48,0,13,.16,19.32.48-0.54,2.55-1.82,8.75-2.39,13.18a11.42,11.42,0,0,1-3.82.77,4.32,4.32,0,0,1-2.1-.57,8.68,8.68,0,0,0-4.21-1c-4.48,0-6.52,2.54-6.52,4.9s2,4.9,6.52,4.9a8.68,8.68,0,0,0,4.21-1,4.32,4.32,0,0,1,2.1-.57,11.2,11.2,0,0,1,3.5.65c0,3.31.16,10.81,0.84,14.38l-1-.05-3.33-.15c-2.46-.1-5.51-0.21-8.88-0.3h-0.37l-0.29.24a6.75,6.75,0,0,0-2.3,4.62,3.55,3.55,0,0,0,1.19,2.5,2.71,2.71,0,0,1,1,2.05C273.38,310.35,271.17,311.27,269,311.27Z" transform="translate(-16 -233.86)"/></svg>