<svg xmlns="http://www.w3.org/2000/svg" viewBox="0 0 62.63 51.81"><defs><style>.a{fill:#0b3d91;}.b{fill:#fff;}.c{fill:#fc3d21;}</style></defs><title>logo-nasa</title><path class="a" d="M56.76,32.3A25.93,25.93,0,1,1,30.83,6.4,26,26,0,0,1,56.76,32.3" transform="translate(-1.75 -6.4)"/><path class="b" d="M36.68,45.93c11,4.54,9.16-6.95,3.25-15.78A48,48,0,0,0,29.46,19c-9.16-6.69-14.75-2.6-8.32,10.52,2.08,4.25,4.76,7.12,6.85,9.82,1.6,2.06,4.71,3.1,3.61,4.08s-4.22-3.77-4.22-3.77a59,59,0,0,1-6.48-9.4c-5-8.91-4.24-18,4.73-14C33.24,19.56,40.51,29,43.43,35.69c1.35,3.1,5,15.31-6.69,10.38" transform="translate(-1.75 -6.4)"/><path class="b" d="M45,31.87c0.37-1.3.69-2.46,0.85-3.22a2.4,2.4,0,0,0-.78-1.06l0-.07,4.87,0c0.65,1.58,2.13,6,3.25,8.75a1.38,1.38,0,0,0,.81.86c-2,0-5.79,0-5.77,0,1-.91.88-0.91,0.44-2.23H45.47c-0.65,1.51.2,2.21,0.31,2.21-0.72,0-3.17,0-3.17,0,1.33-.94,1.25-1.22,1.25-1.22,0.36-1.3.79-2.71,1.16-4h1.3l-0.56,1.79h2.52l-1.4-3.58-0.56,1.79H45Z" transform="translate(-1.75 -6.4)"/><path class="b" d="M31.18,8.75A0.21,0.21,0,1,1,31,8.54a0.21,0.21,0,0,1,.21.21" transform="translate(-1.75 -6.4)"/><path class="b" d="M32.65,11.95a0.26,0.26,0,1,1-.26-0.26,0.26,0.26,0,0,1,.26.26" transform="translate(-1.75 -6.4)"/><path class="b" d="M36.45,17.17a0.26,0.26,0,1,1-.26-0.26,0.26,0.26,0,0,1,.26.26" transform="translate(-1.75 -6.4)"/><path class="b" d="M30.34,13.75a0.21,0.21,0,1,1-.21-0.21,0.21,0.21,0,0,1,.21.21" transform="translate(-1.75 -6.4)"/><path class="b" d="M32.61,15a0.21,0.21,0,1,1-.21-0.21,0.21,0.21,0,0,1,.21.21" transform="translate(-1.75 -6.4)"/><path class="b" d="M29.66,11.59a0.26,0.26,0,1,1-.26-0.26,0.26,0.26,0,0,1,.26.26" transform="translate(-1.75 -6.4)"/><path class="b" d="M26.21,13.69A0.21,0.21,0,1,1,26,13.47a0.21,0.21,0,0,1,.21.21" transform="translate(-1.75 -6.4)"/><path class="b" d="M26.83,14.11a0.21,0.21,0,1,1-.21-0.21,0.21,0.21,0,0,1,.21.21" transform="translate(-1.75 -6.4)"/><path class="b" d="M27.45,14.53a0.21,0.21,0,1,1-.21-0.21,0.21,0.21,0,0,1,.21.21" transform="translate(-1.75 -6.4)"/><path class="b" d="M26.51,15.34a0.21,0.21,0,1,1-.21-0.21,0.21,0.21,0,0,1,.21.21" transform="translate(-1.75 -6.4)"/><path class="b" d="M21.6,18.78a0.21,0.21,0,1,1-.21-0.21,0.21,0.21,0,0,1,.21.21" transform="translate(-1.75 -6.4)"/><path class="b" d="M22.51,19.89a0.21,0.21,0,1,1-.21-0.21,0.21,0.21,0,0,1,.21.21" transform="translate(-1.75 -6.4)"/><path class="b" d="M21.79,37.71a0.21,0.21,0,1,1-.21-0.21,0.21,0.21,0,0,1,.21.21" transform="translate(-1.75 -6.4)"/><path class="b" d="M21.92,42.62a0.26,0.26,0,1,1-.26-0.26,0.26,0.26,0,0,1,.26.26" transform="translate(-1.75 -6.4)"/><path class="b" d="M19.13,45.14a0.21,0.21,0,1,1-.21-0.21,0.21,0.21,0,0,1,.21.21" transform="translate(-1.75 -6.4)"/><path class="b" d="M15.78,46.16a0.26,0.26,0,1,1-.26-0.26,0.26,0.26,0,0,1,.26.26" transform="translate(-1.75 -6.4)"/><path class="b" d="M15.1,43.89a0.26,0.26,0,1,1-.26-0.26,0.26,0.26,0,0,1,.26.26" transform="translate(-1.75 -6.4)"/><path class="b" d="M14.71,45.33a0.21,0.21,0,1,1-.21-0.21,0.21,0.21,0,0,1,.21.21" transform="translate(-1.75 -6.4)"/><path class="b" d="M12.21,44.13A0.21,0.21,0,1,1,12,43.92a0.21,0.21,0,0,1,.21.21" transform="translate(-1.75 -6.4)"/><path class="b" d="M20.95,48.19A0.21,0.21,0,1,1,20.74,48a0.21,0.21,0,0,1,.21.21" transform="translate(-1.75 -6.4)"/><path class="b" d="M23.58,46.26A0.26,0.26,0,1,1,23.32,46a0.26,0.26,0,0,1,.26.26" transform="translate(-1.75 -6.4)"/><path class="b" d="M23.87,48.74a0.21,0.21,0,1,1-.21-0.21,0.21,0.21,0,0,1,.21.21" transform="translate(-1.75 -6.4)"/><path class="b" d="M34.69,46.37a0.21,0.21,0,1,1-.21-0.21,0.21,0.21,0,0,1,.21.21" transform="translate(-1.75 -6.4)"/><path class="b" d="M29.66,48.16a0.21,0.21,0,1,1-.21-0.21,0.21,0.21,0,0,1,.21.21" transform="translate(-1.75 -6.4)"/><path class="b" d="M43.21,50.72A0.21,0.21,0,1,1,43,50.51a0.21,0.21,0,0,1,.21.21" transform="translate(-1.75 -6.4)"/><path class="b" d="M44.31,40.74a0.26,0.26,0,1,1-.26-0.26,0.26,0.26,0,0,1,.26.26" transform="translate(-1.75 -6.4)"/><path class="b" d="M42.23,42.15A0.21,0.21,0,1,1,42,41.94a0.21,0.21,0,0,1,.21.21" transform="translate(-1.75 -6.4)"/><path class="b" d="M44.28,42.56A0.26,0.26,0,1,1,44,42.3a0.26,0.26,0,0,1,.26.26" transform="translate(-1.75 -6.4)"/><path class="b" d="M42.23,45.07A0.21,0.21,0,1,1,42,44.86a0.21,0.21,0,0,1,.21.21" transform="translate(-1.75 -6.4)"/><path class="b" d="M47.53,39.33a0.21,0.21,0,1,1-.21-0.21,0.21,0.21,0,0,1,.21.21" transform="translate(-1.75 -6.4)"/><path class="b" d="M48,40.61a0.26,0.26,0,1,1-.26-0.26,0.26,0.26,0,0,1,.26.26" transform="translate(-1.75 -6.4)"/><path class="b" d="M51.69,42.14a0.26,0.26,0,1,1-.26-0.26,0.26,0.26,0,0,1,.26.26" transform="translate(-1.75 -6.4)"/><path class="b" d="M48,44.85a0.21,0.21,0,1,1-.21-0.21,0.21,0.21,0,0,1,.21.21" transform="translate(-1.75 -6.4)"/><path class="b" d="M50.32,42.64a0.21,0.21,0,1,1-.21-0.21,0.21,0.21,0,0,1,.21.21" transform="translate(-1.75 -6.4)"/><path class="b" d="M49.9,46a0.21,0.21,0,1,1-.21-0.21,0.21,0.21,0,0,1,.21.21" transform="translate(-1.75 -6.4)"/><path class="b" d="M50.88,40.38a0.32,0.32,0,1,1-.32-0.32,0.33,0.33,0,0,1,.32.32" transform="translate(-1.75 -6.4)"/><polygon class="b" points="48.81 33 48.71 33.89 47.83 33.99 48.72 34.08 48.82 35.01 48.91 34.08 49.79 33.97 48.91 33.89 48.81 33"/><path class="b" d="M48.61,46a0.32,0.32,0,1,1-.32-0.32,0.33,0.33,0,0,1,.32.32" transform="translate(-1.75 -6.4)"/><polygon class="b" points="46.53 38.64 46.44 39.54 45.55 39.63 46.44 39.73 46.54 40.66 46.64 39.73 47.52 39.62 46.63 39.54 46.53 38.64"/><path class="b" d="M24.37,19.22A0.32,0.32,0,1,1,24,18.9a0.33,0.33,0,0,1,.32.32" transform="translate(-1.75 -6.4)"/><polygon class="b" points="22.29 11.83 22.2 12.72 21.31 12.82 22.2 12.92 22.3 13.84 22.4 12.92 23.28 12.81 22.39 12.72 22.29 11.83"/><path class="b" d="M36.46,11.36A0.32,0.32,0,1,1,36.13,11a0.33,0.33,0,0,1,.32.32" transform="translate(-1.75 -6.4)"/><polygon class="b" points="34.48 4.87 34.38 3.98 34.28 4.87 33.4 4.97 34.29 5.06 34.39 5.99 34.49 5.06 35.36 4.95 34.48 4.87"/><path class="b" d="M21.77,51.23a0.32,0.32,0,1,1-.32-0.32,0.33,0.33,0,0,1,.32.32" transform="translate(-1.75 -6.4)"/><polygon class="b" points="19.69 43.84 19.6 44.73 18.71 44.83 19.61 44.92 19.7 45.85 19.8 44.92 20.68 44.81 19.79 44.73 19.69 43.84"/><path class="c" d="M1.75,40c5.16-3.3,10.87-5.42,14.88-7C22,30.84,56.22,22.06,64.38,8.79A43.72,43.72,0,0,1,41.59,27.84c-16,5.7-29,6.86-39.18,12.36Z" transform="translate(-1.75 -6.4)"/><path class="b" d="M40.93,29.74c-0.05-1.84,0-2.44,0-2.44-0.81.65-.4,0.57-2.42,0.23-5.82-1-6.26,4.47-3.09,5.69,2.66,1,3.6,1.22,3.2,2.18-0.13.31-2.55,1.45-5-.86l0.05,3.22a11.16,11.16,0,0,1,1.17-.91,6.63,6.63,0,0,0,5.12-.05c3.72-1.9,1.86-5-2.11-6.18-3.3-1-.18-3.38,3.09-0.86" transform="translate(-1.75 -6.4)"/><path class="b" d="M23.24,31.74c0.37-1.3.69-2.46,0.85-3.22a2.4,2.4,0,0,0-.78-1.06l0-.07,4.87,0c0.65,1.58,2.13,6,3.25,8.75a1.38,1.38,0,0,0,.81.86c-2,0-5.79,0-5.77,0,1-.91.88-0.91,0.44-2.23H23.69C23,36.26,23.89,37,24,37c-0.72,0-3.17,0-3.17,0,1.33-.94,1.25-1.22,1.25-1.22,0.36-1.3.79-2.71,1.16-4h1.3L24,33.53H26.5L25.09,30l-0.56,1.79h-1.3Z" transform="translate(-1.75 -6.4)"/><path class="c" d="M8.92,55.54c1.83-1.79,8.46-7.46,11.33-9.5,2-1.43,5.42-4.21,14.88-10.17,4.24-2.67,26-15.12,29.25-27.08-5.71,7.42-11.71,14.13-21.58,20.88-6.77,4.63-16.15,9.72-24,16-3.5,2.83-8.62,7.54-9.87,8.92Z" transform="translate(-1.75 -6.4)"/><path class="b" d="M36.68,45.93c11,4.54,9.16-6.95,3.25-15.78A47.13,47.13,0,0,0,29.46,19C26,16.41,25.63,16.2,25.63,16.2,33.43,19.9,40.51,29,43.43,35.69c1.35,3.1,5,15.31-6.69,10.38" transform="translate(-1.75 -6.4)"/><path class="b" d="M9.3,27.31c4.44,0,4,0,4.07,0s3.56,6,3.56,6.05,0-2.13,0-4.83a4.66,4.66,0,0,0-.83-1.22c1.27,0,2.94,0,2.94,0-0.62.73-.75,0.67-0.75,1.12,0,1.45,0,4.12,0,7.12,0,0.45.34,0.62,0.88,1.4H15.06c-1.33-2.21-3.75-6.35-3.74-6.34s-0.05,2.6,0,4.67a2.19,2.19,0,0,0,.91,1.53s0.66,0-3.2,0a1.44,1.44,0,0,0,1-1.43c0-2.87,0-5.32,0-6.91,0-.26,0-0.23-0.82-1.22" transform="translate(-1.75 -6.4)"/></svg>