<svg xmlns="http://www.w3.org/2000/svg" viewBox="0 0 32 31.21"><defs><style>.a{fill:#fff;fill-rule:evenodd;}</style></defs><title>logo-github-octocat</title><path class="a" d="M16,0.3a16,16,0,0,0-5.06,31.18A0.8,0.8,0,0,0,12,30.71c0-.38,0-1.39,0-2.72-4.45,1-5.39-2.14-5.39-2.14a4.24,4.24,0,0,0-1.78-2.34c-1.45-1,.11-1,0.11-1a3.36,3.36,0,0,1,2.45,1.65,3.41,3.41,0,0,0,4.66,1.33,3.42,3.42,0,0,1,1-2.14C9.53,23,5.79,21.6,5.79,15.47a6.18,6.18,0,0,1,1.65-4.29A5.75,5.75,0,0,1,7.6,6.94S8.94,6.51,12,8.58a15.17,15.17,0,0,1,8,0c3.05-2.07,4.4-1.64,4.4-1.64a5.75,5.75,0,0,1,.16,4.23,6.17,6.17,0,0,1,1.64,4.29c0,6.15-3.74,7.5-7.31,7.9a3.82,3.82,0,0,1,1.09,3c0,2.14,0,3.86,0,4.39a0.8,0.8,0,0,0,1.1.77A16,16,0,0,0,16,.3Z" transform="translate(0 -0.3)"/></svg>