<svg xmlns="http://www.w3.org/2000/svg" viewBox="0 0 1024 574"><defs><style>.a{fill:#231f20;opacity:0.1;}.b{fill:#80d8f0;}.Line\.singleton,.c,.line\.contain-own{fill:none;stroke-miterlimit:10;}.c{stroke:#fff;}.d{fill:#f8b6c2;}.e,.f,.l{fill:#00b1e2;}.f,.h{font-size:21px;}.f,.h,.m{font-family:Helvetica Neue;}.g,.h,.i{fill:#f16e86;}.g,.l{fill-opacity:0.7;}.g,.i{opacity:0.99;}.Line\.singleton{stroke:#f16e86;}.Line\.singleton,.line\.contain-own{stroke-opacity:0.7;stroke-width:2px;stroke-dasharray:5;}.j{letter-spacing:-2px;}.k{letter-spacing:-1px;}.line\.contain-own{stroke:#00b1e2;}.m{font-size:20px;fill:#737373;}</style></defs><title>d</title><ellipse class="a" cx="510.28" cy="396.61" rx="505.71" ry="146.79"/><ellipse class="b" cx="511.28" cy="386.61" rx="505.71" ry="146.79"/><ellipse class="c" cx="511.28" cy="386.61" rx="505.71" ry="146.79"/><ellipse class="a" cx="430.53" cy="289.9" rx="425.96" ry="123.64"/><ellipse class="b" cx="431.53" cy="279.9" rx="425.96" ry="123.64"/><ellipse class="c" cx="431.53" cy="279.9" rx="425.96" ry="123.64"/><ellipse class="a" cx="420.25" cy="295.43" rx="134.04" ry="38.91"/><ellipse class="d" cx="421.25" cy="285.43" rx="134.04" ry="38.91"/><ellipse class="c" cx="421.25" cy="285.43" rx="134.04" ry="38.91"/><ellipse class="a" cx="138.61" cy="228.16" rx="134.04" ry="38.91"/><ellipse class="b" cx="139.61" cy="218.16" rx="134.04" ry="38.91"/><ellipse class="c" cx="139.61" cy="218.16" rx="134.04" ry="38.91"/><ellipse class="a" cx="420.25" cy="228.16" rx="134.04" ry="38.91"/><ellipse class="d" cx="421.25" cy="218.16" rx="134.04" ry="38.91"/><ellipse class="c" cx="421.25" cy="218.16" rx="134.04" ry="38.91"/><ellipse class="a" cx="419.61" cy="160.88" rx="134.04" ry="38.91"/><ellipse class="d" cx="420.61" cy="150.88" rx="134.04" ry="38.91"/><ellipse class="c" cx="420.61" cy="150.88" rx="134.04" ry="38.91"/><ellipse class="a" cx="390.89" cy="99.79" rx="105.32" ry="30.57"/><ellipse class="d" cx="391.89" cy="89.79" rx="105.32" ry="30.57"/><ellipse class="c" cx="391.89" cy="89.79" rx="105.32" ry="30.57"/><ellipse class="a" cx="109.88" cy="168.88" rx="105.32" ry="30.57"/><ellipse class="b" cx="110.88" cy="158.88" rx="105.32" ry="30.57"/><ellipse class="c" cx="110.88" cy="158.88" rx="105.32" ry="30.57"/><path class="e" d="M924.48,406.86H913.71v-1.8a3.6,3.6,0,0,0-3.59-3.59h-7.18a3.6,3.6,0,0,0-3.59,3.59v9a3.6,3.6,0,0,1,3.59-3.59h21.54a3.6,3.6,0,0,1,3.59,3.59v-3.59A3.6,3.6,0,0,0,924.48,406.86Z"/><rect class="e" x="899.35" y="414.04" width="28.72" height="16.16" rx="3.59" ry="3.59"/><text class="f" transform="translate(933.82 423.41)">Folder</text><ellipse class="g" cx="50.61" cy="412.43" rx="16.88" ry="5.94"/><ellipse class="g" cx="50.61" cy="161.02" rx="16.88" ry="5.94"/><line class="Line.singleton" x1="50.61" y1="37.92" x2="50.61" y2="411.88"/><text class="h" transform="translate(73.71 23.46)">Activity Mode</text><path class="i" d="M50.85,5.48A14.91,14.91,0,0,0,37,14.79h2.64a5.57,5.57,0,0,1,4.17,1.86h7l-5.59-5.59h7.45L62,20.38,52.71,29.7H45.26l5.59-5.59h-7A5.57,5.57,0,0,1,39.67,26H37A14.9,14.9,0,1,0,50.85,5.48Z"/><ellipse class="g" cx="320.17" cy="492.43" rx="16.88" ry="5.94"/><ellipse class="g" cx="320.17" cy="288.63" rx="16.88" ry="5.94"/><ellipse class="g" cx="320.17" cy="368.62" rx="16.88" ry="5.94"/><ellipse class="g" cx="320.17" cy="220.08" rx="16.88" ry="5.94"/><ellipse class="g" cx="320.17" cy="151.53" rx="16.88" ry="5.94"/><ellipse class="g" cx="320.17" cy="89.41" rx="16.88" ry="5.94"/><line class="Line.singleton" x1="320.39" y1="36.23" x2="320.39" y2="492.69"/><text class="h" transform="translate(343.27 22.68)"><tspan class="j">T</tspan><tspan x="9.72" y="0">elemetry Element</tspan></text><path class="i" d="M316,12.44a5.25,5.25,0,0,1,4.09,2.43,17.94,17.94,0,0,1,2.28,4.24c1.08,2.76,2.21,3.94,2.61,4.1,0.4-.16,1.53-1.33,2.61-4.1s2.78-5.81,5.3-6.52a14.36,14.36,0,0,0-26.48,10.09,2,2,0,0,0,.62.52c0.4-.16,1.53-1.33,2.61-4.1C310.8,16.06,312.87,12.44,316,12.44Z"/><path class="i" d="M334.54,17a2,2,0,0,0-.62-0.52c-0.4.16-1.53,1.33-2.61,4.1-1.19,3-3.26,6.67-6.37,6.67a5.25,5.25,0,0,1-4.09-2.43,18,18,0,0,1-2.28-4.24c-1.08-2.76-2.21-3.94-2.61-4.1-0.4.16-1.53,1.33-2.61,4.1s-2.78,5.81-5.3,6.52A14.36,14.36,0,0,0,334.54,17Z"/><ellipse class="g" cx="594.57" cy="501.41" rx="16.88" ry="5.94"/><ellipse class="g" cx="594.57" cy="362.9" rx="16.88" ry="5.94"/><line class="Line.singleton" x1="594.57" y1="85.54" x2="594.57" y2="501.41"/><line class="Line.singleton" x1="594.57" y1="36.09" x2="594.57" y2="48.55"/><text class="h" transform="translate(617.68 22.64)">Clock</text><path class="i" d="M594.51,5.48a14.36,14.36,0,1,0,14.36,14.36A14.36,14.36,0,0,0,594.51,5.48Zm7.57,19.35a2,2,0,0,1-2.76.74L593.11,22h0l-0.07,0,0,0-0.05,0,0,0,0,0,0,0,0,0-0.06-.05h0a2,2,0,0,1-.37-0.44l0,0,0,0a2,2,0,0,1-.2-0.54h0l0-.08V20.25h0V10a2,2,0,0,1,4,0v9l5.21,3A2,2,0,0,1,602.09,24.83Z"/><text class="h" transform="translate(617.68 70.51)">Timer</text><path class="i" d="M598.67,55.54V52.9a2.05,2.05,0,0,0-2.05-2.05h-4.1a2.05,2.05,0,0,0-2.05,2.05v2.65A14.36,14.36,0,1,0,598.67,55.54ZM595.2,69.95l-8.46,6.76a10.77,10.77,0,0,1,7.81-18.18l0.64,0V69.95Z"/><ellipse class="g" cx="712.33" cy="491.37" rx="16.88" ry="5.94"/><ellipse class="g" cx="712.33" cy="342.33" rx="16.88" ry="5.94"/><line class="Line.singleton" x1="712.33" y1="35.63" x2="712.33" y2="491.37"/><text class="h" transform="translate(732.44 25.18)"><tspan class="k">W</tspan><tspan x="18.25" y="0">eb Page</tspan></text><path class="i" d="M717.92,19.84a5.4,5.4,0,0,1-5.39-5.39v-9h-9a5.4,5.4,0,0,0-5.39,5.39v18a5.4,5.4,0,0,0,5.39,5.39h18a5.4,5.4,0,0,0,5.39-5.39v-9h-9Z"/><path class="i" d="M719.72,16.25h7.18L716.13,5.48v7.18A3.6,3.6,0,0,0,719.72,16.25Z"/><text class="f" transform="translate(789.85 322.46)">Display Layout</text><ellipse class="l" cx="770.72" cy="484.1" rx="16.88" ry="5.94"/><line class="line.contain-own" x1="770.72" y1="331.49" x2="770.72" y2="484.1"/><path class="e" d="M769,300.92h-7.18a5.4,5.4,0,0,0-5.39,5.39v18a5.4,5.4,0,0,0,5.39,5.39H769V300.92Z"/><path class="e" d="M779.73,300.92h-7.18v16.2h12.57V306.3A5.4,5.4,0,0,0,779.73,300.92Z"/><path class="e" d="M772.55,329.64h7.18a5.4,5.4,0,0,0,5.39-5.39v-3.64H772.55v9Z"/><ellipse class="l" cx="138.48" cy="455.07" rx="16.88" ry="5.94"/><ellipse class="l" cx="138.48" cy="340.75" rx="16.88" ry="5.94"/><line class="line.contain-own" x1="138.48" y1="245.87" x2="138.48" y2="455.07"/><text class="f" transform="translate(156.49 237.91)">Timeline</text><rect class="e" x="131.31" y="224.18" width="10.77" height="3.59"/><rect class="e" x="134.9" y="229.57" width="10.77" height="3.59"/><rect class="e" x="133.11" y="234.95" width="10.77" height="3.59"/><path class="e" d="M147.47,217h-3.59v5.39h3.59v17.93h-3.59v5.39h3.59a5.4,5.4,0,0,0,5.39-5.39v-18A5.4,5.4,0,0,0,147.47,217Z"/><path class="e" d="M129.52,240.32V222.4h3.59V217h-3.59a5.4,5.4,0,0,0-5.39,5.39v18a5.4,5.4,0,0,0,5.39,5.39h3.59v-5.39h-3.59Z"/><ellipse class="g" cx="421.87" cy="502.71" rx="16.88" ry="5.94"/><ellipse class="g" cx="421.87" cy="374.73" rx="16.88" ry="5.94"/><line class="Line.singleton" x1="421.87" y1="180.01" x2="421.87" y2="215.19"/><line class="Line.singleton" x1="421.87" y1="246.55" x2="421.87" y2="285.56"/><line class="Line.singleton" x1="421.87" y1="313.57" x2="421.87" y2="502.71"/><text class="h" transform="translate(441.26 170.44)">Fixed</text><rect class="i" x="407.51" y="159.86" width="3.59" height="7.18"/><path class="i" d="M411.1,152.69h5.39v-3.59H411.1a3.6,3.6,0,0,0-3.59,3.59v5.39h3.59v-5.38Z"/><path class="i" d="M411.1,174.22v-5.38h-3.59v5.39a3.6,3.6,0,0,0,3.59,3.59h5.39v-3.59H411.1Z"/><rect class="i" x="418.28" y="149.09" width="7.18" height="3.59"/><path class="i" d="M432.65,174.22h-5.39v3.59h5.39a3.6,3.6,0,0,0,3.59-3.59v-5.39h-3.59v5.38Z"/><path class="i" d="M432.65,149.09h-5.39v3.59h5.39v5.38h3.59v-5.39A3.6,3.6,0,0,0,432.65,149.09Z"/><rect class="i" x="432.65" y="159.86" width="3.59" height="7.18"/><rect class="i" x="418.28" y="174.23" width="7.18" height="3.59"/><rect class="i" x="414.69" y="156.27" width="14.36" height="14.36"/><ellipse class="g" cx="368.89" cy="498.33" rx="16.88" ry="5.94"/><line class="Line.singleton" x1="368.89" y1="101.13" x2="368.89" y2="498.33"/><path class="i" d="M369.26,77.09l-14.36,9v14.36a5.4,5.4,0,0,0,5.39,5.39h18a5.4,5.4,0,0,0,5.39-5.39V86.07Zm0,5.39,10.05,6.28L369.26,95l-10.05-6.28Z"/><text class="h" transform="translate(388.19 101.09)">Packet</text><ellipse class="l" cx="92.91" cy="438.7" rx="16.88" ry="5.94"/><ellipse class="l" cx="92.91" cy="322.78" rx="16.88" ry="5.94"/><ellipse class="l" cx="92.91" cy="230.39" rx="16.88" ry="5.94"/><line class="line.contain-own" x1="92.91" y1="181.86" x2="92.91" y2="438.7"/><text class="f" transform="translate(107.32 173.2)">Activity</text><path class="e" d="M94.19,153.3H87l9,9H87.84a7.18,7.18,0,0,0-6.22-3.59H78V173h3.59a7.18,7.18,0,0,0,6.22-3.59H96l-9,9h7.18l12.57-12.57Z"/><text class="h" transform="translate(441.26 303.84)"><tspan class="j">T</tspan><tspan x="9.72" y="0">able</tspan></text><path class="i" d="M433.17,283.37H411.62A3.6,3.6,0,0,0,408,287V308.5a3.6,3.6,0,0,0,3.59,3.59h21.54a3.6,3.6,0,0,0,3.59-3.59V287A3.6,3.6,0,0,0,433.17,283.37ZM417,310.3h-5.39a1.8,1.8,0,0,1-1.8-1.8v-3.59H417v5.39Zm0-7.18h-7.18v-5.39H417v5.39Zm0-7.18h-7.18v-5.39H417v5.39Zm9,14.36H418.8v-5.39H426v5.39Zm0-7.18H418.8v-5.39H426v5.39Zm0-7.18H418.8v-5.39H426v5.39Zm9,12.57a1.8,1.8,0,0,1-1.8,1.8h-5.39v-5.39H435v3.59Zm0-5.39h-7.18v-5.39H435v5.39Zm0-7.18h-7.18v-5.39H435v5.39Z"/><text class="h" transform="translate(441.26 238.09)">Plot</text><path class="i" d="M431.19,217.07H413.36a5.46,5.46,0,0,0-5.44,5.44v11.41a2.78,2.78,0,0,0,.9.87c0.4-.16,1.53-1.33,2.61-4.1,1.19-3,3.26-6.67,6.37-6.67a5.25,5.25,0,0,1,4.09,2.43,17.94,17.94,0,0,1,2.28,4.24c1.08,2.76,2.21,3.94,2.61,4.1,0.4-.16,1.53-1.33,2.61-4.1,1.19-3,3.26-6.67,6.37-6.67a3.9,3.9,0,0,1,.9.1v-1.62A5.46,5.46,0,0,0,431.19,217.07Z"/><path class="i" d="M435.74,228.08c-0.4.16-1.53,1.33-2.61,4.1-1.19,3-3.26,6.67-6.37,6.67a5.25,5.25,0,0,1-4.09-2.43,17.94,17.94,0,0,1-2.28-4.24c-1.08-2.76-2.21-3.94-2.61-4.1-0.4.16-1.53,1.33-2.61,4.1-1.19,3-3.26,6.67-6.37,6.67a3.9,3.9,0,0,1-.9-0.1v1.62a5.46,5.46,0,0,0,5.44,5.44h17.84a5.46,5.46,0,0,0,5.44-5.44V228.94A2.78,2.78,0,0,0,435.74,228.08Z"/><rect class="e" x="742.49" y="532.43" width="22.98" height="22.98" rx="2" ry="2"/><text class="m" transform="translate(769.86 551.1)">Can contain their own type</text></svg>