<svg xmlns="http://www.w3.org/2000/svg" xmlns:xlink="http://www.w3.org/1999/xlink" width="200" height="100" viewBox="0 0 200 100">
  <defs>
    <linearGradient id="plugin-icon-utility-white-a" x1="50%" x2="50%" y1="0%" y2="100%">
      <stop offset="0%" stop-color="#FFF" stop-opacity="0"/>
      <stop offset="100%" stop-opacity=".188"/>
    </linearGradient>
    <path id="plugin-icon-utility-white-b" d="M62.2876428,39.2621041 L55.1764544,41.0137571 C54.7333671,42.650005 54.0758989,44.199873 53.2342146,45.6318508 L57.0060056,51.825657 L52.4404507,56.3240713 L46.1541997,52.6077479 C44.7008491,53.4370545 43.1278487,54.084854 41.4671792,54.5214253 L39.6893821,61.5280374 L33.2327362,61.5280374 L31.4549391,54.5214253 C29.7942696,54.084854 28.2212693,53.4370545 26.7679187,52.6077479 L20.4816677,56.3240713 L15.9161128,51.825657 L19.6879038,45.6318508 C18.8462194,44.199873 18.1887513,42.650005 17.745664,41.0137571 L10.6344756,39.2621041 L10.6344756,32.9004089 L17.745664,31.1487559 C18.1887513,29.512508 18.8462194,27.96264 19.6879038,26.5306621 L15.9161128,20.336856 L20.4816677,15.8384417 L26.7679187,19.5547651 C28.2212693,18.7254585 29.7942696,18.077659 31.4549391,17.6410877 L33.2327362,10.6344756 L39.6893821,10.6344756 L41.4671792,17.6410877 C43.1278487,18.077659 44.7008491,18.7254585 46.1541997,19.5547651 L52.4404507,15.8384417 L57.0060056,20.336856 L53.2342146,26.5306621 C54.0758989,27.96264 54.7333671,29.512508 55.1764544,31.1487559 L62.2876428,32.9004089 L62.2876428,39.2621041 Z M45.7586293,35.7419661 C45.7586293,30.4952216 41.4417589,26.2418345 36.1167047,26.2418345 C30.7916506,26.2418345 26.4747802,30.4952216 26.4747802,35.7419661 C26.4747802,40.9887106 30.7916506,45.2420976 36.1167047,45.2420976 C41.4417589,45.2420976 45.7586293,40.9887106 45.7586293,35.7419661 Z"/>
  </defs>
  <g fill="none" fill-rule="evenodd">
    <rect width="200" height="100" fill="#0199F9"/>
    <rect width="200" height="100" x="1" fill="url(#plugin-icon-utility-white-a)" fill-rule="nonzero"/>
    <g transform="translate(54 9)">
      <use fill="#FFF" fill-rule="nonzero" transform="rotate(-36 36.461 36.081)" xlink:href="#plugin-icon-utility-white-b"/>
      <path fill="#FFF" fill-rule="nonzero" d="M87.7562188,58.7350924 L87.7562188,54.3673614 L82.945709,53.1647339 C82.6459735,52.0413398 82.2012156,50.9772514 81.6318409,49.9941024 L84.1833466,45.7416385 L81.094883,42.6531749 L76.8424191,45.2046806 C75.8592701,44.6353059 74.7951817,44.190548 73.6717876,43.8908125 L72.4691601,39.0803027 L68.1014291,39.0803027 L66.8988016,43.8908125 C65.7754076,44.190548 64.7113191,44.6353059 63.7281701,45.2046806 L59.4757062,42.6531749 L56.3872427,45.7416385 L58.9387483,49.9941024 C58.3693736,50.9772514 57.9246157,52.0413398 57.6248802,53.1647339 L52.8143704,54.3673614 L52.8143704,58.7350924 L57.6248802,59.9377199 C57.9246157,61.0611139 58.3693736,62.1252024 58.9387483,63.1083514 L56.3872427,67.3608153 L59.4757062,70.4492788 L63.7281701,67.8977732 C64.7113191,68.4671479 65.7754076,68.9119058 66.8988016,69.2116413 L68.1014291,74.0221511 L72.4691601,74.0221511 L73.6717876,69.2116413 C74.7951817,68.9119058 75.8592701,68.4671479 76.8424191,67.8977732 L81.094883,70.4492788 L84.1833466,67.3608153 L81.6318409,63.1083514 C82.2012156,62.1252024 82.6459735,61.0611139 82.945709,59.9377199 L87.7562188,58.7350924 Z M77.4255501,56.3850417 C77.4255501,60.2445873 74.296726,63.3734114 70.4371805,63.3734114 C66.5776349,63.3734114 63.4488108,60.2445873 63.4488108,56.3850417 C63.4488108,52.5254962 66.5776349,49.396672 70.4371805,49.396672 C74.296726,49.396672 77.4255501,52.5254962 77.4255501,56.3850417 Z" transform="rotate(-58 70.285 56.551)"/>
      <path fill="#FFF" fill-rule="nonzero" d="M83.556594,26.8235657 L83.556594,24.0699961 L80.419305,23.3118179 C80.2238253,22.6035912 79.9337658,21.9327528 79.5624345,21.3129415 L81.2264599,18.6320404 L79.2122445,16.6849655 L76.4388985,18.2935234 C75.7977144,17.9345698 75.1037437,17.654179 74.3710954,17.4652153 L73.5867731,14.4325026 L70.7382529,14.4325026 L69.9539306,17.4652153 C69.2212823,17.654179 68.5273116,17.9345698 67.8861274,18.2935234 L65.1127814,16.6849655 L63.0985661,18.6320404 L64.7625915,21.3129415 C64.3912602,21.9327528 64.1012007,22.6035912 63.905721,23.3118179 L60.768432,24.0699961 L60.768432,26.8235657 L63.905721,27.5817439 C64.1012007,28.2899706 64.3912602,28.9608089 64.7625915,29.5806202 L63.0985661,32.2615214 L65.1127814,34.2085963 L67.8861274,32.6000384 C68.5273116,32.958992 69.2212823,33.2393828 69.9539306,33.4283465 L70.7382529,36.4610592 L73.5867731,36.4610592 L74.3710954,33.4283465 C75.1037437,33.2393828 75.7977144,32.958992 76.4388985,32.6000384 L79.2122445,34.2085963 L81.2264599,32.2615214 L79.5624345,29.5806202 C79.9337658,28.9608089 80.2238253,28.2899706 80.419305,27.5817439 L83.556594,26.8235657 Z M76.8192014,25.342012 C76.8192014,27.7752037 74.7786639,29.7477233 72.261569,29.7477233 C69.7444741,29.7477233 67.7039366,27.7752037 67.7039366,25.342012 C67.7039366,22.9088202 69.7444741,20.9363007 72.261569,20.9363007 C74.7786639,20.9363007 76.8192014,22.9088202 76.8192014,25.342012 Z" transform="rotate(-34 72.163 25.447)"/>
    </g>
  </g>
</svg>
