<?xml version="1.0" encoding="utf-8"?>
<!-- Generator: Adobe Illustrator 17.1.0, SVG Export Plug-In . SVG Version: 6.00 Build 0)  -->
<!DOCTYPE svg PUBLIC "-//W3C//DTD SVG 1.1//EN" "http://www.w3.org/Graphics/SVG/1.1/DTD/svg11.dtd">
<svg version="1.1" id="Layer_1" xmlns="http://www.w3.org/2000/svg" xmlns:xlink="http://www.w3.org/1999/xlink" x="0px" y="0px"
	 viewBox="0 0 509 65.2" enable-background="new 0 0 509 65.2" xml:space="preserve">
<g id="logo_s3_4_">
	<g>
		<g>
			<path fill="#FFFFFF" d="M53.9,33.3c0,3-0.5,5.8-1.6,8.4c-1,2.5-2.5,4.7-4.3,6.6c-1.9,1.9-4,3.3-6.6,4.3c-2.5,1-5.3,1.5-8.3,1.5
				H20.9c-3,0-5.8-0.5-8.3-1.5c-2.5-1-4.8-2.5-6.6-4.3c-1.9-1.9-3.3-4.1-4.4-6.6C0.5,39.1,0,36.3,0,33.3v-9.5c0-3,0.5-5.8,1.6-8.4
				c1.1-2.6,2.5-4.8,4.4-6.6C7.8,7,10,5.5,12.5,4.5c2.5-1,5.3-1.6,8.3-1.6h12.2c3,0,5.8,0.5,8.3,1.6c2.5,1,4.7,2.5,6.6,4.3
				c1.9,1.8,3.3,4,4.3,6.6c1,2.6,1.6,5.3,1.6,8.4V33.3z M44.8,23.8c0-1.8-0.3-3.4-0.9-4.8c-0.6-1.4-1.4-2.7-2.4-3.7
				c-1-1-2.3-1.8-3.7-2.4c-1.4-0.6-3-0.9-4.8-0.9H20.9c-1.8,0-3.4,0.3-4.8,0.9c-1.4,0.6-2.7,1.4-3.7,2.4c-1,1-1.8,2.3-2.4,3.7
				C9.3,20.4,9,22,9,23.8v9.5c0,1.8,0.3,3.4,0.9,4.8c0.6,1.5,1.4,2.7,2.4,3.7c1,1,2.3,1.8,3.7,2.4c1.4,0.6,3.1,0.9,4.8,0.9H33
				c1.8,0,3.4-0.3,4.8-0.9c1.4-0.6,2.7-1.4,3.7-2.4c1-1,1.8-2.3,2.4-3.7c0.6-1.4,0.9-3.1,0.9-4.8V23.8z"/>
			<path fill="#FFFFFF" d="M98.1,40.8c0,1.6-0.2,2.9-0.6,4.2c-0.4,1.2-0.9,2.3-1.6,3.3c-0.6,0.9-1.4,1.7-2.3,2.4
				c-0.9,0.7-1.8,1.2-2.7,1.6c-0.9,0.4-1.9,0.7-2.8,0.9c-1,0.2-1.9,0.3-2.7,0.3H69.1v-9h16.3c1.2,0,2.1-0.3,2.7-0.9
				c0.6-0.6,0.9-1.5,0.9-2.7V28.6c0-1.3-0.3-2.2-0.9-2.8c-0.6-0.6-1.5-0.9-2.7-0.9H69.2c-1.2,0-2.2,0.3-2.8,0.9
				c-0.6,0.6-0.9,1.5-0.9,2.7v36.7h-9V28.5c0-1.6,0.2-2.9,0.6-4.2c0.4-1.2,0.9-2.3,1.6-3.3c0.7-0.9,1.4-1.7,2.3-2.4
				c0.9-0.7,1.8-1.2,2.7-1.6c0.9-0.4,1.9-0.7,2.8-0.9c1-0.2,1.9-0.3,2.7-0.3h16.3c1.6,0,2.9,0.2,4.2,0.6c1.2,0.4,2.3,0.9,3.2,1.6
				c0.9,0.6,1.7,1.4,2.4,2.3c0.7,0.9,1.2,1.8,1.6,2.7c0.4,0.9,0.7,1.9,0.9,2.8c0.2,1,0.3,1.9,0.3,2.7V40.8z"/>
			<path fill="#FFFFFF" d="M141.2,28.3c0,1.3-0.2,2.6-0.7,4c-0.4,1.4-1.2,2.8-2.1,4c-1,1.2-2.3,2.3-3.9,3.1
				c-1.6,0.8-3.5,1.3-5.8,1.3h-16.3v-8.6h16.3c1.2,0,2.2-0.4,2.8-1.1c0.7-0.8,1-1.7,1-2.8c0-1.2-0.4-2.1-1.1-2.8
				c-0.8-0.7-1.7-1-2.7-1h-16.3c-1.2,0-2.2,0.4-2.9,1.1c-0.7,0.8-1,1.7-1,2.8V41c0,1.2,0.4,2.1,1.1,2.8c0.8,0.7,1.7,1,2.8,1h23.6
				v8.6h-23.7c-1.3,0-2.6-0.2-4-0.7c-1.4-0.4-2.8-1.2-4-2.1c-1.2-1-2.3-2.3-3.1-3.9c-0.8-1.6-1.2-3.5-1.2-5.8V28.3
				c0-1.3,0.2-2.6,0.7-4c0.4-1.4,1.2-2.8,2.1-4c1-1.2,2.3-2.3,3.9-3.1c1.6-0.8,3.5-1.3,5.8-1.3h16.3c1.3,0,2.6,0.2,4,0.7
				c1.4,0.4,2.8,1.2,4,2.1c1.2,1,2.3,2.3,3.1,3.9C140.8,24.1,141.2,26.1,141.2,28.3z"/>
			<path fill="#FFFFFF" d="M183.9,53.5h-9V32.6c0-1.2-0.2-2.2-0.6-3.2c-0.4-0.9-1-1.7-1.7-2.4c-0.7-0.7-1.5-1.2-2.5-1.5
				c-0.9-0.4-2-0.5-3-0.5h-15.8v28.5h-9V20.4c0-0.6,0.1-1.2,0.3-1.8c0.2-0.5,0.6-1,1-1.4c0.4-0.4,0.9-0.7,1.5-1
				c0.6-0.2,1.1-0.3,1.8-0.3h20.4c1.1,0,2.3,0.1,3.6,0.4c1.3,0.3,2.5,0.7,3.8,1.2c1.2,0.6,2.4,1.3,3.5,2.2c1.1,0.9,2.1,1.9,3,3.2
				c0.9,1.2,1.6,2.7,2.1,4.3c0.5,1.6,0.8,3.5,0.8,5.5V53.5z"/>
			<path fill="#FFFFFF" d="M245.9,53.5h-9.1V23.8l-16,28.2c-0.4,0.7-0.9,1.3-1.7,1.6c-0.7,0.4-1.5,0.6-2.3,0.6
				c-0.8,0-1.5-0.2-2.2-0.6c-0.7-0.4-1.2-0.9-1.6-1.6l-16.1-28.2v29.7h-9v-46c0-1,0.3-2,0.9-2.8c0.6-0.8,1.4-1.4,2.4-1.6
				c0.5-0.1,1-0.2,1.5-0.1c0.5,0,1,0.1,1.4,0.3c0.5,0.2,0.9,0.4,1.2,0.7c0.4,0.3,0.7,0.7,0.9,1.1l20.6,35.8l20.6-35.8
				c0.5-0.9,1.3-1.5,2.2-1.9c0.9-0.4,1.9-0.4,2.9-0.2c1,0.3,1.8,0.8,2.4,1.6c0.6,0.8,0.9,1.7,0.9,2.8V53.5z"/>
			<path fill="#FFFFFF" d="M292.7,53.5h-31.5c-0.8,0-1.7-0.1-2.7-0.3c-1-0.2-1.9-0.5-2.9-0.9c-0.9-0.4-1.8-1-2.7-1.6
				c-0.9-0.7-1.6-1.5-2.3-2.4c-0.7-0.9-1.2-2-1.6-3.3c-0.4-1.2-0.6-2.6-0.6-4.2V16.3c0-0.8,0.1-1.7,0.3-2.7c0.2-1,0.5-1.9,0.9-2.9
				c0.4-0.9,1-1.8,1.6-2.7c0.7-0.9,1.5-1.6,2.4-2.3c0.9-0.7,2-1.2,3.2-1.6c1.2-0.4,2.6-0.6,4.2-0.6h31.5v9h-31.5
				c-1.2,0-2.1,0.3-2.7,0.9c-0.6,0.6-0.9,1.6-0.9,2.8v24.4c0,1.2,0.3,2.1,1,2.7c0.6,0.6,1.5,1,2.7,1h31.5V53.5z"/>
			<path fill="#FFFFFF" d="M344.1,12.7h-19.9v40.8h-9V12.7h-19.9v-9h48.9V12.7z"/>
			<path fill="#4F79F7" d="M41.9,19.7c-0.5-1.2-1.1-2.1-1.9-3c-0.8-0.8-1.8-1.4-3-1.9c-1.2-0.5-2.5-0.7-4-0.7h-7.7
				c-0.7,3.7-0.7,6.4-0.4,7.8c0.1-0.1,0.2-0.1,0.2-0.2c0.8-0.7,1.8-1.6,3.1-2.1c0.9-0.4,1.9-0.6,2.8-0.6c1.6,0,3,0.6,4,1.7
				c1.4,1.6,2,4.2,1.6,7.5c-1,8.1-5.7,8.7-7.1,8.7c-0.9,0-1.9-0.2-2.8-0.6c-1.3-0.6-2.2-1.5-2.8-2.2c0,0-0.1-0.1-0.1-0.1
				c-0.7,1.3-1.5,4.3-1.8,8.7h11c1.5,0,2.8-0.2,4-0.7c1.2-0.5,2.2-1.1,3-1.9c0.8-0.8,1.4-1.8,1.9-2.9c0.5-1.2,0.7-2.5,0.7-4v-9.5
				C42.6,22.3,42.4,20.9,41.9,19.7z M23.6,31.3c1.4,0,2.2,2.2,4,3c2.4,1.1,5.7,0.2,6.5-6.2c0.8-6.4-2.4-7.3-5-6.2
				c-2,0.8-3.3,3-4.7,3c-1.8,0-2.6-4.1-1.5-10.8h-2.1c-1.5,0-2.8,0.2-4,0.7c-1.2,0.5-2.2,1.1-3,1.9c-0.8,0.8-1.5,1.8-1.9,3
				c-0.5,1.2-0.7,2.5-0.7,4v9.5c0,1.5,0.2,2.9,0.7,4c0.5,1.2,1.1,2.1,1.9,2.9c0.8,0.8,1.8,1.4,3,1.9c0.8,0.3,1.7,0.5,2.7,0.6
				C19.9,35.7,21.8,31.3,23.6,31.3z"/>
		</g>
		<g>
			<path fill="#4F79F7" d="M425,3.6l-8.4,46.9c-0.2,0.9-0.6,1.7-1.3,2.4c-0.7,0.7-1.4,1.1-2.4,1.3c-1,0.2-1.9,0.1-2.7-0.3
				c-0.8-0.4-1.5-1-2-1.7l-16.6-27.3L375,52.2c-0.4,0.7-0.9,1.2-1.6,1.6s-1.4,0.6-2.2,0.6c-1.1,0-2.1-0.3-2.9-1
				c-0.8-0.7-1.3-1.6-1.5-2.7l-8.4-46.9h9.2l6,33l14.3-22.8c0.4-0.7,0.9-1.2,1.6-1.6c0.7-0.4,1.4-0.6,2.2-0.6c0.8,0,1.5,0.2,2.2,0.6
				c0.7,0.4,1.2,0.9,1.7,1.6l14.2,22.8l6-33H425z"/>
			<path fill="#4F79F7" d="M509,40.9c0,0.9-0.1,1.8-0.3,2.7c-0.2,1-0.5,1.9-0.9,2.8c-0.4,0.9-1,1.8-1.6,2.7
				c-0.7,0.9-1.5,1.6-2.4,2.3c-0.9,0.7-2,1.2-3.3,1.6c-1.2,0.4-2.6,0.6-4.2,0.6h-16.4c-0.9,0-1.8-0.1-2.7-0.3
				c-1-0.2-1.9-0.5-2.8-0.9c-0.9-0.4-1.8-1-2.7-1.6c-0.9-0.7-1.6-1.5-2.3-2.4c-0.7-0.9-1.2-2-1.6-3.3c-0.4-1.2-0.6-2.6-0.6-4.2V0
				h9.1v40.9c0,1.1,0.3,2,1,2.7c0.7,0.7,1.6,1,2.6,1h16.4c1.1,0,2-0.3,2.7-1c0.6-0.7,1-1.6,1-2.7V28.7c0-1.1-0.3-2-1-2.7
				c-0.7-0.6-1.5-1-2.6-1h-16.4v-9.1h16.4c0.9,0,1.8,0.1,2.7,0.3c1,0.2,1.9,0.5,2.8,0.9c0.9,0.4,1.8,1,2.7,1.6
				c0.9,0.7,1.6,1.5,2.3,2.4c0.7,0.9,1.2,2,1.6,3.3c0.4,1.2,0.6,2.6,0.6,4.2V40.9z"/>
			<path fill="#4F79F7" d="M465.1,28.3c0,1.3-0.2,2.6-0.7,4c-0.4,1.4-1.2,2.8-2.1,4c-1,1.2-2.3,2.3-3.9,3.1
				c-1.6,0.8-3.5,1.3-5.8,1.3h-16.3v-8.6h16.3c1.2,0,2.2-0.4,2.8-1.1c0.7-0.8,1-1.7,1-2.8c0-1.2-0.4-2.1-1.1-2.8
				c-0.8-0.7-1.7-1-2.7-1h-16.3c-1.2,0-2.2,0.4-2.9,1.1c-0.7,0.8-1,1.7-1,2.8V41c0,1.2,0.4,2.1,1.1,2.8c0.8,0.7,1.7,1,2.8,1H460v8.6
				h-23.7c-1.3,0-2.6-0.2-4-0.7c-1.4-0.4-2.8-1.2-4-2.1c-1.2-1-2.3-2.3-3.1-3.9c-0.8-1.6-1.2-3.5-1.2-5.8V28.3c0-1.3,0.2-2.6,0.7-4
				c0.4-1.4,1.2-2.8,2.1-4c1-1.2,2.3-2.3,3.9-3.1c1.6-0.8,3.5-1.3,5.8-1.3h16.3c1.3,0,2.6,0.2,4,0.7c1.4,0.4,2.8,1.2,4,2.1
				c1.2,1,2.3,2.3,3.1,3.9C464.6,24.1,465.1,26.1,465.1,28.3z"/>
		</g>
	</g>
</g>
</svg>
