<?xml version="1.0" encoding="utf-8"?>
<!-- Generator: Adobe Illustrator 17.0.2, SVG Export Plug-In . SVG Version: 6.00 Build 0)  -->
<!DOCTYPE svg PUBLIC "-//W3C//DTD SVG 1.1//EN" "http://www.w3.org/Graphics/SVG/1.1/DTD/svg11.dtd">
<svg version="1.1" id="Layer_1" xmlns="http://www.w3.org/2000/svg" xmlns:xlink="http://www.w3.org/1999/xlink" x="0px" y="0px"
	 width="1040px" height="150px" viewBox="0 0 1040 150" enable-background="new 0 0 1040 150" xml:space="preserve">
<filter  width="150%" height="130%" x="-15%" y="-15%" filterUnits="objectBoundingBox" id="AI_Shadow_Custom">
	<feGaussianBlur  in="SourceAlpha" stdDeviation="6" result="blur"></feGaussianBlur>
	<feOffset  dy="3" dx="0" in="blur" result="offsetBlurredAlpha"></feOffset>
	<feMerge>
		<feMergeNode  in="offsetBlurredAlpha"></feMergeNode>
		<feMergeNode  in="SourceGraphic"></feMergeNode>
	</feMerge>
</filter>
<g filter="url(#AI_Shadow_Custom)">
	<path fill="#FFFFFF" d="M121.932,76.064c0,5.952-0.992,11.507-3.174,16.665c-1.984,4.96-4.96,9.324-8.531,13.094
		c-3.769,3.769-7.936,6.547-13.094,8.531c-4.96,1.984-10.515,2.976-16.466,2.976H56.463c-5.952,0-11.507-0.992-16.466-2.976
		s-9.523-4.96-13.094-8.531c-3.769-3.769-6.547-8.134-8.729-13.094C15.992,87.57,15,82.015,15,76.064V57.217
		c0-5.952,0.992-11.507,3.174-16.665s4.96-9.523,8.729-13.094c3.571-3.571,7.936-6.547,12.895-8.531s10.515-3.174,16.466-3.174
		h24.203c5.952,0,11.507,0.992,16.466,3.174c4.96,1.984,9.324,4.96,13.094,8.531s6.547,7.936,8.531,13.094
		c1.984,5.158,3.174,10.515,3.174,16.665v18.847H121.932z M103.878,57.217c0-3.571-0.595-6.745-1.786-9.523
		c-1.19-2.777-2.777-5.357-4.761-7.34c-1.984-1.984-4.563-3.571-7.34-4.761c-2.777-1.19-5.952-1.786-9.523-1.786H56.463
		c-3.571,0-6.745,0.595-9.523,1.786c-2.777,1.19-5.357,2.777-7.34,4.761c-1.984,1.984-3.571,4.563-4.761,7.34
		c-1.389,2.777-1.984,5.952-1.984,9.523v18.847c0,3.571,0.595,6.745,1.786,9.523c1.19,2.976,2.777,5.357,4.761,7.34
		s4.563,3.571,7.34,4.761c2.777,1.19,6.15,1.786,9.523,1.786h24.203c3.571,0,6.745-0.595,9.523-1.786
		c2.777-1.19,5.357-2.777,7.34-4.761s3.571-4.563,4.761-7.34c1.19-2.777,1.786-6.15,1.786-9.523L103.878,57.217z"/>
	<path fill="#FFFFFF" d="M209.62,90.943c0,3.174-0.397,5.753-1.19,8.332c-0.794,2.381-1.786,4.563-3.174,6.547
		c-1.19,1.786-2.777,3.373-4.563,4.761c-1.786,1.389-3.571,2.381-5.357,3.174c-1.786,0.794-3.769,1.389-5.555,1.786
		c-1.984,0.397-3.769,0.595-5.357,0.595h-32.337V98.283h32.337c2.381,0,4.166-0.595,5.357-1.786c1.19-1.19,1.786-2.976,1.786-5.357
		V66.739c0-2.579-0.595-4.365-1.786-5.555c-1.19-1.19-2.976-1.786-5.357-1.786h-32.139c-2.381,0-4.365,0.595-5.555,1.786
		c-1.19,1.19-1.786,2.976-1.786,5.357v72.809H127.09V66.541c0-3.174,0.397-5.753,1.19-8.332c0.794-2.381,1.786-4.563,3.174-6.547
		c1.389-1.786,2.777-3.373,4.563-4.761s3.571-2.381,5.357-3.174s3.769-1.389,5.555-1.786c1.984-0.397,3.769-0.595,5.357-0.595
		h32.337c3.174,0,5.753,0.397,8.332,1.19c2.381,0.794,4.563,1.786,6.348,3.174c1.786,1.19,3.373,2.777,4.761,4.563
		s2.381,3.571,3.174,5.357c0.794,1.786,1.389,3.769,1.785,5.555c0.397,1.984,0.595,3.769,0.595,5.357L209.62,90.943L209.62,90.943z"
		/>
	<path fill="#FFFFFF" d="M295.126,66.144c0,2.579-0.397,5.158-1.389,7.936c-0.794,2.777-2.381,5.555-4.166,7.936
		c-1.984,2.381-4.563,4.563-7.737,6.15c-3.174,1.587-6.944,2.579-11.507,2.579H237.99V73.683h32.337
		c2.381,0,4.365-0.794,5.555-2.182c1.389-1.587,1.984-3.373,1.984-5.555c0-2.381-0.794-4.166-2.182-5.555
		c-1.587-1.389-3.373-1.984-5.357-1.984H237.99c-2.381,0-4.365,0.794-5.753,2.182c-1.389,1.587-1.984,3.373-1.984,5.555V91.34
		c0,2.381,0.794,4.166,2.182,5.555c1.587,1.389,3.373,1.984,5.555,1.984h46.82v17.061h-47.018c-2.579,0-5.158-0.397-7.936-1.389
		c-2.777-0.794-5.555-2.381-7.936-4.166c-2.381-1.984-4.563-4.563-6.15-7.737c-1.587-3.174-2.381-6.944-2.381-11.507V66.144
		c0-2.579,0.397-5.158,1.389-7.936c0.794-2.777,2.381-5.555,4.166-7.936c1.984-2.381,4.563-4.563,7.737-6.15
		s6.944-2.579,11.507-2.579h32.337c2.579,0,5.158,0.397,7.936,1.389c2.777,0.794,5.555,2.381,7.936,4.166
		c2.381,1.984,4.563,4.563,6.15,7.737C294.332,57.812,295.126,61.78,295.126,66.144z"/>
	<path fill="#FFFFFF" d="M379.838,116.138h-17.855V74.675c0-2.381-0.397-4.365-1.19-6.348c-0.794-1.785-1.984-3.373-3.373-4.761
		c-1.389-1.389-2.976-2.381-4.96-2.976c-1.785-0.794-3.968-0.992-5.952-0.992h-31.346v56.541h-17.855V50.471
		c0-1.19,0.198-2.381,0.595-3.571c0.397-0.992,1.19-1.984,1.984-2.777c0.794-0.794,1.785-1.389,2.976-1.984
		c1.19-0.397,2.182-0.595,3.571-0.595h40.471c2.182,0,4.563,0.198,7.142,0.794c2.579,0.595,4.96,1.389,7.539,2.381
		c2.381,1.19,4.761,2.579,6.944,4.365c2.182,1.786,4.166,3.769,5.952,6.348c1.785,2.381,3.174,5.357,4.166,8.531
		c0.992,3.174,1.587,6.944,1.587,10.911v41.265H379.838z"/>
	<path fill="#FFFFFF" d="M502.839,116.138h-18.053V57.217l-31.742,55.946c-0.794,1.389-1.785,2.579-3.373,3.174
		c-1.389,0.794-2.976,1.19-4.563,1.19s-2.976-0.397-4.365-1.19c-1.389-0.794-2.381-1.786-3.174-3.174l-31.941-55.946v58.922h-17.855
		V24.879c0-1.984,0.595-3.968,1.785-5.555c1.19-1.587,2.777-2.777,4.761-3.174c0.992-0.198,1.984-0.397,2.976-0.198
		c0.992,0,1.984,0.198,2.777,0.595c0.992,0.397,1.785,0.794,2.381,1.389c0.794,0.595,1.389,1.389,1.785,2.182l40.868,71.023
		l40.868-71.023c0.992-1.786,2.579-2.976,4.365-3.769c1.785-0.794,3.769-0.794,5.753-0.397c1.984,0.595,3.571,1.587,4.761,3.174
		c1.19,1.587,1.785,3.373,1.785,5.555v91.457H502.839z"/>
	<path fill="#FFFFFF" d="M595.685,116.138h-62.493c-1.587,0-3.373-0.198-5.357-0.595c-1.984-0.397-3.769-0.992-5.753-1.786
		c-1.786-0.794-3.571-1.984-5.357-3.174c-1.786-1.389-3.174-2.976-4.563-4.761c-1.389-1.786-2.381-3.968-3.174-6.547
		c-0.794-2.381-1.19-5.158-1.19-8.332V42.337c0-1.587,0.198-3.373,0.595-5.357c0.397-1.984,0.992-3.769,1.785-5.753
		c0.794-1.786,1.984-3.571,3.174-5.357c1.389-1.786,2.976-3.174,4.761-4.563c1.786-1.389,3.968-2.381,6.348-3.174
		c2.381-0.794,5.158-1.19,8.332-1.19h62.493v17.855h-62.493c-2.381,0-4.166,0.595-5.357,1.786c-1.19,1.19-1.785,3.174-1.785,5.555
		v48.407c0,2.381,0.595,4.166,1.984,5.357c1.19,1.19,2.976,1.984,5.357,1.984h62.493v18.252H595.685z"/>
	<path fill="#FFFFFF" d="M697.658,35.195h-39.479v80.943h-17.855V35.195h-39.479V17.34h97.012v17.855H697.658z"/>
	<path fill="#4F79F7" d="M98.125,49.083c-0.992-2.381-2.182-4.166-3.769-5.952c-1.587-1.587-3.571-2.777-5.952-3.769
		c-2.381-0.992-4.96-1.389-7.936-1.389H65.192c-1.389,7.34-1.389,12.697-0.794,15.474c0.198-0.198,0.397-0.198,0.397-0.397
		c1.587-1.389,3.571-3.174,6.15-4.166c1.785-0.794,3.769-1.19,5.555-1.19c3.174,0,5.952,1.19,7.936,3.373
		c2.777,3.174,3.968,8.332,3.174,14.879c-1.984,16.07-11.308,17.26-14.086,17.26c-1.786,0-3.769-0.397-5.555-1.19
		c-2.579-1.19-4.365-2.976-5.555-4.365l-0.198-0.198c-1.389,2.579-2.976,8.531-3.571,17.26h21.823c2.976,0,5.555-0.397,7.936-1.389
		c2.381-0.992,4.365-2.182,5.952-3.769c1.587-1.587,2.777-3.571,3.769-5.753c0.992-2.381,1.389-4.96,1.389-7.936V57.018
		C99.514,54.241,99.117,51.463,98.125,49.083z M61.82,72.096c2.777,0,4.365,4.365,7.936,5.952c4.761,2.182,11.308,0.397,12.895-12.3
		s-4.761-14.482-9.919-12.3c-3.968,1.587-6.547,5.952-9.324,5.952c-3.571,0-5.158-8.134-2.976-21.426h-4.166
		c-2.976,0-5.555,0.397-7.936,1.389c-2.381,0.992-4.365,2.182-5.952,3.769c-1.587,1.587-2.976,3.571-3.769,5.952
		c-0.992,2.381-1.389,4.96-1.389,7.936v18.847c0,2.976,0.397,5.753,1.389,7.936c0.992,2.381,2.182,4.166,3.769,5.753
		c1.587,1.587,3.571,2.777,5.952,3.769c1.587,0.595,3.373,0.992,5.357,1.19C54.479,80.825,58.249,72.096,61.82,72.096z"/>
	<path fill="#4F79F7" d="M858.155,17.142l-16.665,93.045c-0.397,1.786-1.19,3.373-2.579,4.761c-1.389,1.389-2.777,2.182-4.761,2.579
		s-3.769,0.198-5.357-0.595c-1.587-0.794-2.976-1.984-3.968-3.373l-32.933-54.16l-32.933,54.16
		c-0.794,1.389-1.786,2.381-3.174,3.174c-1.389,0.794-2.777,1.19-4.365,1.19c-2.182,0-4.166-0.595-5.753-1.984
		s-2.579-3.174-2.976-5.357l-16.665-93.045h18.252l11.903,65.468l28.37-45.233c0.794-1.389,1.786-2.381,3.174-3.174
		s2.777-1.19,4.365-1.19c1.587,0,2.976,0.397,4.365,1.19c1.389,0.794,2.381,1.786,3.373,3.174l28.171,45.233l11.903-65.468h18.252
		V17.142z"/>
	<path fill="#4F79F7" d="M1024.802,91.141c0,1.786-0.198,3.571-0.595,5.357c-0.397,1.984-0.992,3.769-1.786,5.555
		c-0.794,1.786-1.984,3.571-3.174,5.357c-1.389,1.786-2.976,3.174-4.761,4.563c-1.786,1.389-3.968,2.381-6.547,3.174
		c-2.381,0.794-5.158,1.19-8.332,1.19H967.07c-1.786,0-3.571-0.198-5.357-0.595c-1.984-0.397-3.769-0.992-5.555-1.786
		c-1.785-0.794-3.571-1.984-5.357-3.174c-1.786-1.389-3.174-2.976-4.563-4.761c-1.389-1.786-2.381-3.968-3.174-6.547
		c-0.794-2.381-1.19-5.158-1.19-8.332V10h18.053v81.141c0,2.182,0.595,3.968,1.984,5.357s3.174,1.984,5.158,1.984h32.536
		c2.182,0,3.968-0.595,5.357-1.984c1.19-1.389,1.984-3.174,1.984-5.357V66.938c0-2.182-0.595-3.968-1.984-5.357
		c-1.389-1.19-2.976-1.984-5.158-1.984h-32.536V41.544h32.536c1.786,0,3.571,0.198,5.357,0.595c1.984,0.397,3.769,0.992,5.555,1.786
		c1.786,0.794,3.571,1.984,5.357,3.174c1.785,1.389,3.174,2.976,4.563,4.761s2.381,3.968,3.174,6.547
		c0.794,2.381,1.19,5.158,1.19,8.332v24.402H1024.802z"/>
	<path fill="#4F79F7" d="M937.709,66.144c0,2.579-0.397,5.158-1.389,7.936c-0.794,2.777-2.381,5.555-4.166,7.936
		c-1.984,2.381-4.563,4.563-7.737,6.15c-3.174,1.587-6.944,2.579-11.507,2.579h-32.337V73.683h32.337
		c2.381,0,4.365-0.794,5.555-2.182c1.389-1.587,1.984-3.373,1.984-5.555c0-2.381-0.794-4.166-2.182-5.555
		c-1.587-1.389-3.373-1.984-5.357-1.984h-32.337c-2.381,0-4.365,0.794-5.753,2.182c-1.389,1.587-1.984,3.373-1.984,5.555V91.34
		c0,2.381,0.794,4.166,2.182,5.555c1.587,1.389,3.373,1.984,5.555,1.984h47.018v17.061h-47.018c-2.579,0-5.158-0.397-7.936-1.389
		c-2.777-0.794-5.555-2.381-7.936-4.166c-2.381-1.984-4.563-4.563-6.15-7.737c-1.587-3.174-2.381-6.944-2.381-11.507V66.144
		c0-2.579,0.397-5.158,1.389-7.936c0.794-2.777,2.381-5.555,4.166-7.936c1.984-2.381,4.563-4.563,7.737-6.15
		c3.174-1.587,6.944-2.579,11.507-2.579h32.337c2.579,0,5.158,0.397,7.936,1.389c2.777,0.794,5.555,2.381,7.936,4.166
		c2.381,1.984,4.563,4.563,6.15,7.737C936.717,57.812,937.709,61.78,937.709,66.144z"/>
</g>
</svg>
