<svg xmlns="http://www.w3.org/2000/svg" viewBox="0 0 396.08 95.35"><defs><style>.a{fill:#aeaeae;}</style></defs><title>graphic-operator-dishes-rover</title><circle class="a" cx="110.1" cy="34.93" r="24"/><path class="a" d="M147,37.28a10.64,10.64,0,0,0-10.64-10.64V46.18a27,27,0,0,1-22.63,18.46,3.86,3.86,0,1,0-.11,3,30,30,0,0,0,25.43-20.11A10.63,10.63,0,0,0,147,37.28Z"/><path class="a" d="M65.16,95.23A21.7,21.7,0,0,1,86.79,73.6h46a21.7,21.7,0,0,1,21.63,21.63H65.16Z"/><path class="a" d="M225.08,77L209.79,61.73l3-31.78,2,2a8.28,8.28,0,0,0-11.71-11.71l2,2-31.78,3L158,9.93A67.08,67.08,0,0,0,225.08,77ZM208.27,26.74L205.36,57.3,177.72,29.66Z"/><polygon class="a" points="164.4 95.23 192.35 95.23 178.37 61.26 164.4 95.23"/><path class="a" d="M391.68,74.82A26.74,26.74,0,0,0,384,73.56h-1.08a26.75,26.75,0,0,0-7.65,1.26,4.35,4.35,0,0,0-2.22,1.68V71.94h17v-4h-3.15L375,59.44l8.09-12.27V39.94h-13v-7h2v-3h-2v-4h8V16.66l-3.87-3.73h-21.3l-3.83,3.73v9.27h8v4h-2v3h2v7H345.8l-9-16H311.66l-8.19,16h-5.39v7l3.09,18h12.52l-3.22,4H300.08v4h17v2.71a3.69,3.69,0,0,0-1.44-.83A26.74,26.74,0,0,0,308,73.56h-1.08a26.76,26.76,0,0,0-7.65,1.26c-2.5.7-4.4,4.73-4.4,9.63s1.9,8.94,4.4,9.64a26.88,26.88,0,0,0,7.65,1.26H308a26.86,26.86,0,0,0,7.65-1.26c2.5-.7,4.4-4.73,4.4-9.64a18.14,18.14,0,0,0-.14-2.26l1.18-1.2V68.94h-7.43l4.31-4h9.18l3.66,3h-1.71v4h17v6A5.41,5.41,0,0,0,343,74.82a26.78,26.78,0,0,0-7.65-1.26h-1.08a26.77,26.77,0,0,0-7.65,1.26c-2.5.7-4.4,4.73-4.4,9.63s1.9,8.94,4.4,9.64a26.89,26.89,0,0,0,7.65,1.26h1.08A26.9,26.9,0,0,0,343,94.09c2.5-.7,4.4-4.73,4.4-9.64a18.15,18.15,0,0,0-.15-2.28l1.83-1.85V76.24c1.52,1,2.9,4.11,2.9,8.22,0,5.05-2.09,8.58-4,8.58a1.93,1.93,0,0,1-1.07-.36,9,9,0,0,1-.67.94,3.41,3.41,0,0,0,1,.47,26.87,26.87,0,0,0,7.65,1.26H356a26.88,26.88,0,0,0,7.65-1.26c2.5-.7,4.4-4.73,4.4-9.64s-1.9-8.94-4.4-9.63A26.76,26.76,0,0,0,356,73.56h-1.08a24.41,24.41,0,0,0-5.84.76V71.83l11.66-6.89h11l0.81-1.48L381,67.94H369.08V80.32l1.95,2a18.19,18.19,0,0,0-.13,2.16c0,4.91,1.9,8.94,4.4,9.64a26.87,26.87,0,0,0,7.65,1.26H384a26.85,26.85,0,0,0,7.65-1.26c2.5-.7,4.4-4.73,4.4-9.64S394.17,75.52,391.68,74.82ZM300,93c-1.88,0-4-3.52-4-8.58s2.09-8.58,4-8.58,4,3.52,4,8.58S301.88,93,300,93Zm27.36,0c-1.87,0-4-3.52-4-8.58s2.09-8.58,4-8.58,4,3.52,4,8.58S329.24,93,327.37,93Zm21.71-24.2v-0.9H334.89l-2.85-3h22.23Zm14.6-46.09A3.77,3.77,0,1,1,367.45,19,3.77,3.77,0,0,1,363.68,22.75ZM376,93c-1.88,0-4-3.52-4-8.58,0-.36,0-0.72,0-1.07l4,4v-4l-3-3.55v-1c0.78-1.88,1.91-3,3-3,1.88,0,4,3.52,4,8.58S377.92,93,376,93Z"/><path class="a" d="M296.28,74.91L296,74.82a26.75,26.75,0,0,0-7.65-1.26H287.3a26.75,26.75,0,0,0-7.65,1.26c-2.5.7-4.4,4.73-4.4,9.63s1.91,8.94,4.4,9.64a26.87,26.87,0,0,0,7.65,1.26h1.08A26.87,26.87,0,0,0,296,94.09l0.25-.09c-1.86-2-3-5.5-3-9.54S294.42,76.92,296.28,74.91ZM280.4,93c-1.87,0-4-3.52-4-8.58s2.09-8.58,4-8.58,4,3.52,4,8.58S282.28,93,280.4,93Z"/><path class="a" d="M268.47,82.85L258.08,72.46l2.06-21.61,1.34,1.34a5.63,5.63,0,0,0-8-8l1.34,1.34-21.61,2.06L222.87,37.24A45.61,45.61,0,0,0,268.47,82.85ZM257,48.67l-2,20.77L236.28,50.65Z"/><polygon class="a" points="227.22 95.23 246.22 95.23 236.72 72.13 227.22 95.23"/><path class="a" d="M241.26,23L236,17.77l1-10.91,0.68,0.68a2.84,2.84,0,1,0-4-4l0.68,0.68-10.91,1L218.24,0A23,23,0,0,0,241.26,23ZM235.49,5.77l-1,10.48L225,6.77Z"/><polygon class="a" points="220.44 29.27 230.03 29.27 225.23 17.61 220.44 29.27"/><path class="a" d="M79.29,43.48H14.4a2.84,2.84,0,0,0-2.83,2.83V90h51a24,24,0,0,1,1.58-4.79H17.77V49H75.7V73.34a24,24,0,0,1,6.41-2.05v-25A2.84,2.84,0,0,0,79.29,43.48ZM0,91.09v2.57a8.33,8.33,0,0,0,4.34,1.57H62.06s0-.08,0-0.12a24.32,24.32,0,0,1,.34-4H0Z"/></svg>