<svg xmlns="http://www.w3.org/2000/svg" viewBox="0 0 130 26.92"><defs><style>.a{fill:#fff;}.b{fill:#009eff;}</style></defs><title>logo-openmct</title><path class="a" d="M11.14,1c3.25,0,5,1.76,5,5V16.18c0,3.25-1.76,5-5,5H5c-3.25,0-5-1.76-5-5V6C0,2.77,1.76,1,5,1h6.13Zm1.57,5a1.81,1.81,0,0,0-2-2H5.42a1.83,1.83,0,0,0-2,2V16.15a1.83,1.83,0,0,0,2,2h5.27a1.81,1.81,0,0,0,2-2V6.06Z" transform="translate(0 -1)"/><path class="a" d="M29.26,1c3.25,0,5,1.76,5,5V16.18c0,3.25-1.76,5-5,5h-2c-2.47,0-4.22-1.46-5.83-3v9.72H18V1h3.4V4c1.61-1.53,3.36-3,5.83-3h2Zm1.57,5a1.81,1.81,0,0,0-2-2H27a9.49,9.49,0,0,0-5.53,2V16.15a9.49,9.49,0,0,0,5.53,2h1.83a1.81,1.81,0,0,0,2-2V6.06Z" transform="translate(0 -1)"/><path class="a" d="M39.61,16.3a1.81,1.81,0,0,0,2,2h5a1.83,1.83,0,0,0,2-2V14.8h3.44v1.38c0,3.25-1.76,5-5,5H41.18c-3.25,0-5-1.76-5-5V6c0-3.25,1.76-5,5-5h5.94c3.25,0,5,1.76,5,5v5.9H39.61V16.3Zm2-12.41a1.81,1.81,0,0,0-2,2V9.38h9.08V5.91a1.8,1.8,0,0,0-2-2h-5Z" transform="translate(0 -1)"/><path class="a" d="M54,1h3.4V4C59,2.47,60.76,1,63.23,1H64.8c3.25,0,5,1.76,5,5V21.19h-3.4V6.13a1.81,1.81,0,0,0-2-2H62.93a9.24,9.24,0,0,0-5.53,2V21.19H54V1Z" transform="translate(0 -1)"/><path class="b" d="M99.2,21.19c-2.65,0-3.92-1.27-3.92-3.92V4.93c0-2.65,1.33-3.92,4-3.92h9c2.65,0,3.86,1.27,3.86,3.92V8.71h-5.42V6a0.42,0.42,0,0,0-.52-0.52h-5a0.42,0.42,0,0,0-.52.52V16.18a0.42,0.42,0,0,0,.52.52h5a0.42,0.42,0,0,0,.52-0.52V13.49h5.42v3.78c0,2.65-1.27,3.92-3.92,3.92h-9Z" transform="translate(0 -1)"/><path class="b" d="M124.4,5.62V21.19H119V5.62h-5.6V1H130V5.62h-5.6Z" transform="translate(0 -1)"/><path class="b" d="M84.28,18.74l3.7-9V20.05a1.15,1.15,0,0,0,1.15,1.15h4.05V2.15A1.15,1.15,0,0,0,92,1h-5L82.57,11.52,78.06,1h-5A1.15,1.15,0,0,0,72,2.15V21.2H76a1.15,1.15,0,0,0,1.15-1.15V9.7l3.7,9h3.41Z" transform="translate(0 -1)"/></svg>