<svg xmlns="http://www.w3.org/2000/svg" xmlns:xlink="http://www.w3.org/1999/xlink" viewBox="0 0 800 622.47"><defs><style>.a,.d{fill:#fff;}.b,.c,.k,.m,.n,.o{fill:none;}.b{stroke:#000;stroke-linecap:square;}.b,.c,.d,.f,.k,.m,.n,.o{stroke-miterlimit:10;}.b,.k{stroke-width:2px;}.c{stroke:#ababab;stroke-dasharray:5;}.d,.k,.o{stroke:#737373;}.e{opacity:0.5;fill:url(#a);}.f{fill:#d6d6d6;fill-opacity:0.8;stroke:#fff;}.g{mask:url(#b);}.h{fill:#a8a8a8;}.i{fill:#00b1e2;}.j{fill:#f16e86;}.k{stroke-linecap:round;}.l{mask:url(#c);}.m{stroke:#00b1e2;}.m,.n{stroke-width:10px;}.n{stroke:#f16e86;}</style><linearGradient id="a" x1="523.15" y1="-401.02" x2="513.75" y2="-437.16" gradientTransform="translate(90.62 338.26) rotate(45)" gradientUnits="userSpaceOnUse"><stop offset="0"/><stop offset="1" stop-opacity="0"/></linearGradient><mask id="b" x="-1187.45" y="-269.68" width="1813.84" height="554.26" maskUnits="userSpaceOnUse"><polygon class="a" points="625.33 284.58 452.55 238.2 452.55 170.5 625.33 216.88 625.33 284.58"/><line class="b" x1="486.25" y1="179.55" x2="486.25" y2="247.32"/><line class="b" x1="573.58" y1="202.99" x2="573.58" y2="270.76"/><line class="b" x1="452.46" y1="192.89" x2="625.16" y2="239.25"/><line class="b" x1="452.46" y1="215.48" x2="625.16" y2="261.83"/></mask><mask id="c" x="-1468.9" y="-163.59" width="1866.4" height="673.87" maskUnits="userSpaceOnUse"><polygon class="a" points="344.11 510.28 171.1 462.49 171.1 289.49 344.11 337.28 344.11 510.28"/></mask></defs><title>objects-diagram</title><polyline class="c" points="460.63 153.71 480.14 142.45 513.15 123.39"/><polyline class="c" points="312.69 239.13 336.82 225.2 365.42 208.68"/><polygon class="d" points="742.15 65.53 519.88 5.97 519.88 368.97 742.15 428.53 742.15 65.53"/><polygon class="e" points="742.15 428.53 742.15 377.47 786.44 403 742.15 428.53"/><polyline class="c" points="619.05 308.21 626.95 303.65 636.44 298.17"/><polygon class="f" points="637.26 156.11 443.71 104.25 443.71 402.92 637.26 454.78 637.26 156.11"/><g class="g"><polygon class="h" points="625.33 239.44 452.55 193.07 452.55 170.5 625.33 216.88 625.33 239.44"/><polygon class="i" points="625.33 262.01 452.55 215.64 452.55 193.07 625.33 239.44 625.33 262.01"/><polygon class="j" points="625.33 284.58 452.55 238.2 452.55 215.64 625.33 262.01 625.33 284.58"/></g><polyline class="c" points="467.58 395.66 481.45 387.65 490.54 382.4"/><polygon class="f" points="490.33 240.94 296.78 189.08 296.78 487.75 490.33 539.62 490.33 240.94"/><polygon class="h" points="386.94 387.36 314 367.78 314 238.33 386.94 257.91 386.94 387.36"/><line class="k" x1="402.02" y1="280.97" x2="355.33" y2="284.32"/><line class="k" x1="401.71" y1="316.74" x2="355.33" y2="291.74"/><polygon class="i" points="473.63 301.9 400.69 282.32 400.69 261.6 473.63 281.18 473.63 301.9"/><polygon class="j" points="473.63 337.63 400.69 318.05 400.69 297.32 473.63 316.9 473.63 337.63"/><polyline class="c" points="331.67 474.13 343.85 467.1 356.86 459.58"/><polyline class="c" points="183.35 313.8 207.44 299.89 231.58 285.96"/><polygon class="c" points="710.61 148.05 546.55 104.09 546.55 144.26 710.61 188.22 710.61 148.05"/><polygon class="c" points="710.61 215.05 546.55 171.09 546.55 211.26 710.61 255.22 710.61 215.05"/><line class="c" x1="162.68" y1="266.5" x2="533" y2="52.7"/><line class="c" x1="356.23" y1="617.04" x2="726.54" y2="403.24"/><polygon class="f" points="356.23 318.36 162.68 266.5 162.68 565.18 356.23 617.04 356.23 318.36"/><g class="l"><path class="m" d="M165.1,350.83c12-19.68,24-57.37,47,7s29,42,46,35.71,27,34.46,50,51.81,75,16.72,89,15.59"/><path class="n" d="M349.1,427.78c-9.13-13.05-13.7-31.26-31.2-9.54s-22.07,9.47-35,.86-20.55,6.69-38.05,6.89-67.08-25.38-77.73-30.61"/></g><polygon class="i" points="211.4 436.27 47.34 392.31 47.34 432.48 211.4 476.44 211.4 436.27"/><polygon class="o" points="211.4 436.27 47.34 392.31 47.34 432.48 211.4 476.44 211.4 436.27"/><polygon class="j" points="211.4 503.27 47.34 459.31 47.34 499.48 211.4 543.44 211.4 503.27"/><polygon class="o" points="211.4 503.27 47.34 459.31 47.34 499.48 211.4 543.44 211.4 503.27"/><line class="c" x1="513.15" y1="123.39" x2="544.97" y2="105.02"/><line class="c" x1="365.42" y1="208.68" x2="460.63" y2="153.71"/><line class="c" x1="231.58" y1="285.96" x2="312.69" y2="239.13"/><line class="c" x1="48.79" y1="391.49" x2="183.35" y2="313.8"/><line class="c" x1="636.44" y1="298.17" x2="709.92" y2="255.75"/><line class="c" x1="490.54" y1="382.4" x2="619.05" y2="308.21"/><line class="c" x1="356.86" y1="459.58" x2="467.58" y2="395.66"/><line class="c" x1="212.34" y1="543.03" x2="331.67" y2="474.13"/></svg>