<?xml version="1.0" standalone="no"?>
<!DOCTYPE svg PUBLIC "-//W3C//DTD SVG 1.1//EN" "http://www.w3.org/Graphics/SVG/1.1/DTD/svg11.dtd" >
<svg xmlns="http://www.w3.org/2000/svg">
<metadata>Generated by IcoMoon</metadata>
<defs>
<font id="Open-MCT-Symbols-16px" horiz-adv-x="1024">
<font-face units-per-em="1024" ascent="921.6" descent="-102.4" />
<missing-glyph horiz-adv-x="1024" />
<glyph unicode="&#x20;" horiz-adv-x="0" d="" />
<glyph unicode="&#xe900;" glyph-name="icon-alert-rect-v2" d="M896 896h-768c-70.6-0.2-127.8-57.4-128-128v-768c0.2-70.6 57.4-127.8 128-128h768c70.6 0.2 127.8 57.4 128 128v768c-0.2 70.6-57.4 127.8-128 128zM576 0h-128v128h128v-128zM597.8 384l-37.8-192h-96l-37.8 192v384h171.8v-384z" />
<glyph unicode="&#xe901;" glyph-name="icon-alert-triangle-v2" d="M998.2 47.2l-422.6 739.6c-35 61.2-92 61.2-127 0l-422.8-739.6c-35-61.2-6-111.2 64.4-111.2h843.4c70.6 0 99.6 50 64.6 111.2zM576 0h-128v128h128v-128zM597.8 384l-37.8-192h-96l-37.8 192v256h171.8v-256z" />
<glyph unicode="&#xe902;" glyph-name="icon-arrow-up" d="M512 640l-512-512h1024z" />
<glyph unicode="&#xe903;" glyph-name="icon-arrow-double-up" d="M510 386l512-512h-1024zM510 898l512-512h-1024z" />
<glyph unicode="&#xe904;" glyph-name="icon-arrow-tall-up" d="M512 896l512-1024h-1024z" />
<glyph unicode="&#xe905;" glyph-name="icon-arrow-right" d="M768 384l-512 512v-1024z" />
<glyph unicode="&#xe906;" glyph-name="icon-arrow-right-equilateral" d="M962 384l-896-512v1024z" />
<glyph unicode="&#xe907;" glyph-name="icon-arrow-down" d="M512 128l512 512h-1024z" />
<glyph unicode="&#xe908;" glyph-name="icon-arrow-double-down" d="M510 386l-512 512h1024zM510-126l-512 512h1024z" />
<glyph unicode="&#xe909;" glyph-name="icon-arrow-tall-down" d="M512-128l-512 1024h1024z" />
<glyph unicode="&#xe90a;" glyph-name="icon-arrow-left" d="M256 384l512-512v1024z" />
<glyph unicode="&#xe90b;" glyph-name="icon-asterisk" d="M1004.166 555.542l-97.522 168.916-330.534-229.414 33.414 400.956h-195.048l33.414-400.956-330.534 229.414-97.522-168.916 363.944-171.542-363.944-171.542 97.522-168.916 330.534 229.414-33.414-400.956h195.048l-33.414 400.956 330.534-229.414 97.522 168.916-363.944 171.542z" />
<glyph unicode="&#xe90c;" glyph-name="icon-bell" d="M512-128c106 0 192 86 192 192h-384c0-106 86-192 192-192zM896 448v64c0 212-172 384-384 384s-384-172-384-384v-64c0-70.6-57.4-128-128-128v-128h1024v128c-70.6 0-128 57.4-128 128z" />
<glyph unicode="&#xe90d;" glyph-name="icon-box-round-corners" d="M1024 64c0-105.6-86.4-192-192-192h-640c-105.6 0-192 86.4-192 192v640c0 105.6 86.4 192 192 192h640c105.6 0 192-86.4 192-192v-640z" />
<glyph unicode="&#xe90e;" glyph-name="icon-box-with-arrow-cursor" d="M894 898h-768c-70.4 0-128-57.6-128-128v-768c0-70.4 57.6-128 128-128h400c-2.2 3.8-4 7.6-5.8 11.4l-255.2 576.8c-21.4 48.4-10.8 105 26.6 142.4 24.4 24.4 57.2 37.4 90.4 37.4 17.4 0 35.2-3.6 51.8-11l576.6-255.4c4-1.8 7.8-3.8 11.4-5.8v400.2c0.2 70.4-57.4 128-127.8 128zM958.6 258.6l-576.6 255.4 255.4-576.6 64.6 128.6 192-192 128 128-192 192z" />
<glyph unicode="&#xe90f;" glyph-name="icon-check" d="M1024 896l-640-640-384 384v-384l384-384 640 640z" />
<glyph unicode="&#xe910;" glyph-name="icon-connectivity" d="M704 320c0-70.4-57.6-128-128-128h-128c-70.4 0-128 57.6-128 128v128c0 70.4 57.6 128 128 128h128c70.4 0 128-57.6 128-128v-128zM1024 384l-192 320v-640zM0 384l192 320v-640z" />
<glyph unicode="&#xe911;" glyph-name="icon-database-in-brackets" d="M768 544c0-53.019-114.615-96-256-96s-256 42.981-256 96c0 53.019 114.615 96 256 96s256-42.981 256-96zM768 224v256c0-53-114.6-96-256-96s-256 43-256 96v-256c0-53 114.6-96 256-96s256 43 256 96zM832 896h-128v-192h127.6c0.2 0 0.2-0.2 0.4-0.4v-639.4c0-0.2-0.2-0.2-0.4-0.4h-127.6v-192h128c105.6 0 192 86.4 192 192v640.2c0 105.6-86.4 192-192 192zM192 64.4v639.4c0 0.2 0.2 0.2 0.4 0.4h127.6v191.8h-128c-105.6 0-192-86.4-192-192v-640c0-105.6 86.4-192 192-192h128v192h-127.6c-0.2 0-0.4 0.2-0.4 0.4z" />
<glyph unicode="&#xe912;" glyph-name="icon-eye-open" d="M512 779.6c-245.8 0-452.2-168-510.8-395.6 58.6-227.4 265-395.6 510.8-395.6s452.2 168 510.8 395.6c-58.6 227.4-265 395.6-510.8 395.6zM829.2 307.6c-22.6-34.4-50.6-64.8-83-90.4-32.8-25.8-69-45.6-108-59.4-40.4-14.2-82.8-21.4-126-21.4s-85.8 7.2-126 21.4c-39 13.8-75.4 33.8-108 59.4-32.4 25.6-60.4 55.8-83 90.4-15.8 24-28.8 49.6-38.6 76.4 10 26.8 23 52.4 38.6 76.4 22.6 34.4 50.6 64.8 83 90.4 32.8 25.8 69 45.6 108 59.4 40.4 14.2 82.8 21.4 126 21.4s85.8-7.2 126-21.4c39-13.8 75.4-33.8 108-59.4 32.4-25.6 60.4-55.8 83-90.4 15.8-24 28.8-49.6 38.6-76.4-9.8-26.8-22.8-52.4-38.6-76.4zM704 384c0-106.039-85.961-192-192-192s-192 85.961-192 192c0 106.039 85.961 192 192 192s192-85.961 192-192z" />
<glyph unicode="&#xe913;" glyph-name="icon-gear" d="M1024 320v128l-140.976 35.244c-8.784 32.922-21.818 64.106-38.504 92.918l74.774 124.622-90.51 90.51-124.622-74.774c-28.812 16.686-59.996 29.72-92.918 38.504l-35.244 140.976h-128l-35.244-140.976c-32.922-8.784-64.106-21.818-92.918-38.504l-124.622 74.774-90.51-90.51 74.774-124.622c-16.686-28.812-29.72-59.996-38.504-92.918l-140.976-35.244v-128l140.976-35.244c8.784-32.922 21.818-64.106 38.504-92.918l-74.774-124.622 90.51-90.51 124.622 74.774c28.812-16.686 59.996-29.72 92.918-38.504l35.244-140.976h128l35.244 140.976c32.922 8.784 64.106 21.818 92.918 38.504l124.622-74.774 90.51 90.51-74.774 124.622c16.686 28.812 29.72 59.996 38.504 92.918l140.976 35.244zM704 384c0-106.038-85.962-192-192-192s-192 85.962-192 192 85.962 192 192 192 192-85.962 192-192z" />
<glyph unicode="&#xe914;" glyph-name="icon-hourglass" d="M1024 896h-1024c0-282.8 229.2-512 512-512s512 229.2 512 512zM512 512c-102.6 0-199 40-271.6 112.4-41.2 41.2-72 90.2-90.8 143.6h724.6c-18.8-53.4-49.6-102.4-90.8-143.6-72.4-72.4-168.8-112.4-271.4-112.4zM512 384c-282.8 0-512-229.2-512-512h1024c0 282.8-229.2 512-512 512z" />
<glyph unicode="&#xe915;" glyph-name="icon-info" d="M512 896c-282.8 0-512-229.2-512-512s229.2-512 512-512 512 229.2 512 512-229.2 512-512 512zM512 768c70.6 0 128-57.4 128-128s-57.4-128-128-128c-70.6 0-128 57.4-128 128s57.4 128 128 128zM704 64h-384v128h64v256h256v-256h64v-128z" />
<glyph unicode="&#xe916;" glyph-name="icon-link" d="M1024 384l-512 512v-307.2l-512-204.8v-256h512v-256z" />
<glyph unicode="&#xe917;" glyph-name="icon-lock" horiz-adv-x="768" d="M702 512h-62v128c0 141.385-114.615 256-256 256s-256-114.615-256-256v0-128h-64c-35.301-0.113-63.887-28.699-64-63.989v-512.011c0.113-35.301 28.699-63.887 63.989-64h638.011c35.301 0.113 63.887 28.699 64 63.989v512.011c-0.113 35.301-28.699 63.887-63.989 64h-0.011zM256 512v128c0 70.692 57.308 128 128 128s128-57.308 128-128v0-128z" />
<glyph unicode="&#xe918;" glyph-name="icon-minus" d="M960 256c35.2 0 64 28.8 64 64v128c0 35.2-28.8 64-64 64h-896c-35.2 0-64-28.8-64-64v-128c0-35.2 28.8-64 64-64h896z" />
<glyph unicode="&#xe919;" glyph-name="icon-people" d="M704 576h64c70.4 0 128 57.6 128 128v64c0 70.4-57.6 128-128 128h-64c-70.4 0-128-57.6-128-128v-64c0-70.4 57.6-128 128-128zM256 576h64c70.4 0 128 57.6 128 128v64c0 70.4-57.6 128-128 128h-64c-70.4 0-128-57.6-128-128v-64c0-70.4 57.6-128 128-128zM832 512h-192c-34.908 0-67.716-9.448-96-25.904 57.278-33.324 96-95.404 96-166.096v-448h384v448c0 105.6-86.4 192-192 192zM384 512h-192c-105.6 0-192-86.4-192-192v-448h576v448c0 105.6-86.4 192-192 192z" />
<glyph unicode="&#xe91a;" glyph-name="icon-person" d="M768 640c0-105.6-86.4-192-192-192h-128c-105.6 0-192 86.4-192 192v64c0 105.6 86.4 192 192 192h128c105.6 0 192-86.4 192-192v-64zM64-128v192c0 140.8 115.2 256 256 256h384c140.8 0 256-115.2 256-256v-192z" />
<glyph unicode="&#xe91b;" glyph-name="icon-plus" d="M960 512h-330v320c0 35.2-28.8 64-64 64h-108c-35.2 0-64-28.8-64-64v-320h-330c-35.2 0-64-28.8-64-64v-128c0-35.2 28.8-64 64-64h330v-320c0-35.2 28.8-64 64-64h108c35.2 0 64 28.8 64 64v320h330c35.2 0 64 28.8 64 64v128c0 35.2-28.8 64-64 64z" />
<glyph unicode="&#xe91c;" glyph-name="icon-plus-in-rect" d="M830 896h-636c-106.6 0-194-87.2-194-194v-636c0-106.8 87.4-194 194-194h636c106.6 0 194 87.2 194 194v636c0 106.8-87.4 194-194 194zM896 288c0-17.673-14.327-32-32-32v0h-224v-224c0-17.673-14.327-32-32-32v0h-192c-17.673 0-32 14.327-32 32v0 224h-224c-17.673 0-32 14.327-32 32v0 192c0 17.673 14.327 32 32 32v0h224v224c0 17.673 14.327 32 32 32v0h192c17.673 0 32-14.327 32-32v0-224h224c17.673 0 32-14.327 32-32v0z" />
<glyph unicode="&#xe91d;" glyph-name="icon-trash" d="M832 768h-192.36v64c0 35.2-28.8 64-64 64h-128c-35.2 0-64-28.8-64-64v-64h-191.64c-105.6 0-192-72-192-160s0-160 0-160h64v-384c0-105.6 86.4-192 192-192h512c105.6 0 192 86.4 192 192v384h64c0 0 0 72 0 160s-86.4 160-192 160zM320 64h-128v384h128v-384zM576 64h-128v384h128v-384zM832 64h-128v384h128v-384z" />
<glyph unicode="&#xe91e;" glyph-name="icon-x-heavy" d="M704 384l301.332-301.332c24.89-24.89 24.89-65.62 0-90.51l-101.49-101.49c-24.89-24.89-65.62-24.89-90.51 0l-301.332 301.332c0 0-301.332-301.332-301.332-301.332-24.89-24.89-65.62-24.89-90.51 0l-101.49 101.49c-24.89 24.89-24.89 65.62 0 90.51l301.332 301.332c0 0-301.332 301.332-301.332 301.332-24.89 24.89-24.89 65.62 0 90.51l101.49 101.49c24.89 24.89 65.62 24.89 90.51 0l301.332-301.332c0 0 301.332 301.332 301.332 301.332 24.89 24.89 65.62 24.89 90.51 0l101.49-101.49c24.89-24.89 24.89-65.62 0-90.51 0 0-301.332-301.332-301.332-301.332z" />
<glyph unicode="&#xe91f;" glyph-name="icon-brackets" d="M832 896h-192v-192h191.66l0.34-0.34v-639.32l-0.34-0.34h-191.66v-192h192c105.6 0 192 86.4 192 192v640c0 105.6-86.4 192-192 192zM384 64h-191.66l-0.34 0.34v639.32l0.34 0.34h191.66v192h-192c-105.6 0-192-86.4-192-192v-640c0-105.6 86.4-192 192-192h192v192z" />
<glyph unicode="&#xe920;" glyph-name="icon-crosshair" d="M574 898h-128v-320h128v320zM1022 450h-320v-128h320v128zM574 194h-128v-320h128v320zM318 450h-320v-128h320v128z" />
<glyph unicode="&#xe921;" glyph-name="icon-grippy" d="M365.4 713.2c0-40.427-32.773-73.2-73.2-73.2s-73.2 32.773-73.2 73.2c0 40.427 32.773 73.2 73.2 73.2s73.2-32.773 73.2-73.2zM365.4 493.8c0-40.427-32.773-73.2-73.2-73.2s-73.2 32.773-73.2 73.2c0 40.427 32.773 73.2 73.2 73.2s73.2-32.773 73.2-73.2zM365.4 274.2c0-40.427-32.773-73.2-73.2-73.2s-73.2 32.773-73.2 73.2c0 40.427 32.773 73.2 73.2 73.2s73.2-32.773 73.2-73.2zM365.4 54.8c0-40.427-32.773-73.2-73.2-73.2s-73.2 32.773-73.2 73.2c0 40.427 32.773 73.2 73.2 73.2s73.2-32.773 73.2-73.2zM584.8 822.8c0-40.427-32.773-73.2-73.2-73.2s-73.2 32.773-73.2 73.2c0 40.427 32.773 73.2 73.2 73.2s73.2-32.773 73.2-73.2zM584.8 603.4c0-40.427-32.773-73.2-73.2-73.2s-73.2 32.773-73.2 73.2c0 40.427 32.773 73.2 73.2 73.2s73.2-32.773 73.2-73.2zM584.8 384c0-40.427-32.773-73.2-73.2-73.2s-73.2 32.773-73.2 73.2c0 40.427 32.773 73.2 73.2 73.2s73.2-32.773 73.2-73.2zM584.8 164.6c0-40.427-32.773-73.2-73.2-73.2s-73.2 32.773-73.2 73.2c0 40.427 32.773 73.2 73.2 73.2s73.2-32.773 73.2-73.2zM584.8-54.8c0-40.427-32.773-73.2-73.2-73.2s-73.2 32.773-73.2 73.2c0 40.427 32.773 73.2 73.2 73.2s73.2-32.773 73.2-73.2zM804.2 713.2c0-40.427-32.773-73.2-73.2-73.2s-73.2 32.773-73.2 73.2c0 40.427 32.773 73.2 73.2 73.2s73.2-32.773 73.2-73.2zM804.2 493.8c0-40.427-32.773-73.2-73.2-73.2s-73.2 32.773-73.2 73.2c0 40.427 32.773 73.2 73.2 73.2s73.2-32.773 73.2-73.2zM804.2 274.2c0-40.427-32.773-73.2-73.2-73.2s-73.2 32.773-73.2 73.2c0 40.427 32.773 73.2 73.2 73.2s73.2-32.773 73.2-73.2zM804.2 54.8c0-40.427-32.773-73.2-73.2-73.2s-73.2 32.773-73.2 73.2c0 40.427 32.773 73.2 73.2 73.2s73.2-32.773 73.2-73.2z" />
<glyph unicode="&#xe922;" glyph-name="icon-grid" d="M0 320v-256c0-105.6 86.4-192 192-192h256v448h-448zM448 896h-256c-105.6 0-192-86.4-192-192v-256h448v448zM832 896h-256v-448h448v256c0 105.6-86.4 192-192 192zM576-128h256c105.6 0 192 86.4 192 192v256h-448v-448z" />
<glyph unicode="&#xe923;" glyph-name="icon-grippy-ew" d="M704 896h128v-1024h-128v1024zM448 896h128v-1024h-128v1024zM192 896h128v-1024h-128v1024z" />
<glyph unicode="&#xe924;" glyph-name="icon-columns" d="M0 896h256v-1024h-256v1024zM384 896h256v-1024h-256v1024zM768 896h256v-1024h-256v1024z" />
<glyph unicode="&#xe925;" glyph-name="icon-rows" d="M0 896h1024v-256h-1024v256zM0 512h1024v-256h-1024v256zM0 128h1024v-256h-1024v256z" />
<glyph unicode="&#xe926;" glyph-name="icon-filter" d="M896 896h-768c-70.601-0.227-127.773-57.399-128-127.978v-768.022c0.227-70.601 57.399-127.773 127.978-128h256.022v512l-192 192h640l-192-192v-512h256c70.601 0.227 127.773 57.399 128 127.978v768.022c-0.227 70.601-57.399 127.773-127.978 128h-0.022z" />
<glyph unicode="&#xe927;" glyph-name="icon-filter-outline" d="M896 896h-768c-70.601-0.227-127.773-57.399-128-127.978v-768.022c0.227-70.601 57.399-127.773 127.978-128h768.022c70.601 0.227 127.773 57.399 128 127.978v768.022c-0.227 70.601-57.399 127.773-127.978 128h-0.022zM896 0.2h-256v383.8l192 192h-640l192-192v-384h-256v767.8h768z" />
<glyph unicode="&#xe928;" glyph-name="icon-suitcase" d="M768 768c-0.080 70.66-57.34 127.92-127.993 128h-256.007c-70.66-0.080-127.92-57.34-128-127.993v-128.007h-64v-768h640v768h-64zM384 767.88l0.12 0.12 255.88-0.12v-127.88h-256zM0 576v-640c0.102-35.305 28.695-63.898 63.99-64h64.010v768h-64c-35.305-0.102-63.898-28.695-64-63.99v-0.010zM960 640h-64v-768h64c35.305 0.102 63.898 28.695 64 63.99v640.010c-0.102 35.305-28.695 63.898-63.99 64h-0.010z" />
<glyph unicode="&#xe929;" glyph-name="icon-cursor-locked" horiz-adv-x="768" d="M704 576h-64v64c0 141.385-114.615 256-256 256s-256-114.615-256-256v0-64h-64c-35.301-0.113-63.887-28.699-64-63.989v-576.011c0.113-35.301 28.699-63.887 63.989-64h640.011c35.301 0.113 63.887 28.699 64 63.989v576.011c-0.113 35.301-28.699 63.887-63.989 64h-0.011zM256 640c0 70.692 57.308 128 128 128s128-57.308 128-128v0-64h-256zM533.4 0l-128 128-43-85-170.4 383.6 383.6-170.2-85-43 128-128z" />
<glyph unicode="&#xe92a;" glyph-name="icon-flag" d="M192 256h832l-192 320 192 320h-896c-70.606-0.215-127.785-57.394-128-127.979v-896.021h192z" />
<glyph unicode="&#xe92b;" glyph-name="icon-eye-disabled" d="M209.46 287.32q-7.46 9.86-14.26 20.28c-14.737 21.984-27.741 47.184-37.759 73.847l-0.841 2.553c11.078 29.259 24.068 54.443 39.51 77.869l-0.91-1.469c23.221 34.963 50.705 64.8 82.207 89.793l0.793 0.607c57.663 45.719 130.179 75.053 209.311 79.947l1.069 0.053 114.48 140.88c-27.366 5.017-58.869 7.898-91.041 7.92h-0.019c-245.8 0-452.2-168-510.8-395.6 21.856-82.93 60.906-154.847 113.325-214.773l-0.525 0.613zM814.76 480.92q7.52-10 14.44-20.52c14.737-21.984 27.741-47.184 37.759-73.847l0.841-2.553c-10.859-29.216-23.863-54.416-39.447-77.748l0.847 1.348c-23.221-34.963-50.705-64.8-82.207-89.793l-0.793-0.607c-57.762-45.834-130.437-75.216-209.743-80.049l-1.057-0.051-114.46-140.86c27.346-4.988 58.817-7.84 90.955-7.84 0.037 0 0.074 0 0.111 0h-0.005c245.8 0 452.2 168 510.8 395.6-21.856 82.93-60.906 154.847-113.325 214.773l0.525-0.613zM832 896l-832-1024h192l832 1024h-192z" />
<glyph unicode="&#xe92c;" glyph-name="icon-notebook-page" d="M830 834h-830l-4-702c0-106.6 87.4-194 194-194h640c106.6 0 194 87.4 194 194v508c0 106.8-87.4 194-194 194zM832 450l-384-384-192 192v256l192-192 384 384v-256z" />
<glyph unicode="&#xe92d;" glyph-name="icon-unlocked" d="M768 896c-141.339-0.114-255.886-114.661-256-255.989v-128.011h-448c-35.301-0.113-63.887-28.699-64-63.989v-512.011c0.113-35.301 28.699-63.887 63.989-64h638.011c35.301 0.113 63.887 28.699 64 63.989v512.011c-0.113 35.301-28.699 63.887-63.989 64h-62.011v128c0 70.692 57.308 128 128 128s128-57.308 128-128v0-128h128v128c-0.114 141.339-114.661 255.886-255.989 256h-0.011z" />
<glyph unicode="&#xe92e;" glyph-name="icon-circle" d="M1024 384c0-282.77-229.23-512-512-512s-512 229.23-512 512c0 282.77 229.23 512 512 512s512-229.23 512-512z" />
<glyph unicode="&#xe92f;" glyph-name="icon-draft" d="M876.34 260.42l-49.9-49.88-19.26-19.5-26-8.7-423.040-144.2 144.2 423.28 8.84 25.78 150 149.88-85.6 149.78c-34.92 61.12-92 61.12-127 0l-422.78-739.72c-34.94-61.14-5.92-111.14 64.48-111.14h843.44c70.4 0 99.42 50 64.48 111.14zM973.18 653.16c-19.32 19.3-40.66 34.62-60.16 43.16-34.42 15.12-52.38 4.54-60.1-3.16l-258.12-258.12-82.8-243.040 243 82.8 3.36 3.4 254.76 254.76c4.94 4.94 10.88 13.88 10.88 28.3 0 25.34-19.5 60.56-50.82 91.9zM631 276.18l-34.88 34.86 34.64 101.6 9.24 3.36h32v-64h64v-32l-3.42-9.26z" />
<glyph unicode="&#xe930;" glyph-name="icon-circle-slash" d="M512 896c-282.78 0-512-229.22-512-512s229.22-512 512-512 512 229.22 512 512-229.22 512-512 512zM263.1 632.9c66.48 66.48 154.88 103.1 248.9 103.1 66.74 0 130.64-18.48 185.9-52.96l-484.94-484.94c-34.5 55.24-52.96 119.16-52.96 185.9 0 94.020 36.62 182.42 103.1 248.9zM760.9 135.1c-66.48-66.48-154.88-103.1-248.9-103.1-66.74 0-130.64 18.48-185.9 52.96l484.94 484.94c34.5-55.24 52.96-119.16 52.96-185.9 0-94.020-36.62-182.42-103.1-248.9z" />
<glyph unicode="&#xe931;" glyph-name="icon-question-mark" horiz-adv-x="697" d="M136.86 843.74c54.080 34.82 120.58 52.26 199.44 52.26 103.6 0 189.7-24.76 258.24-74.28s102.82-122.88 102.82-220.060c0-59.6-14.86-109.8-44.58-150.6-17.38-24.76-50.76-56.4-100.14-94.9l-48.68-37.82c-26.54-20.64-44.14-44.7-52.82-72.2-5.5-17.44-8.46-44.48-8.92-81.14h-186.4c2.74 77.48 10.060 131 21.94 160.58s42.5 63.62 91.88 102.12l50.060 39.2c16.46 12.38 29.72 25.9 39.78 40.58 18.28 25.2 27.42 52.96 27.42 83.22 0 34.84-10.18 66.6-30.52 95.24-20.36 28.64-57.52 42.98-111.48 42.98s-90.68-17.66-112.88-52.96c-22.18-35.32-33.26-71.98-33.26-110.040h-198.76c5.5 130.64 51.12 223.24 136.86 277.82zM251.020 70.76h205.62v-198.74h-205.62v198.74z" />
<glyph unicode="&#xe932;" glyph-name="icon-status-poll-check" d="M512 896c-282.76 0-512-214.9-512-480 0-92.26 27.8-178.44 75.92-251.6l-75.92-292.4 313.5 101.42c61.040-24.1 128.12-37.42 198.5-37.42 282.76 0 512 214.9 512 480s-229.24 480-512 480zM768 448l-320-320-192 192v192l192-192 320 320v-192z" />
<glyph unicode="&#xe933;" glyph-name="icon-status-poll-caution" d="M512 896c-282.76 0-512-214.9-512-480 0-92.26 27.8-178.44 75.92-251.6l-75.92-292.4 313.5 101.42c61.040-24.1 128.12-37.42 198.5-37.42 282.76 0 512 214.9 512 480s-229.24 480-512 480zM781.36 192h-538.72c-44.96 0-63.5 31.94-41.2 70.98l270 472.48c22.3 39.040 58.82 39.040 81.12 0l269.98-472.48c22.3-39.040 3.78-70.98-41.2-70.98zM457.14 478.14l24.2-122.64h61.32l24.2 122.64v163.5h-109.72v-163.5zM471.12 314.64h81.76v-81.76h-81.76v81.76z" />
<glyph unicode="&#xe934;" glyph-name="icon-status-poll-circle-slash" d="M391.18 227.3c35.72-22.98 77.32-35.3 120.82-35.3 59.84 0 116.080 23.3 158.4 65.6 42.3 42.3 65.6 98.56 65.6 158.4 0 43.5-12.32 85.080-35.3 120.82l-309.52-309.52zM512 640c-59.84 0-116.080-23.3-158.4-65.6-42.3-42.3-65.6-98.56-65.6-158.4 0-43.5 12.32-85.080 35.3-120.82l309.52 309.52c-35.72 22.98-77.32 35.3-120.82 35.3zM512 896c-282.76 0-512-214.9-512-480 0-92.26 27.8-178.44 75.92-251.6l-75.92-292.4 313.5 101.42c61.040-24.1 128.12-37.42 198.5-37.42 282.76 0 512 214.9 512 480s-229.24 480-512 480zM512 96c-176.74 0-320 143.26-320 320s143.26 320 320 320 320-143.26 320-320-143.26-320-320-320z" />
<glyph unicode="&#xe935;" glyph-name="icon-status-poll-question-mark" d="M512 896c-282.76 0-512-214.9-512-480 0-92.26 27.8-178.44 75.92-251.6l-75.92-292.4 313.5 101.42c61.040-24.1 128.12-37.42 198.5-37.42 282.76 0 512 214.9 512 480s-229.24 480-512 480zM579.020 64h-141.36v136.64h141.36v-136.64zM713.84 462.1c-11.94-17.020-34.9-38.78-68.84-65.24l-33.48-26c-18.24-14.18-30.34-30.74-36.32-49.64-3.78-11.98-5.82-30.58-6.14-55.8h-128.12c1.88 53.26 6.92 90.060 15.080 110.4 8.18 20.34 29.22 43.74 63.16 70.22l34.42 26.94c11.3 8.52 20.42 17.8 27.34 27.9 12.56 17.34 18.86 36.4 18.86 57.2 0 23.94-7 45.78-20.98 65.48-14 19.7-39.54 29.54-76.64 29.54s-62.34-12.14-77.6-36.4c-15.24-24.28-22.88-49.48-22.88-75.64h-136.64c3.78 89.84 35.14 153.5 94.080 191.020 37.18 23.94 82.9 35.94 137.12 35.94 71.22 0 130.42-17.020 177.54-51.060s70.68-84.48 70.68-151.3c0-40.98-10.22-75.5-30.66-103.54z" />
<glyph unicode="&#xe936;" glyph-name="icon-status-poll-edit" d="M1000.080 561.36l-336.6-336.76-20.52-6.88-450.96-153.72 160.68 471.52 332.34 332.34c-54.040 18.2-112.28 28.14-173.020 28.14-282.76 0-512-214.9-512-480 0-92.26 27.8-178.44 75.92-251.6l-75.92-292.4 313.5 101.42c61.040-24.1 128.12-37.42 198.5-37.42 282.76 0 512 214.9 512 480 0 50.68-8.4 99.5-23.92 145.36zM408.42 500.76l-2.16-6.3-111.7-327.9 334.12 113.86 4.62 4.68 350.28 350.28c6.8 6.78 14.96 19.1 14.96 38.9 0 34.86-26.82 83.28-69.88 126.38-26.54 26.54-55.9 47.6-82.7 59.34-47.34 20.8-72.020 6.24-82.64-4.36l-354.9-354.88zM470.56 474.58h44v-88h88v-44l-4.7-12.72-139.68-47.54-47.94 47.94 47.6 139.72 12.72 4.6z" />
<glyph unicode="&#xe937;" glyph-name="icon-stale" d="M832 896h-640c-105.6 0-192-86.4-192-192v-640c0-105.6 86.4-192 192-192h640c105.6 0 192 86.4 192 192v640c0 105.6-86.4 192-192 192zM681.38 530.86c0.68 20.46-2.22 37.7-8.7 51.68-6.5 13.98-15.7 25.4-27.64 34.28-11.94 8.86-26.1 15.18-42.48 18.94-16.38 3.74-33.78 5.62-52.2 5.62-15.020 0-30.2-1.54-45.54-4.6s-29.16-8.18-41.44-15.36-22.18-16.56-29.68-28.14c-7.52-11.62-11.26-25.94-11.26-42.98s6.66-32.6 19.96-44.52c13.3-11.94 29.34-21.84 48.1-29.68 18.76-7.86 38.020-14 57.82-18.42 19.78-4.44 35.82-8.020 48.1-10.74 28.66-7.52 54.92-16.22 78.8-26.1 23.88-9.9 44.52-22.68 61.92-38.38s30.86-34.8 40.42-57.32c9.54-22.52 14.32-50.16 14.32-82.9 0-43.68-9.040-80.86-27.12-111.56s-41.28-55.62-69.6-74.7c-28.32-19.1-60.22-32.92-95.7-41.44s-70.62-12.8-105.42-12.8c-102.34 0-178.6 20.8-228.74 62.44-50.16 41.6-75.22 107.1-75.22 196.5h152.5c-1.38-25.94 1.7-47.58 9.22-64.98 7.5-17.4 18.42-31.22 32.74-41.44 14.32-10.24 31.38-17.58 51.18-22 19.78-4.44 41.28-6.66 64.48-6.66 16.38 0 32.74 2.040 49.12 6.14s31.22 10.24 44.52 18.42c13.3 8.18 24.22 18.76 32.76 31.72 8.52 12.94 12.8 28.66 12.8 47.080s-5.46 32.24-16.38 43.5c-10.92 11.26-25.080 20.98-42.48 29.16s-37.2 15.36-59.36 21.5c-22.18 6.14-44.52 12.62-67.040 19.44-23.2 6.82-45.72 15-67.54 24.56-21.84 9.54-41.44 21.82-58.84 36.84-17.4 15-31.38 33.42-41.96 55.26-10.58 21.82-15.86 48.44-15.86 79.82 0 40.94 8.52 75.74 25.58 104.4 17.040 28.66 39.22 52.020 66.52 70.1 27.28 18.080 58.16 31.38 92.62 39.92 34.44 8.52 69.42 12.8 104.9 12.8 37.52 0 72.82-4.26 105.92-12.8 33.080-8.54 62.080-22.36 87-41.44 24.9-19.1 44.68-43.5 59.36-73.18 14.66-29.68 22-65.68 22-107.98h-152.5z" />
<glyph unicode="&#xea00;" glyph-name="icon-arrows-right-left" d="M1024 384l-448-512v1024zM448 896l-448-512 448-512z" />
<glyph unicode="&#xea01;" glyph-name="icon-arrows-up-down" d="M512 896l512-448h-1024zM0 320l512-448 512 448z" />
<glyph unicode="&#xea02;" glyph-name="icon-bullet" d="M832 144c0-44-36-80-80-80h-480c-44 0-80 36-80 80v480c0 44 36 80 80 80h480c44 0 80-36 80-80v-480z" />
<glyph unicode="&#xea03;" glyph-name="icon-calendar" d="M896 896h-768c-70.4 0-128-57.6-128-128v-768c0-70.4 57.6-128 128-128h768c70.4 0 128 57.6 128 128v768c0 70.4-57.6 128-128 128zM640 448h-256v192h256v-192zM384 384h256v-192h-256v192zM320 192h-256v192h256v-192zM320 640v-192h-256v192h256zM128-64c-17 0-33 6.6-45.2 18.8s-18.8 28.2-18.8 45.2v128h256v-192h-192zM384-64v192h256v-192h-256zM960 0c0-17-6.6-33-18.8-45.2s-28.2-18.8-45.2-18.8h-192v192h256v-128zM960 192h-256v192h256v-192zM960 448h-256v192h256v-192z" />
<glyph unicode="&#xea04;" glyph-name="icon-chain-links" d="M958.4 830.4c-43.8 43.8-101 65.6-158.4 65.6s-114.6-21.8-158.4-65.6l-128-128c-74-74-85.4-187-34-273l-12.8-12.8c-35.4 20.8-75 31.4-114.8 31.4-57.4 0-114.6-21.8-158.4-65.6l-128-128c-87.4-87.4-87.4-229.4 0-316.8 43.8-43.8 101-65.6 158.4-65.6s114.6 21.8 158.4 65.6l128 128c74 74 85.4 187 34 273l12.8 12.8c35.2-21 75-31.6 114.6-31.6 57.4 0 114.6 21.8 158.4 65.6l128 128c87.6 87.6 87.6 229.6 0.2 317zM419.8 156.2l-128-128c-18-18.2-42.2-28.2-67.8-28.2s-49.8 10-67.8 28.2c-37.4 37.4-37.4 98.4 0 135.8l128 128c18.2 18.2 42.2 28.2 67.8 28.2 5.6 0 11.2-0.6 16.8-1.4l-55.6-55.6c-10.4-10.4-16.2-24.2-16.2-38.8s5.8-28.6 16.2-38.8c10.4-10.4 24.2-16.2 38.8-16.2s28.6 5.8 38.8 16.2l55.6 55.6c5.4-30.4-3.6-62.2-26.6-85zM867.8 604.2l-128-128c-18-18.2-42.2-28.2-67.8-28.2-5.6 0-11.2 0.6-16.8 1.4l55.6 55.6c10.4 10.4 16.2 24.2 16.2 38.8s-5.8 28.6-16.2 38.8c-10.4 10.4-24.2 16.2-38.8 16.2s-28.6-5.8-38.8-16.2l-55.6-55.6c-5.2 29.8 3.6 61.6 26.6 84.6l128 128c18 18.4 42.2 28.4 67.8 28.4s49.8-10 67.8-28.2c37.6-37.4 37.6-98.2 0-135.6z" />
<glyph unicode="&#xea05;" glyph-name="icon-download" d="M832 320v-255.66l-0.34-0.34-639.66 0.34v255.66h-192v-256c0-105.6 86.4-192 192-192h640c105.6 0 192 86.4 192 192v256h-192zM512 256l448 448h-256v192h-384v-192h-256l448-448z" />
<glyph unicode="&#xea06;" glyph-name="icon-duplicate" d="M640 640v128c0 70.4-57.6 128-128 128h-384c-70.4 0-128-57.6-128-128v-384c0-70.4 57.6-128 128-128h128v139.6c0 134.8 109.6 244.4 244.4 244.4h139.6zM896 512h-384c-70.4 0-128-57.6-128-128v-384c0-70.4 57.6-128 128-128h384c70.4 0 128 57.6 128 128v384c0 70.4-57.6 128-128 128z" />
<glyph unicode="&#xea07;" glyph-name="icon-folder-new" d="M896 704h-320c-16.4 16.4-96.8 96.8-109.2 109.2l-37.4 37.4c-25 25-74.2 45.4-109.4 45.4h-256c-35.2 0-64-28.8-64-64v-384c0 70.4 57.6 128 128 128h768c70.4 0 128-57.6 128-128v128c0 70.4-57.6 128-128 128zM896 448h-768c-70.4 0-128-57.6-128-128v-320c0-70.4 57.6-128 128-128h768c70.4 0 128 57.6 128 128v320c0 70.4-57.6 128-128 128zM704 96h-128v-128h-128v128h-128v128h128v128h128v-128h128v-128z" />
<glyph unicode="&#xea08;" glyph-name="icon-fullscreen-collapse" d="M191.656 64c0.118-0.1 0.244-0.224 0.344-0.344v-191.656h192v192c0 105.6-86.4 192-192 192h-192v-192h191.656zM192 704.344c-0.1-0.118-0.224-0.244-0.344-0.344h-191.656v-192h192c105.6 0 192 86.4 192 192v192h-192v-191.656zM832 512h192v192h-191.656c-0.118 0.1-0.244 0.226-0.344 0.344v191.656h-192v-192c0-105.6 86.4-192 192-192zM832 63.656c0.1 0.118 0.224 0.244 0.344 0.344h191.656v192h-192c-105.6 0-192-86.4-192-192v-192h192v191.656z" />
<glyph unicode="&#xea09;" glyph-name="icon-fullscreen-expand" d="M192.344 64c-0.118 0.1-0.244 0.224-0.344 0.344v191.656h-192v-192c0-105.6 86.4-192 192-192h192v192h-191.656zM192 703.656c0.1 0.118 0.224 0.244 0.344 0.344h191.656v192h-192c-105.6 0-192-86.4-192-192v-192h192v191.656zM832 896h-192v-192h191.656c0.118-0.1 0.244-0.226 0.344-0.344v-191.656h192v192c0 105.6-86.4 192-192 192zM832 64.344c-0.1-0.118-0.224-0.244-0.344-0.344h-191.656v-192h192c105.6 0 192 86.4 192 192v192h-192v-191.656z" />
<glyph unicode="&#xea0a;" glyph-name="icon-layers" d="M1024 512l-512 384-512-384 512-384zM512 0l-426.666 320-85.334-64 512-384 512 384-85.334 64z" />
<glyph unicode="&#xea0b;" glyph-name="icon-line-horz" d="M64 320c-35.346 0-64 28.654-64 64s28.654 64 64 64h896c35.346 0 64-28.654 64-64s-28.654-64-64-64h-896z" />
<glyph unicode="&#xea0c;" glyph-name="icon-magnify" d="M1024 0l-256.8 256.8c42.4 66.6 65 144 64.8 223.2 0 229.8-186.2 416-416 416s-416-186.2-416-416 186.2-416 416-416c79-0.2 156.4 22.4 223.2 64.8l256.8-256.8 128 128zM212.4 276.4c-112.4 112.4-112.4 294.8 0 407.2s294.8 112.4 407.2 0 112.4-294.8 0-407.2c-54-54-127.2-84.4-203.6-84.4-76.4-0.2-149.8 30.2-203.6 84.4z" />
<glyph unicode="&#xea0d;" glyph-name="icon-magnify-in" d="M1024 0l-256.86 256.86c40.681 62.963 64.861 139.898 64.861 222.481 0 0.232 0 0.464-0.001 0.696v-0.036c0 229.76-186.24 416-416 416s-416-186.24-416-416 186.24-416 416-416c0.196 0 0.427-0.001 0.659-0.001 82.583 0 159.518 24.18 224.112 65.846l-1.631-0.985 256.86-256.86zM212.36 276.36c-52.114 52.117-84.346 124.114-84.346 203.64 0 159.058 128.942 288 288 288s288-128.942 288-288c0-159.058-128.942-288-288-288-0.005 0-0.010 0-0.014 0h0.001c-0.242-0.001-0.529-0.001-0.815-0.001-79.271 0-151.010 32.251-202.811 84.348l-0.013 0.014zM224 544h384v-128h-384v128zM352 672h128v-384h-128v384z" />
<glyph unicode="&#xea0e;" glyph-name="icon-magnify-out-v2" d="M767.2 256.8c42.4 66.6 65 144 64.8 223.2 0 229.8-186.2 416-416 416s-416-186.2-416-416 186.2-416 416-416c79-0.2 156.4 22.4 223.2 64.8l256.8-256.8 128 128-256.8 256.8zM619.6 276.4c-54-54-127.2-84.4-203.6-84.4-76.4-0.2-149.8 30.2-203.6 84.4-112.4 112.4-112.4 294.8 0 407.2s294.8 112.4 407.2 0c112.4-112.4 112.4-294.8 0-407.2zM224 544h384v-128h-384v128z" />
<glyph unicode="&#xea0f;" glyph-name="icon-menu" d="M0 768h1024v-128h-1024v128zM0 448h1024v-128h-1024v128zM0 128h1024v-128h-1024v128z" />
<glyph unicode="&#xea10;" glyph-name="icon-move" d="M293.4 384l218.6 218.6 256-256v421.4c0 70.4-57.6 128-128 128h-512c-70.4 0-128-57.6-128-128v-512c0-70.4 57.6-128 128-128h421.4l-256 256zM1024 448h-128v-320l-384 384-128-128 384-384h-320v-128h576z" />
<glyph unicode="&#xea11;" glyph-name="icon-new-window" d="M448 896v-128h320l-384-384 128-128 384 384v-320h128v576zM576 221.726v-157.382c-0.1-0.118-0.226-0.244-0.344-0.344h-383.312c-0.118 0.1-0.244 0.226-0.344 0.344v383.312c0.1 0.118 0.226 0.244 0.344 0.344h157.382l192 192h-349.726c-105.6 0-192-86.4-192-192v-384c0-105.6 86.4-192 192-192h384c105.6 0 192 86.4 192 192v349.726l-192-192z" />
<glyph unicode="&#xea12;" glyph-name="icon-paint-bucket-v2" d="M544 672v-224c0-88.4-71.6-160-160-160s-160 71.6-160 160v97.2l-197.4-196.4c-50-50-12.4-215.2 112.4-340s290-162.4 340-112.4l417 423.6-352 352zM896-128c70.6 0 128 57.4 128 128 0 108.6-128 192-128 192s-128-83.4-128-192c0-70.6 57.4-128 128-128zM384 384c-35.4 0-64 28.6-64 64v384c0 35.4 28.6 64 64 64s64-28.6 64-64v-384c0-35.4-28.6-64-64-64z" />
<glyph unicode="&#xea13;" glyph-name="icon-pencil" d="M922.344 794.32c-38.612 38.596-81.306 69.232-120.304 86.324-68.848 30.25-104.77 9.078-120.194-6.344l-516.228-516.216-3.136-9.152-162.482-476.932 485.998 165.612 6.73 6.806 509.502 509.506c9.882 9.866 21.768 27.77 21.768 56.578 0.002 50.71-38.996 121.148-101.654 183.818zM237.982 40.34l-69.73 69.728 69.25 203.228 18.498 6.704h64v-128h128v-64l-6.846-18.506-203.172-69.154z" />
<glyph unicode="&#xea14;" glyph-name="icon-pencil-edit-in-place" d="M922.4 794.4c-38.6 38.6-81.4 69.2-120.4 86.2-68.8 30.2-104.8 9-120.2-6.4l-516.2-516.2-3.2-9.2-162.4-476.8 486 165.6 516.2 516.4c9.8 9.8 21.8 27.8 21.8 56.6 0 50.6-39 121-101.6 183.8zM238 40.4l-69.8 69.6 69.2 203.2 18.4 6.8h64v-128h128v-64l-6.8-18.6-203-69zM0 896v-512l128 128v256h256l128 128zM1024-128v512l-128-128v-256h-256l-128-128z" />
<glyph unicode="&#xea15;" glyph-name="icon-play" d="M1024 384l-1024-512v1024z" />
<glyph unicode="&#xea16;" glyph-name="icon-pause" d="M126 898h256v-1024h-256v1024zM638 898h256v-1024h-256v1024z" />
<glyph unicode="&#xea17;" glyph-name="icon-plot-resource" d="M255.8 192c0.2 0 0.2 0 0 0l0.2 128c0 70.6 57.4 128 128 128h255.8c0 0 0 0 0.2 0.2v127.8c0 70.6 57.4 128 128 128h143.6c-93.8 117-238 192-399.6 192-282.8 0-512-229.2-512-512 0-68 13.2-132.8 37.2-192h218.6zM768.2 576c-0.2 0-0.2 0 0 0l-0.2-128c0-70.6-57.4-128-128-128h-255.8c0 0 0 0-0.2-0.2v-127.8c0-70.6-57.4-128-128-128h-143.6c93.8-117 238-192 399.6-192 282.8 0 512 229.2 512 512 0 68-13.2 132.8-37.2 192h-218.6z" />
<glyph unicode="&#xea18;" glyph-name="icon-pointer-left" d="M766-128l-256 512 256 512h-256l-256-512 256-512z" />
<glyph unicode="&#xea19;" glyph-name="icon-pointer-right" d="M254 896l256-512-256-512h256l256 512-256 512z" />
<glyph unicode="&#xea1a;" glyph-name="icon-refresh" d="M1024 435.2v460.8l-175.8-175.8c-85.2 69.6-190.8 107.6-302 107.6-127.6 0-247.6-49.8-338-140s-140-210.4-140-338 49.8-247.6 140-338 210.4-140 338-140 247.6 49.8 338 140c74 74 120.8 167.8 135 269.6h-138.6c-32-155.4-169.8-272.8-334.6-272.8-188.2 0-341.4 153.2-341.4 341.4s153.4 341.2 341.6 341.2c76.8 0 147.6-25.4 204.8-68.2l-187.8-187.8h460.8z" />
<glyph unicode="&#xea1b;" glyph-name="icon-save" d="M192.2 320c-0.2 0-0.2 0 0 0l-0.2-448h640v447.8c0 0 0 0-0.2 0.2h-639.6zM978.8 685.2l-165.4 165.4c-25 25-74.2 45.4-109.4 45.4h-576c-70.4 0-128-57.6-128-128v-768c0-70.4 57.6-128 128-128v448c0 35.2 28.8 64 64 64h640c35.2 0 64-28.8 64-64v-448c70.4 0 128 57.6 128 128v576c0 35.2-20.4 84.4-45.2 109.2zM704 640c0-35.2-28.8-64-64-64h-448c-35.2 0-64 28.8-64 64v192h320v-192h128v192h128v-192z" />
<glyph unicode="&#xea1c;" glyph-name="icon-save-as" d="M978.8 557.2l-64 64c24.8-24.8 45.2-74 45.2-109.2v-448c0-70.4-57.6-128-128-128h-640c-18.8 0-36.6 4.2-52.6 11.4 20.2-44.4 65-75.4 116.6-75.4h640c70.4 0 128 57.6 128 128v448c0 35.2-20.4 84.4-45.2 109.2zM704 0v319.8c0 0 0 0-0.2 0.2h-511.6l-0.2-320h512zM192 384h512c35.2 0 64-28.8 64-64v-320c70.4 0 128 57.6 128 128v448c0 35.2-20.4 84.4-45.2 109.2l-165.4 165.4c-25 25-74.2 45.4-109.4 45.4h-448c-70.4 0-128-57.6-128-128v-640c0-70.4 57.6-128 128-128v320c0 35.2 28.8 64 64 64zM128 832h192v-192h128v192h128v-192c0-35.2-28.8-64-64-64h-320c-35.2 0-64 28.8-64 64v192z" />
<glyph unicode="&#xea1d;" glyph-name="icon-sine" d="M1024 384c-1.8 7.2-3.4 14.4-5.2 21.8-20.2 86.2-53.4 209.4-98.4 307.2-22.4 49-45.4 86.6-70.2 115.2-48.6 56-98.4 67.8-131.8 67.8-33.2 0-83.2-11.8-131.8-67.8-24.6-28.6-47.6-66.2-70-115.2-44.8-97.8-78.2-221-98.4-307.2-21.8-93-46.6-175.4-72-238.4-16.4-40.6-30.4-66.4-40.8-82.8-10.4 16.2-24.4 42.2-40.8 82.8-23.2 58-46.2 132.4-66.6 216.6h-198c1.8-7.2 3.4-14.4 5.2-21.8 20.2-86.2 53.4-209.4 98.4-307.2 22.4-49 45.4-86.6 70.2-115.2 48.6-56 98.6-67.8 131.8-67.8s83.2 11.8 131.8 67.8c24.8 28.6 47.6 66.2 70.2 115.2 44.8 97.8 78.2 221 98.4 307.2 21.8 93 46.6 175.4 72 238.4 16.4 40.6 30.4 66.4 40.8 82.8 10.4-16.2 24.4-42.2 40.8-82.8 23.4-57.8 46.4-132.4 66.8-216.4h197.6z" />
<glyph unicode="&#xea1e;" glyph-name="icon-font" d="M800-128h224l-384 1024h-256l-384-1024h224l84 224h408zM380 288l132 352 132-352z" />
<glyph unicode="&#xea1f;" glyph-name="icon-thumbs-strip" d="M448 514c0-35.2-28.8-64-64-64h-320c-35.2 0-64 28.8-64 64v320c0 35.2 28.8 64 64 64h320c35.2 0 64-28.8 64-64v-320zM1024 514c0-35.2-28.8-64-64-64h-320c-35.2 0-64 28.8-64 64v320c0 35.2 28.8 64 64 64h320c35.2 0 64-28.8 64-64v-320zM448-62c0-35.2-28.8-64-64-64h-320c-35.2 0-64 28.8-64 64v320c0 35.2 28.8 64 64 64h320c35.2 0 64-28.8 64-64v-320zM1024-62c0-35.2-28.8-64-64-64h-320c-35.2 0-64 28.8-64 64v320c0 35.2 28.8 64 64 64h320c35.2 0 64-28.8 64-64v-320z" />
<glyph unicode="&#xea20;" glyph-name="icon-two-parts-both" d="M896 896h-768c-70.4 0-128-57.6-128-128v-768c0-70.4 57.6-128 128-128h768c70.4 0 128 57.6 128 128v768c0 70.4-57.6 128-128 128zM128 768h320v-768h-320v768zM896 0h-320v768h320v-768z" />
<glyph unicode="&#xea21;" glyph-name="icon-two-parts-one-only" d="M896 896h-768c-70.4 0-128-57.6-128-128v-768c0-70.4 57.6-128 128-128h768c70.4 0 128 57.6 128 128v768c0 70.4-57.6 128-128 128zM896 0h-320v768h320v-768z" />
<glyph unicode="&#xea22;" glyph-name="icon-resync" d="M795.2 731.2c-79.8 65.2-178.8 100.8-283.2 100.8-119.6 0-232.2-46.6-316.8-131.2-69.4-69.4-113.2-157.4-126.6-252.8h130c29.6 145.8 158.8 256 313.4 256 72 0 138.4-23.8 192-64l-176-176h432v432l-164.8-164.8zM512 64c-72 0-138.4 23.8-192 64l176 176h-432v-432l164.8 164.8c79.8-65.2 178.8-100.8 283.2-100.8 119.6 0 232.2 46.6 316.8 131.2 69.4 69.4 113.2 157.4 126.6 252.8h-130c-29.6-145.8-158.8-256-313.4-256z" />
<glyph unicode="&#xea23;" glyph-name="icon-reset" d="M460.8 435.2l-187.8 187.8c57.2 42.8 128 68.2 204.8 68.2 188.2 0 341.6-153.2 341.6-341.4s-153.2-341.2-341.4-341.2c-165 0-302.8 117.6-334.6 273h-138.4c14.2-101.8 61-195.6 135-269.6 90.2-90.2 210.4-140 338-140s247.6 49.8 338 140 140 210.4 140 338-49.8 247.6-140 338-210.4 140-338 140c-111.4 0-217-38-302-107.6l-176 175.6v-460.8h460.8z" />
<glyph unicode="&#xea24;" glyph-name="icon-x-in-circle" d="M512 896c-282.8 0-512-229.2-512-512s229.2-512 512-512 512 229.2 512 512-229.2 512-512 512zM832 192l-128-128-192 192-192-192-128 128 192 192-192 192 128 128 192-192 192 192 128-128-192-192 192-192z" />
<glyph unicode="&#xea25;" glyph-name="icon-brightness" d="M253.414 577.939l-155.172 116.384c-50.233-66.209-85.127-146.713-97.91-234.39l-0.333-2.781 191.919-27.434c8.145 56.552 29.998 106.879 62.068 149.006l-0.573-0.784zM191.98 338.283l-191.919-27.434c13.115-90.459 48.009-170.963 99.174-238.453l-0.931 1.281 155.111 116.384c-31.476 41.347-53.309 91.675-61.231 146.504l-0.204 1.719zM466.283 704.020l-27.434 191.919c-90.459-13.115-170.963-48.009-238.453-99.174l1.281 0.931 116.384-155.111c41.347 31.476 91.675 53.309 146.504 61.231l1.719 0.204zM822.323 797.758c-66.209 50.233-146.713 85.127-234.39 97.91l-2.781 0.333-27.434-191.919c56.552-8.145 106.879-29.998 149.006-62.068l-0.784 0.573zM832.020 429.717l191.919 27.434c-13.115 90.459-48.009 170.963-99.174 238.453l0.931-1.281-155.111-116.384c31.476-41.347 53.309-91.675 61.231-146.504l0.204-1.719zM201.677-29.758c66.209-50.233 146.713-85.127 234.39-97.91l2.781-0.333 27.434 191.919c-56.552 8.145-106.879 29.998-149.006 62.068l0.784-0.573zM770.586 190.061l155.131-116.343c50.233 66.209 85.127 146.713 97.91 234.39l0.333 2.781-191.919 27.434c-8.125-56.564-29.966-106.906-62.028-149.049l0.574 0.786zM557.717 63.98l27.434-191.919c90.459 13.115 170.963 48.009 238.453 99.174l-1.281-0.931-116.384 155.111c-41.347-31.476-91.675-53.309-146.504-61.231l-1.719-0.204zM770.586 384c0-142.813-115.773-258.586-258.586-258.586s-258.586 115.773-258.586 258.586c0 142.813 115.773 258.586 258.586 258.586s258.586-115.773 258.586-258.586z" />
<glyph unicode="&#xea26;" glyph-name="icon-contrast" d="M512 896c-282.78 0-512-229.24-512-512s229.22-512 512-512 512 229.24 512 512-229.22 512-512 512zM783.52 112.48c-69.111-69.481-164.785-112.481-270.502-112.481-0.358 0-0.716 0-1.074 0.001h0.055v768c212.070-0.010 383.982-171.929 383.982-384 0-106.034-42.977-202.031-112.462-271.52v0z" />
<glyph unicode="&#xea27;" glyph-name="icon-expand" d="M960 896c0 0 0 0 0 0h-320v-128h165.4l-210.6-210.8c-25-25-25-65.6 0-90.6 12.4-12.4 28.8-18.8 45.2-18.8s32.8 6.2 45.2 18.8l210.8 210.8v-165.4h128v384h-64zM896 90.6l-210.8 210.6c-25 25-65.6 25-90.6 0s-25-65.6 0-90.6l210.8-210.6h-165.4v-128h384v384h-128v-165.4zM218.6 768h165.4v128h-320c0 0 0 0 0 0h-64v-384h128v165.4l210.8-210.8c12.4-12.4 28.8-18.8 45.2-18.8s32.8 6.2 45.2 18.8c25 25 25 65.6 0 90.6l-210.6 210.8zM338.8 301.2l-210.8-210.6v165.4h-128v-384h384v128h-165.4l210.8 210.8c25 25 25 65.6 0 90.6-25.2 24.8-65.6 24.8-90.6-0.2z" />
<glyph unicode="&#xea28;" glyph-name="icon-list-view" d="M0 832h1024v-128h-1024v128zM0 576h1024v-128h-1024v128zM0 320h1024v-128h-1024v128zM0 64h1024v-128h-1024v128z" />
<glyph unicode="&#xea29;" glyph-name="icon-grid-snap-to" d="M382 66h448v448h-448v-448zM510 386h192v-192h-192v192zM-2 322h320v-64h-320v64zM894 322h128v-64h-128v64zM574 898h64v-320h-64v320zM574 2h64v-128h-64v128zM574 322h64v-64h-64v64z" />
<glyph unicode="&#xea2a;" glyph-name="icon-grid-snap-no" d="M768 320h192v-64h-192v64zM256 320h192v-64h-192v64zM0 320h192v-64h-192v64zM640 384h-64v-64h-64v-64h64v-64h64v64h64v64h-64zM576 640h64v-192h-64v192zM576 896h64v-192h-64v192zM576 128h64v-192h-64v192z" />
<glyph unicode="&#xea2b;" glyph-name="icon-frame-show" d="M0 832v-896h1024v896h-1024zM896 64h-768v640h768v-640zM192 640h384v-128h-384v128z" />
<glyph unicode="&#xea2c;" glyph-name="icon-frame-hide" d="M128 706h420l104 128h-652v-802.4l128 157.4zM896 66h-420l-104-128h652v802.4l-128-157.4zM832 898l-832-1024h192l832 1024zM392 514l104 128h-304v-128z" />
<glyph unicode="&#xea2d;" glyph-name="icon-import" d="M832 703.6v-639.4c0-0.2-0.2-0.2-0.4-0.4h-319.6v-192h320c105.6 0 192 86.4 192 192v640.2c0 105.6-86.4 192-192 192h-320v-192h319.6c0.2 0 0.4-0.2 0.4-0.4zM192 192v-192l384 384-384 384v-192h-192v-384z" />
<glyph unicode="&#xea2e;" glyph-name="icon-export" d="M192 64.34v639.32l0.34 0.34h319.66v192h-320c-105.6 0-192-86.4-192-192v-640c0-105.6 86.4-192 192-192h320v192h-319.66zM1024 384l-384 384v-192h-192v-384h192v-192l384 384z" />
<glyph unicode="&#xea2f;" glyph-name="icon-font-size" horiz-adv-x="1504" d="M1226.4 576h-176l-76.22-203.24 77-205.34 87.22 232.58 90.74-242h-174.44l49.5-132h174.44l57.76-154h154l-264 704zM384 896l-384-1024h224l84 224h408l84-224h224l-384 1024zM380 288l132 352 132-352z" />
<glyph unicode="&#xea30;" glyph-name="icon-clear-data" d="M632 584l-120-120-120 120-80-80 120-120-120-120 80-80 120 120 120-120 80 80-120 120 120 120-80 80zM512 896c-282.76 0-512-86-512-192v-640c0-106 229.24-192 512-192s512 86 512 192v640c0 106-229.24 192-512 192zM512 64c-176.731 0-320 143.269-320 320s143.269 320 320 320c176.731 0 320-143.269 320-320v0c0-176.731-143.269-320-320-320v0z" />
<glyph unicode="&#xea31;" glyph-name="icon-history" d="M576 832c-247.4 0-448-200.6-448-448h-128l192-192 192 192h-128c0 85.4 33.2 165.8 93.8 226.2 60.4 60.6 140.8 93.8 226.2 93.8s165.8-33.2 226.2-93.8c60.6-60.4 93.8-140.8 93.8-226.2s-33.2-165.8-93.8-226.2c-60.4-60.6-140.8-93.8-226.2-93.8s-165.8 33.2-226.2 93.8l-90.6-90.6c81-81 193-131.2 316.8-131.2 247.4 0 448 200.6 448 448s-200.6 448-448 448zM576 624c-26.6 0-48-21.4-48-48v-211.8l142-142c9.4-9.4 21.6-14 34-14s24.6 4.6 34 14c18.8 18.8 18.8 49.2 0 67.8l-114 114v172c0 26.6-21.4 48-48 48z" />
<glyph unicode="&#xea32;" glyph-name="icon-arrow-up-to-parent" horiz-adv-x="1056" d="M643.427 70.739c-81.955 0.697-148.179 67.065-148.642 149.010v395.872l296.871-247.393v197.914l-395.828 329.857-395.828-328.62v-197.502l296.871 246.156v-396.241c0-190.905 155.239-346.556 346.144-346.968l412.321-0.825 0.412 197.914z" />
<glyph unicode="&#xea33;" glyph-name="icon-crosshair-in-circle" d="M512 896c-282.8 0-512-229.2-512-512s229.2-512 512-512 512 229.2 512 512-229.2 512-512 512zM783.6 112.4c-54.634-54.8-125.77-93.12-205.322-106.874l-2.278-0.326v250.8h-128v-250.8c-161.302 28.062-286.738 153.497-314.468 312.5l-0.332 2.3h250.8v128h-250.8c28.062 161.302 153.497 286.738 312.5 314.468l2.3 0.332v-250.8h128v250.8c161.302-28.062 286.738-153.497 314.468-312.5l0.332-2.3h-250.8v-128h250.8c-14.080-81.83-52.4-152.966-107.191-207.591l-0.009-0.009z" />
<glyph unicode="&#xea34;" glyph-name="icon-target" d="M512 512c70.692 0 128-57.308 128-128s-57.308-128-128-128c-70.692 0-128 57.308-128 128v0c0.114 70.647 57.353 127.886 127.989 128h0.011zM512 640c-141.385 0-256-114.615-256-256s114.615-256 256-256c141.385 0 256 114.615 256 256v0c-0.114 141.339-114.661 255.886-255.989 256h-0.011zM512 768c211.87-0.128 383.575-171.912 383.575-383.8 0-211.967-171.833-383.8-383.8-383.8s-383.8 171.833-383.8 383.8c0 105.99 42.963 201.945 112.425 271.4v0c69.21 69.437 164.944 112.401 270.713 112.401 0.312 0 0.624 0 0.936-0.001h-0.048zM512 896c-282.8 0-512-229.2-512-512s229.2-512 512-512 512 229.2 512 512-229.2 512-512 512z" />
<glyph unicode="&#xea35;" glyph-name="icon-items-collapse" d="M45.2 237.2h229.6l-274.8-274.6 90.6-90.6 274.6 274.8v-229.6h128v448h-448v-128zM1024 805.4l-90.6 90.6-274.6-274.8v229.6h-128v-448h448v128h-229.6l274.8 274.6z" />
<glyph unicode="&#xea36;" glyph-name="icon-items-expand" d="M448 0h-229.4l274.6 274.8-90.4 90.4-274.8-274.6v229.4h-128v-448h448v128zM530.8 493.2l90.4-90.4 274.8 274.6v-229.4h128v448h-448v-128h229.4l-274.6-274.8z" />
<glyph unicode="&#xea37;" glyph-name="icon-3-dots" d="M256 384c0-70.692-57.308-128-128-128s-128 57.308-128 128c0 70.692 57.308 128 128 128s128-57.308 128-128zM640 384c0-70.692-57.308-128-128-128s-128 57.308-128 128c0 70.692 57.308 128 128 128s128-57.308 128-128zM1024 384c0-70.692-57.308-128-128-128s-128 57.308-128 128c0 70.692 57.308 128 128 128s128-57.308 128-128z" />
<glyph unicode="&#xea38;" glyph-name="icon-grid-on" d="M1024 512v128h-256v256h-128v-256h-256v256h-128v-256h-256v-128h256v-256h-256v-128h256v-256h128v256h256v-256h128v256h256v128h-256v256zM640 256h-256v256h256z" />
<glyph unicode="&#xea39;" glyph-name="icon-grid-off" d="M256 344.6l128 157.6v9.8h8l104 128h-112v256h-128v-256h-256v-128h256v-167.4zM184 256h-184v-128h80l104 128zM768 423.4l-128-157.6v-9.8h-8l-104-128h112v-256h128v256h256v128h-256v167.4zM840 512h184v128h-80l-104-128zM832 896l-832-1024h192l832 1024h-192z" />
<glyph unicode="&#xea3a;" glyph-name="icon-camera" d="M896 640h-128l-128 256h-256l-128-256h-128c-70.601-0.227-127.773-57.399-128-127.978v-512.022c0.227-70.601 57.399-127.773 127.978-128h768.022c70.601 0.227 127.773 57.399 128 127.978v512.022c-0.227 70.601-57.399 127.773-127.978 128h-0.022zM512 32c-141.385 0-256 114.615-256 256s114.615 256 256 256c141.385 0 256-114.615 256-256v0c0-141.385-114.615-256-256-256v0z" />
<glyph unicode="&#xea3b;" glyph-name="icon-folders-collapse" d="M896 576v-448c-0.215-70.606-57.394-127.785-127.979-128h-576.021c0.215-70.606 57.394-127.785 127.979-128h576.021c70.606 0.215 127.785 57.394 128 127.979v448.021c-0.215 70.606-57.394 127.785-127.979 128h-0.021zM832 192v448c-0.215 70.606-57.394 127.785-127.979 128h-192.021l-101.5 82.74c-24.88 24.9-74.040 45.26-109.24 45.26h-237.26c-35.305-0.102-63.898-28.695-64-63.99v-640.010c0.215-70.606 57.394-127.785 127.979-128h576.021c70.606 0.215 127.785 57.394 128 127.979v0.021zM128 252v516l256-260z" />
<glyph unicode="&#xeb00;" glyph-name="icon-activity" d="M576 832h-256l320-320h-290.256c-44.264 76.516-126.99 128-221.744 128h-128v-512h128c94.754 0 177.48 51.484 221.744 128h290.256l-320-320h256l448 448-448 448z" />
<glyph unicode="&#xeb01;" glyph-name="icon-activity-mode" d="M512 896c-214.8 0-398.8-132.4-474.8-320h90.8c56.8 0 108-24.8 143-64h241l-192 192h256l320-320-320-320h-256l192 192h-241c-35-39.2-86.2-64-143-64h-90.8c76-187.6 259.8-320 474.8-320 282.8 0 512 229.2 512 512s-229.2 512-512 512z" />
<glyph unicode="&#xeb02;" glyph-name="icon-autoflow-tabular" d="M192 896c-105.6 0-192-86.4-192-192v-640c0-105.6 86.4-192 192-192h64v1024h-64zM384 896h256v-1024h-256v1024zM832 896h-64v-704h256v512c0 105.6-86.4 192-192 192z" />
<glyph unicode="&#xeb03;" glyph-name="icon-clock" d="M512 896c-282.8 0-512-229.2-512-512s229.2-512 512-512 512 229.2 512 512-229.2 512-512 512zM782 206c-12.8-22.2-36.6-36-62.4-36-12.6 0-25 3.4-36 9.6l-222 128.2c-0.8 0.4-1.6 1-2.4 1.4l-0.8 0.6-1.8 1.2-2.4 2-1.8 1.4-0.6 0.6c-0.8 0.6-1.4 1.2-2.2 1.8v0c-5 4.6-9.4 10-13 15.8-0.2 0.4-0.6 1-0.8 1.4s-0.6 1-0.8 1.4c-3.2 6-5.8 12.4-7.2 19.2v0.2c-0.2 1-0.4 1.8-0.6 2.8 0 0.2 0 0.6-0.2 0.8-0.2 0.6-0.2 1.4-0.2 2.2s-0.2 1-0.2 1.6 0 1-0.2 1.6-0.2 1.6-0.2 2.2c0 0.4 0 0.6 0 1 0 1 0 1.8 0 2.8 0 0 0 0.2 0 0.4v363.8c0 39.8 32.2 72 72 72s72-32.2 72-72v-322.4l185.8-107.2c34.2-20 45.8-64 26-98.4z" />
<glyph unicode="&#xeb04;" glyph-name="icon-database" d="M1024 704c0-106.039-229.23-192-512-192s-512 85.961-512 192c0 106.039 229.23 192 512 192s512-85.961 512-192zM512 384c-282.77 0-512 85.962-512 192v-512c0-106.038 229.23-192 512-192s512 85.962 512 192v512c0-106.038-229.23-192-512-192z" />
<glyph unicode="&#xeb05;" glyph-name="icon-database-query" d="M683.52 76.714c-50.782-28.456-109.284-44.714-171.52-44.714-194.094 0-352 157.906-352 352s157.906 352 352 352 352-157.906 352-352c0-62.236-16.258-120.738-44.714-171.52l191.692-191.692c8.516 13.89 13.022 28.354 13.022 43.212v640c0 106.038-229.23 192-512 192s-512-85.962-512-192v-640c0-106.038 229.23-192 512-192 126.11 0 241.548 17.108 330.776 45.46l-159.256 159.254zM352 384c0-88.224 71.776-160 160-160s160 71.776 160 160-71.776 160-160 160-160-71.776-160-160z" />
<glyph unicode="&#xeb06;" glyph-name="icon-dataset" d="M896 704h-320c-16.4 16.4-96.8 96.8-109.2 109.2l-37.4 37.4c-25 25-74.2 45.4-109.4 45.4h-256c-35.2 0-64-28.8-64-64v-384c0 70.4 57.6 128 128 128h768c70.4 0 128-57.6 128-128v128c0 70.4-57.6 128-128 128zM896 448h-768c-70.4 0-128-57.6-128-128v-320c0-70.4 57.6-128 128-128h768c70.4 0 128 57.6 128 128v320c0 70.4-57.6 128-128 128zM320 0h-128v320h128v-320zM576 0h-128v320h128v-320zM832 0h-128v320h128v-320z" />
<glyph unicode="&#xeb07;" glyph-name="icon-datatable" d="M1024 704c0-106.039-229.23-192-512-192s-512 85.961-512 192c0 106.039 229.23 192 512 192s512-85.961 512-192zM512 384c-282.8 0-512 86-512 192v-512c0-106 229.2-192 512-192s512 86 512 192v512c0-106-229.2-192-512-192zM896 321v-256c-36.6-15.6-79.8-28.8-128-39.4v256c48.2 10.6 91.4 23.8 128 39.4zM256 281.6v-256c-48.2 10.4-91.4 23.8-128 39.4v256c36.6-15.6 79.8-28.8 128-39.4zM384 6v256c41-4 83.8-6 128-6s87 2.2 128 6v-256c-41-4-83.8-6-128-6s-87 2.2-128 6z" />
<glyph unicode="&#xeb08;" glyph-name="icon-dictionary" d="M832 256c105.6 0 192 86.4 192 192v256c0 105.6-86.4 192-192 192v-320l-128 64-128-64v320h-384c-105.6 0-192-86.4-192-192v-640c0-105.6 86.4-192 192-192h640c105.6 0 192 86.4 192 192v192c0-105.6-86.4-192-192-192h-640v192h640z" />
<glyph unicode="&#xeb09;" glyph-name="icon-folder" d="M896 704h-320c-16.4 16.4-96.8 96.8-109.2 109.2l-37.4 37.4c-25 25-74.2 45.4-109.4 45.4h-256c-35.2 0-64-28.8-64-64v-384c0 70.4 57.6 128 128 128h768c70.4 0 128-57.6 128-128v128c0 70.4-57.6 128-128 128zM896 448h-768c-70.4 0-128-57.6-128-128v-320c0-70.4 57.6-128 128-128h768c70.4 0 128 57.6 128 128v320c0 70.4-57.6 128-128 128z" />
<glyph unicode="&#xeb0a;" glyph-name="icon-image" d="M896 896h-768c-70.4 0-128-57.6-128-128v-768c0-70.4 57.6-128 128-128h768c70.4 0 128 57.6 128 128v768c0 70.4-57.6 128-128 128zM896 0h-768v768h768v-768zM320 640l-128-128v-448h640v320l-128 128-128-128z" />
<glyph unicode="&#xeb0b;" glyph-name="icon-layout" d="M448 896h-256c-105.6 0-192-86.4-192-192v-640c0-105.6 86.4-192 192-192h256v1024zM832 896h-256v-577.664h448v385.664c0 105.6-86.4 192-192 192zM576-128h256c105.6 0 192 86.4 192 192v129.664h-448v-321.664z" />
<glyph unicode="&#xeb0c;" glyph-name="icon-object" d="M512-128l512 320v384l-512.020 320-511.98-320v-384l512-320zM512 704l358.4-224-358.4-224-358.4 224 358.4 224z" />
<glyph unicode="&#xeb0d;" glyph-name="icon-object-unknown" d="M511.98 896l-511.98-320v-384l512-320 512 320v384l-512.020 320zM586.22 0h-141.36v136.64h141.36v-136.64zM721.040 398.1c-11.94-17.020-34.9-38.78-68.84-65.24l-33.48-26c-18.24-14.18-30.34-30.74-36.32-49.64-3.78-11.98-5.82-30.58-6.14-55.8h-128.12c1.88 53.26 6.92 90.060 15.080 110.4 8.18 20.34 29.22 43.74 63.16 70.22l34.42 26.94c11.3 8.52 20.42 17.8 27.34 27.9 12.56 17.34 18.86 36.4 18.86 57.2 0 23.94-7 45.78-20.98 65.48-14 19.7-39.54 29.54-76.64 29.54s-62.34-12.14-77.6-36.4c-15.24-24.28-22.88-49.48-22.88-75.64h-136.64c3.78 89.84 35.14 153.5 94.080 191.020 37.18 23.94 82.9 35.94 137.12 35.94 71.22 0 130.42-17.020 177.54-51.060s70.68-84.48 70.68-151.3c0-40.98-10.22-75.5-30.66-103.54z" />
<glyph unicode="&#xeb0e;" glyph-name="icon-packet" d="M512 896l-512-320v-512c0-105.6 86.4-192 192-192h640c105.6 0 192 86.4 192 192v512l-512 320zM512 704l358.4-224-358.4-224-358.4 224 358.4 224z" />
<glyph unicode="&#xeb0f;" glyph-name="icon-page" d="M704 384c-105.6 0-192 86.4-192 192v320h-320c-105.6 0-192-86.4-192-192v-640c0-105.6 86.4-192 192-192h640c105.6 0 192 86.4 192 192v320h-320zM768 512h256l-384 384v-256c0-70.4 57.6-128 128-128z" />
<glyph unicode="&#xeb10;" glyph-name="icon-plot-overlay" d="M830 896h-636c-106.7 0-194-87.3-194-194v-406.82c14.18-18.64 25.66-28.34 32-30.84 14.28 5.62 54.44 47.54 92.96 146 42.46 108.38 116.32 237.66 227.040 237.66 52.4 0 101.42-29.16 145.7-86.68 37.34-48.5 64.84-108.92 81.34-151.080 38.52-98.38 78.68-140.3 92.96-146 14.28 5.62 54.44 47.54 92.96 146 42.46 108.48 116.32 237.76 227.040 237.76 11.355-0.003 22.389-1.366 32.952-3.936l-0.952 0.196v57.74c0 106.7-87.3 194-194 194zM992 503.66c-14.28-5.62-54.44-47.52-92.96-146-42.46-108.38-116.32-237.66-227.040-237.66-52.4 0-101.42 29.16-145.7 86.68-37.34 48.5-64.84 108.92-81.34 151.080-38.52 98.38-78.68 140.3-92.96 146-14.28-5.62-54.44-47.52-92.96-146-42.46-108.48-116.32-237.76-227.040-237.76-11.355 0.003-22.389 1.367-32.952 3.936l0.952-0.196v-57.74c0-106.7 87.3-194 194-194h636c106.7 0 194 87.3 194 194v406.82c-14.18 18.64-25.66 28.34-32 30.84z" />
<glyph unicode="&#xeb11;" glyph-name="icon-plot-stacked" d="M89.6 584c24.98 0 48.96 26.52 85.52 70.18 45.42 54.28 102 121.82 196 121.82 44.64 0 86.62-15.46 124.8-46 28.68-22.9 51.16-50.42 72.92-77.060 38.42-46.94 59.16-68.94 83.96-68.94h371.2v118c0 106.7-87.3 194-194 194h-636c-106.7 0-194-87.3-194-194v-118h89.6zM529.5 485.6c-28.24 22.64-50.52 50-72 76.28-35.5 43.48-58.76 70.12-86.3 70.12-25.060 0-49.080-26.54-85.66-70.24-45.4-54.24-102-121.76-196-121.76h-89.54v-112h371.2c44 0 85.54-15.34 123.3-45.6 28.24-22.64 50.52-50 72-76.28 35.5-43.48 58.76-70.12 86.3-70.12 25.060 0 49.080 26.54 85.66 70.24 45.4 54.24 102 121.76 196 121.76h89.54v112h-371.2c-44.060 0-85.54 15.34-123.3 45.6zM934.4 184c-24.98 0-48.96-26.52-85.52-70.18-45.42-54.28-102-121.82-196-121.82-44.64 0-86.62 15.46-124.8 46-28.68 22.9-51.16 50.42-72.92 77.060-38.42 46.94-59.16 68.94-83.96 68.94h-371.2v-118c0-106.7 87.3-194 194-194h636c106.7 0 194 87.3 194 194v118h-89.6z" />
<glyph unicode="&#xeb12;" glyph-name="icon-session" d="M635.6 371.6c6.6-4.2 13.2-8.6 19.2-13.6l120.4-96.4c29.6-23.8 83.8-23.8 113.4 0l135.2 108c0.2 4.8 0.2 9.4 0.2 14.2 0 52.2-7.8 102.4-22.2 149.8l-154.8-123.6c-58.2-46.6-140.2-59.2-211.4-38.4zM248.6 261.8l120.4 96.4c58 46.4 140 59.2 211.2 38.4-6.6 4.2-13.2 8.6-19.2 13.6l-120.4 96.4c-29.6 23.8-83.8 23.8-113.4 0l-120.2-96.6c-40-32-91.4-48-143-48-21.6 0-43 2.8-63.8 8.4 0-0.6 0-1.2 0-1.6 5-3.4 10-6.8 14.6-10.6l120.4-96.4c29.8-23.8 83.8-23.8 113.4 0zM120.6 517.8l120.4 96.4c80.2 64.2 205.6 64.2 285.8 0l120.4-96.4c29.6-23.8 83.8-23.8 113.4 0l181 144.8c-91.2 140.4-249.6 233.4-429.6 233.4-238.6 0-439.2-163.2-496-384.2 30.8-17.6 77.8-15.6 104.6 6zM689 154l-120.4 96.4c-29.6 23.8-83.8 23.8-113.4 0l-120.2-96.4c-40-32-91.4-48-143-48-47.8 0-95.4 13.8-134.2 41.4 85.6-163.6 256.8-275.4 454.2-275.4s368.6 111.8 454.2 275.4c-80.4-57.4-199.8-55.2-277.2 6.6z" />
<glyph unicode="&#xeb13;" glyph-name="icon-tabular" d="M896 896h-768c-70.4 0-128-57.6-128-128v-768c0-70.4 57.6-128 128-128h768c70.4 0 128 57.6 128 128v768c0 70.4-57.6 128-128 128zM640 448h-256v192h256v-192zM384 384h256v-192h-256v192zM320 192h-256v192h256v-192zM320 640v-192h-256v192h256zM128-64c-17 0-33 6.6-45.2 18.8s-18.8 28.2-18.8 45.2v128h256v-192h-192zM384-64v192h256v-192h-256zM960 0c0-17-6.6-33-18.8-45.2s-28.2-18.8-45.2-18.8h-192v192h256v-128zM960 192h-256v192h256v-192zM960 448h-256v192h256v-192z" />
<glyph unicode="&#xeb14;" glyph-name="icon-tabular-lad" d="M896 896h-768c-70.6-0.2-127.8-57.4-128-128v-768c0.2-70.6 57.4-127.8 128-128h768c70.6 0.2 127.8 57.4 128 128v768c-0.2 70.6-57.4 127.8-128 128zM64 640h256v-192h-256v192zM64 384h256v-192h-256v192zM128-64c-35.2 0.2-63.8 28.8-64 64v128h256v-192h-192zM384-64v192h256v-192h-256zM960 0c-0.2-35.2-28.8-63.8-64-64h-192v192h256v-128zM960 384v-192h-576v192h64v64h-64v192h576v-192h-64v-64h64zM782.4 348.6l-110.4 55.2v172.2c0 17.6-14.4 32-32 32s-32-14.4-32-32v-211.8l145.6-72.8c15.8-8 35-1.6 43 14.4 8 15.6 1.6 35-14.2 42.8v0z" />
<glyph unicode="&#xeb15;" glyph-name="icon-tabular-lad-set" d="M128 128v576c-70.6-0.2-127.8-57.4-128-128v-576c0.2-70.6 57.4-127.8 128-128h576c70.6 0.2 127.8 57.4 128 128h-576c-70.6 0.2-127.8 57.4-128 128zM896 896h-576c-70.6-0.2-127.8-57.4-128-128v-576c0.2-70.6 57.4-127.8 128-128h576c70.6 0.2 127.8 57.4 128 128v576c-0.2 70.6-57.4 127.8-128 128zM256 704h192v-128h-192v128zM256 512h192v-192h-192v192zM320 128c-35.2 0.2-63.8 28.8-64 64v64h192v-128h-128zM512 128v128h192v-128h-192zM960 192c-0.2-35.2-28.8-63.8-64-64h-128v128h192v-64zM960 320h-448v384h448v-384zM832 416c17.6 0 32 14.4 32 32 0 13.8-8.8 26-21.8 30.4l-74.2 24.6v105c0 17.6-14.4 32-32 32s-32-14.4-32-32v-151l117.8-39.2c3.4-1.2 6.8-1.8 10.2-1.8z" />
<glyph unicode="&#xeb16;" glyph-name="icon-tabular-realtime" d="M896 896h-768c-70.606-0.215-127.785-57.394-128-127.979v-768.021c0.215-70.606 57.394-127.785 127.979-128h768.021c70.606 0.215 127.785 57.394 128 127.979v768.021c-0.215 70.606-57.394 127.785-127.979 128h-0.021zM448 604l25.060-25.32c7.916-7.922 18.856-12.822 30.94-12.822s23.023 4.9 30.94 12.822v0l75.5 76.3c29.97 30.338 71.571 49.128 117.56 49.128s87.59-18.79 117.544-49.112l0.016-0.016 50.44-50.98v-152.2c-24.111 8.83-44.678 22.255-61.542 39.342l-0.018 0.018-75.5 76.3c-7.916 7.922-18.856 12.822-30.94 12.822s-23.023-4.9-30.94-12.822v0l-75.5-76.3c-29.971-30.343-71.575-49.137-117.568-49.137-20.084 0-39.331 3.584-57.137 10.146l1.145-0.369v152.2zM320-64h-192c-35.26 0.214-63.786 28.74-64 63.98v128.020h256v-192zM320 192h-256v192h256v-192zM320 448h-256v192h256v-192zM640-64h-256v192h256v-192zM448 259.38v174.5c1.88-1.74 3.74-3.5 5.56-5.34l75.5-76.3c7.916-7.922 18.856-12.822 30.94-12.822s23.023 4.9 30.94 12.822v0l75.5 76.3c29.966 30.333 71.56 49.119 117.542 49.119 43.28 0 82.673-16.643 112.128-43.879l-0.11 0.1v-174.5c-1.88 1.74-3.74 3.5-5.56 5.34l-75.5 76.3c-7.916 7.922-18.856 12.822-30.94 12.822s-23.023-4.9-30.94-12.822v0l-75.5-76.3c-29.966-30.333-71.56-49.119-117.542-49.119-43.28 0-82.673 16.643-112.128 43.879l0.11-0.1zM960 0c-0.214-35.26-28.74-63.786-63.98-64h-192.020v192h256v-128z" />
<glyph unicode="&#xeb17;" glyph-name="icon-tabular-scrolling" d="M896 896h-768c-70.606-0.215-127.785-57.394-128-127.979v-768.021c0.215-70.606 57.394-127.785 127.979-128h768.021c70.606 0.215 127.785 57.394 128 127.979v768.021c-0.215 70.606-57.394 127.785-127.979 128h-0.021zM768 640v-192h-192v192zM576 384h192v-192h-192zM512 192h-192v192h192zM512 640v-192h-192v192zM64 640h192v-192h-192zM64 384h192v-192h-192zM128-64c-35.255 0.225-63.775 28.745-64 63.978v128.022h192v-192zM320-64v192h192v-192zM704-64h-128v192h192v-192zM941.14-45.14c-11.511-11.644-27.483-18.856-45.139-18.86h-64.001v64h128c-0.004-17.657-7.216-33.629-18.854-45.134l-0.006-0.006zM960 128h-128v512h128z" />
<glyph unicode="&#xeb18;" glyph-name="icon-telemetry" d="M32 264.34c14.28 5.62 54.44 47.54 92.96 146 42.46 108.38 116.32 237.66 227.040 237.66 52.4 0 101.42-29.16 145.7-86.68 37.34-48.5 64.84-108.92 81.34-151.080 38.52-98.38 78.68-140.3 92.96-146 14.28 5.62 54.44 47.54 92.96 146 37.4 95.5 99.14 207.14 188.94 232.46-90.462 152.598-254.314 253.3-441.686 253.3-0.075 0-0.15 0-0.225 0h0.011c-282.76 0-512-229.24-512-512 0-0.032 0-0.070 0-0.108 0-35.719 3.641-70.587 10.572-104.254l-0.572 3.323c9.54-10.78 17.22-16.74 22-18.62zM992 503.66c-14.28-5.62-54.44-47.52-92.96-146-42.46-108.38-116.32-237.66-227.040-237.66-52.4 0-101.42 29.16-145.7 86.68-37.34 48.5-64.84 108.92-81.34 151.080-38.52 98.38-78.68 140.3-92.96 146-14.28-5.62-54.44-47.52-92.96-146-37.4-95.5-99.14-207.14-188.94-232.46 90.462-152.598 254.314-253.3 441.686-253.3 0.075 0 0.15 0 0.225 0h-0.011c282.76 0 512 229.24 512 512 0 0.032 0 0.070 0 0.108 0 35.719-3.641 70.587-10.572 104.254l0.572-3.323c-9.54 10.78-17.22 16.74-22 18.62z" />
<glyph unicode="&#xeb19;" glyph-name="icon-timeline" d="M832 896h-640c-105.6 0-192-86.4-192-192v-640c0-105.6 86.4-192 192-192h640c105.6 0 192 86.4 192 192v640c0 105.6-86.4 192-192 192zM128 576v128h256v-128zM256 448h384v-128h-384zM896 64h-448v128h448zM896 320h-128v128h128zM896 576h-384v128h384z" />
<glyph unicode="&#xeb1a;" glyph-name="icon-timer" d="M640 749.4v82.58c0 35.346-28.654 64-64 64v0h-128c-35.346 0-64-28.654-64-64v0-82.58c-185.040-55.080-320-226.48-320-429.42 0-247.42 200.58-448 448-448s448 200.58 448 448c0 202.96-135 374.4-320 429.42zM532 299.98l-263.76-211c-57.105 59.935-92.24 141.25-92.24 230.772 0 0.080 0 0.16 0 0.24v-0.012c0 185.28 150.72 336 336 336 6.72 0 13.38-0.22 20-0.62v-355.38z" />
<glyph unicode="&#xeb1b;" glyph-name="icon-topic" d="M454.36 419.36l86.3 86.3c9.088 8.965 21.577 14.502 35.36 14.502s26.272-5.537 35.366-14.507l86.294-86.294c19.328-19.358 42.832-34.541 69.047-44.082l1.313-0.418v172.14l-57.64 57.64c-34.408 34.33-81.9 55.558-134.35 55.558s-99.943-21.228-134.354-55.562l-86.296-86.296c-9.088-8.965-21.577-14.502-35.36-14.502s-26.272 5.537-35.366 14.507l-28.674 28.654v-172.14c19.045-7.022 41.040-11.084 63.984-11.084 52.463 0 99.966 21.239 134.379 55.587l-0.003-0.003zM505.64 348.64l-86.3-86.3c-9.088-8.965-21.577-14.502-35.36-14.502s-26.272 5.537-35.366 14.507l-86.294 86.294c-2 2-4.2 4-6.36 6v-197.36c33.664-30.721 78.65-49.537 128.031-49.537 52.44 0 99.923 21.22 134.333 55.541l86.296 86.296c9.088 8.965 21.577 14.502 35.36 14.502s26.272-5.537 35.366-14.507l86.294-86.294c2-2 4.2-4 6.36-6v197.36c-33.664 30.721-78.65 49.537-128.031 49.537-52.44 0-99.923-21.22-134.333-55.541l0.004 0.004zM832 896h-128v-192h127.66l0.34-0.34v-639.32l-0.34-0.34h-127.66v-192h128c105.6 0 192 86.4 192 192v640c0 105.6-86.4 192-192 192zM320 64h-127.66l-0.34 0.34v639.32l0.34 0.34h127.66v192h-128c-105.6 0-192-86.4-192-192v-640c0-105.6 86.4-192 192-192h128v192z" />
<glyph unicode="&#xeb1c;" glyph-name="icon-box-with-dashed-lines-v2" d="M0 512h128v-256h-128v256zM128 767.78l0.22 0.22h191.78v128h-192c-70.606-0.215-127.785-57.394-128-127.979v-192.021h128v191.78zM128 0.22v191.78h-128v-192c0.215-70.606 57.394-127.785 127.979-128h192.021v128h-191.78zM384 896h256v-128h-256v128zM896 0.22l-0.22-0.22h-191.78v-128h192c70.606 0.215 127.785 57.394 128 127.979v192.021h-128v-191.78zM896 896h-192v-128h191.78l0.22-0.22v-191.78h128v192c-0.215 70.606-57.394 127.785-127.979 128h-0.021zM896 512h128v-256h-128v256zM384 0h256v-128h-256v128zM256 640h512v-512h-512v512z" />
<glyph unicode="&#xeb1d;" glyph-name="icon-summary-widget" d="M896 896h-768c-70.4 0-128-57.6-128-128v-768c0-70.4 57.6-128 128-128h768c70.4 0 128 57.6 128 128v768c0 70.4-57.6 128-128 128zM847.8 285.6l-82.6-143.2-189.6 131.6 19.2-230h-165.4l19.2 230-189.6-131.6-82.6 143.2 208.6 98.4-208.8 98.4 82.6 143.2 189.6-131.6-19.2 230h165.4l-19.2-230 189.6 131.6 82.6-143.2-208.6-98.4 208.8-98.4z" />
<glyph unicode="&#xeb1e;" glyph-name="icon-notebook" d="M896 785.2c0 79.8-55.4 127.4-123 105.4l-773-250.6h896v145.2zM896 576h-896v-576c0-70.4 57.6-128 128-128h768c70.4 0 128 57.6 128 128v448c0 70.4-57.6 128-128 128zM832 64h-384v320h384v-320z" />
<glyph unicode="&#xeb1f;" glyph-name="icon-tabs-view" d="M0 0c0.227-70.601 57.399-127.773 127.978-128h768.022c70.601 0.227 127.773 57.399 128 127.978v608.022h-512l-50.2 225.6c-7.6 34.2-42.6 62.4-77.8 62.4h-256c-70.601-0.227-127.773-57.399-128-127.978v-0.022zM832 128h-640v256h640zM480 896c35.2 0 70.2-28.2 77.8-62.4l36-161.6h430.2v96c-0.227 70.601-57.399 127.773-127.978 128h-0.022z" />
<glyph unicode="&#xeb20;" glyph-name="icon-flexible-layout" d="M0 64c0-105.6 86.4-192 192-192h64v576h-256zM0 704v-128h256v320h-64c-105.6 0-192-86.4-192-192zM768-128h64c105.6 0 192 86.4 192 192v128h-256zM384 896h256v-1024h-256v1024zM832 896h-64v-576h256v384c0 105.6-86.4 192-192 192z" />
<glyph unicode="&#xeb21;" glyph-name="icon-generator-sine" d="M152 422.2c10.8 4.2 40.8 35.6 69.8 109.4 31.8 81.4 87.2 178.4 170.2 178.4 39.4 0 76-21.8 109.2-65 28-36.4 48.8-81.6 61-113.4 29-73.8 59-105.2 69.8-109.4 10.8 4.2 40.8 35.6 69.8 109.4s74.2 155.4 141.6 174.4c-67.89 114.467-190.82 190-331.391 190-0.003 0-0.007 0-0.010 0h0.001c-212 0-384-172-384-384 0.017-26.829 2.71-53.018 7.827-78.329l-0.427 2.529c7.2-8 13-12.6 16.6-14zM884.6 419c7.235 27.919 11.392 59.972 11.4 92.995v0.005c-0.017 26.829-2.71 53.018-7.827 78.329l0.427-2.529c-7.2 8-13 12.6-16.6 14-10.8-4.2-40.8-35.6-69.8-109.4-21.8-55.8-54.6-119-100-153.2zM512 256l135 59c-4.485-0.614-9.689-0.977-14.972-1h-0.028c-39.4 0-76 21.8-109.2 65-28 36.4-48.8 81.6-61 113.4-29 73.8-59 105.2-69.8 109.4-10.8-4.2-40.8-35.6-69.8-109.4-16.4-42.2-39.2-88.4-68.8-123.2zM1024 416l-512-224-512 224v-320l512-224 512 224v320z" />
<glyph unicode="&#xeb22;" glyph-name="icon-generator-event" d="M320 704h384v-64h-384v64zM320 448h384v-64h-384v64zM320 576h320v-64h-320v64zM256 767.8h512v-399.8l128 56v344c-0.227 70.601-57.399 127.773-127.978 128h-512.022c-70.601-0.227-127.773-57.399-128-127.978v-344.022l128-56zM658.2 320h-292.4l146.2-64 146.2 64zM512 192l-512 224v-320l512-224 512 224v320l-512-224z" />
<glyph unicode="&#xeb23;" glyph-name="icon-gauge-v2" d="M512 896c-282.8 0-512-229.2-512-512 0-226.4 147-418.4 350.6-486l257.4 486v-503c236.8 45 416 253 416 503 0 282.8-229.2 512-512 512zM754.8 368.2c-58.967 68.597-145.842 111.772-242.8 111.772s-183.833-43.176-242.445-111.35l-0.355-0.422-146 125c8.6 10 17.4 19.6 26.8 28.8 92.628 92.679 220.619 150.006 362 150.006s269.372-57.326 361.997-150.003l0.003-0.003c9.4-9.2 18.2-18.8 26.8-28.8z" />
<glyph unicode="&#xeb24;" glyph-name="icon-spectra" d="M768 192h-512l102.4 179.2-358.4-51.2v-254c0-106.6 87.4-194 194-194h636c106.8 0 194 87.4 194 194v62l-325.8 186.2zM830 896h-636c-106.6 0-194-87.2-194-194v-318l400 60.2 112 195.8 109.8-192h402.2v254c-0.227 107.052-86.948 193.773-193.978 194h-0.022zM1024 256v64l-384 64 384-128z" />
<glyph unicode="&#xeb25;" glyph-name="icon-telemetry-spectra" d="M512 640l109.8-192h398.2c-31.4 252.6-247 448-508 448-282.8 0-512-229.2-512-512l400 60.2zM768 192h-512l102.4 179.2-354.4-50.6c31.2-252.8 246.8-448.6 508-448.6 201.6 0 376 116.6 459.6 286l-273.4 156.2zM640 384l384-128v64l-384 64z" />
<glyph unicode="&#xeb26;" glyph-name="icon-pushbutton" d="M370.2 436.6c9.326-8.53 19.666-16.261 30.729-22.914l0.871-0.486c-11.077 19.209-17.664 42.221-17.8 66.76v0.040c0 39.6 17.8 77.6 50.2 107.4 37 34 87.4 52.6 141.8 52.6 40.2 0 78.2-10.2 110.2-29.2-8.918 15.653-19.693 29.040-32.268 40.482l-0.132 0.118c-37 34-87.4 52.6-141.8 52.6s-104.8-18.6-141.8-52.6c-32.4-29.8-50.2-67.8-50.2-107.4s17.8-77.6 50.2-107.4zM885.4 626.4c-40.6 154.6-192.4 269.6-373.4 269.6s-332.8-115-373.4-269.6c-86-80-138.6-187.8-138.6-306.4 0-247.4 229.2-448 512-448s512 200.6 512 448c0 118.6-52.6 226.4-138.6 306.4zM512 768c141.2 0 256-100.4 256-224s-114.8-224-256-224-256 100.4-256 224 114.8 224 256 224zM512 64c-175.4 0-318.4 127.8-320 285.4 68.8-94.8 186.4-157.4 320-157.4s251.2 62.6 320 157.4c-1.6-157.6-144.6-285.4-320-285.4z" />
<glyph unicode="&#xeb27;" glyph-name="icon-conditional" d="M512 896c-282.76 0-512-229.24-512-512s229.24-512 512-512 512 229.24 512 512-229.24 512-512 512zM512 128l-384 256 384 256 384-256z" />
<glyph unicode="&#xeb28;" glyph-name="icon-condition-widget" d="M832 896h-640c-105.6 0-192-86.4-192-192v-640c0-105.6 86.4-192 192-192h640c105.6 0 192 86.4 192 192v640c0 105.6-86.4 192-192 192zM512 128l-384 256 384 256 384-256z" />
<glyph unicode="&#xeb29;" glyph-name="icon-alphanumeric" d="M535.6 365.4c-8.4-1.6-17.2-3-26.2-4s-18.2-2.4-27.2-4c-10.196-1.861-18.808-4.010-27.21-6.633l1.61 0.433c-8.609-2.674-16.105-6.348-22.89-10.987l0.29 0.187c-6.693-4.517-12.283-10.107-16.663-16.585l-0.137-0.215c-4.6-6.8-7.4-15.6-8.8-26s-0.4-18.4 2.4-25.2c2.746-6.688 7.224-12.195 12.881-16.122l0.119-0.078c5.967-4.053 13.057-6.94 20.704-8.161l0.296-0.039c7.592-1.527 16.319-2.4 25.25-2.4 0.123 0 0.246 0 0.369 0h-0.019c22.2 0 39.6 3.6 52.6 11s23.2 16.2 30.2 26.4c6.273 8.873 11.271 19.191 14.426 30.285l0.174 0.715c1.853 6.809 3.601 15.41 4.855 24.169l0.145 1.231 5.2 41.6c-5.4-4.217-11.723-7.564-18.583-9.689l-0.417-0.111c-6.489-2.241-14.362-4.255-22.444-5.662l-0.956-0.138zM1024 512v192h-152l24 192h-192l-24-192h-256l24 192h-192l-24-192h-232v-192h208l-32-256h-176v-192h152l-24-192h192l24 192h256l-24-192h192l24 192h232v192h-208l32 256zM702.8 484.2l-26.4-211.8c-2.231-15.809-3.537-34.122-3.6-52.727v-0.073c0-16.8 2.2-29.4 6.4-37.8h-113.4c-1.342 5.556-2.338 12.122-2.781 18.84l-0.019 0.36c-0.261 3.524-0.409 7.634-0.409 11.778 0 2.962 0.076 5.907 0.226 8.832l-0.017-0.41c-18.663-17.401-41.395-30.694-66.597-38.289l-1.203-0.311c-22.627-6.956-48.639-10.974-75.586-11h-0.014c-0.764-0.011-1.666-0.018-2.569-0.018-18.098 0-35.598 2.563-52.156 7.345l1.325-0.328c-15.991 4.512-29.851 12.090-41.545 22.122l0.145-0.122c-11.233 9.982-19.792 22.733-24.624 37.192l-0.176 0.608c-5.2 15.2-6.4 33.4-3.8 54.4s9.4 42.2 19.4 57.2c9.524 14.399 21.535 26.346 35.532 35.512l0.468 0.288c13.387 8.662 28.922 15.533 45.512 19.765l1.088 0.235c13.436 3.792 30.801 7.554 48.47 10.41l2.93 0.39c17 2.6 33.8 4.6 50.4 6.2 16.628 1.527 31.69 4.070 46.349 7.643l-2.149-0.443c13 3 23.6 7.6 31.6 13.6s12.6 15 13.6 26.4 0.8 21.8-2.4 28.8c-2.849 6.902-7.542 12.56-13.468 16.517l-0.132 0.083c-6.217 4.011-13.604 6.78-21.543 7.774l-0.257 0.026c-7.897 1.277-17 2.007-26.274 2.007-0.537 0-1.073-0.002-1.609-0.007l0.082 0.001c-22 0-40-4.6-53.8-14.2s-23-25.2-28-47.2h-111.8c4.8 26.2 14.2 48 27.8 65.4 13.475 16.978 29.89 30.968 48.574 41.377l0.826 0.423c18.192 10.038 39.297 17.806 61.619 22.175l1.381 0.225c20.488 4.162 44.053 6.563 68.171 6.6h0.029c21.8-0.005 43.239-1.532 64.222-4.479l-2.422 0.279c20.641-2.809 39.324-8.783 56.401-17.461l-1.001 0.461c15.909-8.108 28.858-20.031 37.967-34.601l0.233-0.399c9-15 12.2-34.8 9-59.6z" />
<glyph unicode="&#xeb2a;" glyph-name="icon-image-telemetry" d="M512 896c-282.8 0-512-229.2-512-512s229.2-512 512-512 512 229.2 512 512-229.2 512-512 512zM783.6 112.4c-69.581-69.675-165.757-112.776-272-112.776-212.298 0-384.4 172.102-384.4 384.4s172.102 384.4 384.4 384.4c212.298 0 384.4-172.102 384.4-384.4 0-0.008 0-0.017 0-0.025v0.001c0.001-0.264 0.001-0.575 0.001-0.887 0-105.769-42.964-201.503-112.391-270.703l-0.010-0.010zM704 512l-128-128-192 192-192-192c0-176.731 143.269-320 320-320s320 143.269 320 320v0z" />
<glyph unicode="&#xeb2b;" glyph-name="icon-telemetry-aggregate" d="M78 500.56c14 41.44 37.48 100.8 69.2 148.36 38.62 57.78 82.38 87.080 130.14 87.080s91.5-29.3 130-87.080c31.72-47.56 55.14-106.92 69.2-148.36 30.88-90.96 63.12-134.98 78-146.54 14.94 11.56 47.2 55.58 78 146.54 14 41.44 37.48 100.8 69.22 148.36q27.8 41.7 59.12 63.5c-75.7 111.377-201.81 183.58-344.783 183.58-0.034 0-0.068 0-0.103 0h0.006c-229.76 0-416-186.24-416-416 0-0.071 0-0.156 0-0.24 0-39.119 5.396-76.977 15.484-112.871l-0.704 2.931c16.78 21.74 40.4 63.34 63.22 130.74zM754 459.44c-14-41.44-37.48-100.8-69.2-148.36-38.56-57.78-82.32-87.080-130-87.080s-91.5 29.3-130 87.080c-31.72 47.56-55.14 106.92-69.2 148.36-30.88 90.96-63.14 134.98-78 146.54-14.94-11.56-47.2-55.58-78-146.54-14.38-41.44-37.8-100.8-69.6-148.36q-27.8-41.7-59.12-63.5c75.7-111.378 201.81-183.58 344.783-183.58 0.119 0 0.237 0 0.356 0h-0.019c229.76 0 416 186.24 416 416 0 0.071 0 0.156 0 0.24 0 39.119-5.396 76.977-15.484 112.871l0.704-2.931c-16.78-21.74-40.4-63.34-63.22-130.74zM921.56 561.38c4.098-24.449 6.44-52.617 6.44-81.332 0-0.017 0-0.034 0-0.051v0.003c0-0.095 0-0.208 0-0.32 0-282.593-229.087-511.68-511.68-511.68-0.113 0-0.225 0-0.338 0h0.018c-0.014 0-0.031 0-0.048 0-28.716 0-56.884 2.342-84.325 6.845l2.993-0.405c72.483-63.623 168.109-102.44 272.802-102.44 0.203 0 0.406 0 0.61 0h-0.031c229.76 0 416 186.24 416 416 0 0.172 0 0.375 0 0.578 0 104.692-38.817 200.319-102.844 273.271l0.404-0.47z" />
<glyph unicode="&#xeb2c;" glyph-name="icon-bar-graph" d="M832 896h-640c-105.6 0-192-86.4-192-192v-640c0-105.6 86.4-192 192-192h640c105.6 0 192 86.4 192 192v640c0 105.6-86.4 192-192 192zM267.64 0h-139.64v448h139.64zM477.1 0h-139.64v768h139.64zM686.54 0h-139.64v320h139.64zM896 0h-139.64v640h139.64z" />
<glyph unicode="&#xeb2d;" glyph-name="icon-map" d="M896 830.6l-128-62.6v-896l128 62.6c70.4 34.42 128 120.2 128 190.6v640c0 70.4-57.6 99.82-128 65.4zM320-16l387.2-96.8v896l-387.2 96.8v-896zM259.2 895.2l-3.2 0.8-128-62.6c-70.4-34.42-128-120.2-128-190.6v-640c0-70.4 57.6-99.82 128-65.4l128 62.6 3.2-0.8z" />
<glyph unicode="&#xeb2e;" glyph-name="icon-plan" d="M256 704v64c0.215 70.606 57.394 127.785 127.979 128h256.021c70.606-0.215 127.785-57.394 128-127.979v-64.021zM832 768v-128h-640v128c-105.6 0-192-86.4-192-192v-512c0-105.6 86.4-192 192-192h640c105.6 0 192 86.4 192 192v512c0 105.6-86.4 192-192 192zM128 320v128h256v-128zM640 64h-384v128h384zM896 64h-128v128h128zM896 320h-384v128h384z" />
<glyph unicode="&#xeb2f;" glyph-name="icon-timelist" d="M896 896h-768c-70.606-0.215-127.785-57.394-128-127.979v-768.021c0.215-70.606 57.394-127.785 127.979-128h768.021c70.606 0.215 127.785 57.394 128 127.979v768.021c-0.215 70.606-57.394 127.785-127.979 128h-0.021zM426.94 362.54c-8.054-15.864-24.249-26.545-42.938-26.545-7.823 0-15.209 1.871-21.734 5.191l0.273-0.126-154.54 77.28v221.66c0 26.51 21.49 48 48 48s48-21.49 48-48v0-162.34l101.46-50.72c15.864-8.054 26.545-24.249 26.545-42.938 0-7.823-1.871-15.209-5.191-21.734l0.126 0.273zM896 0h-320v128h320zM896 192h-320v128h320zM896 384h-320v128h320zM896 576h-320v128h320z" />
<glyph unicode="&#xeb30;" glyph-name="icon-plot-scatter" d="M192 896c-105.6 0-192-86.4-192-192v-640c0-105.6 86.4-192 192-192h640c105.6 0 192 86.4 192 192v640c0 105.6-86.4 192-192 192zM128 544c0 53.019 42.981 96 96 96s96-42.981 96-96c0-53.019-42.981-96-96-96v0c-53.019 0-96 42.981-96 96v0zM288 64c-53.019 0-96 42.981-96 96s42.981 96 96 96c53.019 0 96-42.981 96-96v0c0-53.019-42.981-96-96-96v0zM544 256c-53.019 0-96 42.981-96 96s42.981 96 96 96c53.019 0 96-42.981 96-96v0c0-53.019-42.981-96-96-96v0zM544 576c-53.019 0-96 42.981-96 96s42.981 96 96 96c53.019 0 96-42.981 96-96v0c0-53.019-42.981-96-96-96v0zM800 64c-53.019 0-96 42.981-96 96s42.981 96 96 96c53.019 0 96-42.981 96-96v0c0-53.019-42.981-96-96-96v0z" />
<glyph unicode="&#xeb31;" glyph-name="icon-notebook-restricted" d="M896 785.28c0 79.9-55.38 127.32-123.080 105.36l-772.92-250.64h896v145.28zM896 576h-896v-576c0-70.4 57.6-128 128-128h768c70.4 0 128 57.6 128 128v448c0 70.4-57.6 128-128 128zM256 64h-128v128h128v-128zM256 256h-128v128h128v-128zM896 64h-512v128h512v-128zM896 256h-512v128h512v-128z" />
</font>
</defs>
</svg>
