<svg xmlns="http://www.w3.org/2000/svg" width="200" height="100" viewBox="0 0 200 100">
  <defs>
    <linearGradient id="plugin-icon-persistence-white-a" x1="50%" x2="50%" y1="0%" y2="100%">
      <stop offset="0%" stop-color="#FFF" stop-opacity="0"/>
      <stop offset="100%" stop-opacity=".188"/>
    </linearGradient>
  </defs>
  <g fill="none" fill-rule="evenodd">
    <rect width="200" height="100" fill="#0199F9"/>
    <rect width="200" height="100" x="1" fill="url(#plugin-icon-persistence-white-a)" fill-rule="nonzero"/>
    <g fill="#FFF" fill-rule="nonzero" transform="translate(65 13)">
      <ellipse cx="30.66" cy="12.702" rx="30.66" ry="12.702"/>
      <path d="M61.3204509,37.4436599 L39.828234,37.4436599 C37.1003757,37.4436599 34.8684917,39.5865065 34.8684917,42.2055411 L34.8684917,64.7061873 C33.4927299,64.7841788 32.0878728,64.8244767 30.6602254,64.8244767 C13.727038,64.8244767 0,59.1553387 0,52.1622017 L0,18.3961353 C0,25.3892723 13.727038,31.0584102 30.6602254,31.0584102 C47.5934128,31.0584102 61.3204509,25.3892723 61.3204509,18.3961353 L61.3204509,37.4436599 Z"/>
      <g transform="translate(39.42 41.172)">
        <path d="M7.01352657,18.3961353 C7.00805153,18.3961353 7.00805153,18.3961353 7.01352657,18.3961353 L7.00805153,31.5362319 L24.5281804,31.5362319 L24.5281804,18.4020014 C24.5281804,18.4020014 24.5281804,18.4020014 24.5227053,18.3961353 L7.01352657,18.3961353 Z"/>
        <path d="M30.1442029,6.31169485 L25.0503623,1.35934984 C24.2804348,0.610809179 22.7652174,0 21.6811594,0 L17.7391304,0 L13.7971014,0 L3.94202899,0 C1.77391304,0 0,1.72463768 0,3.83252818 L0,26.8276973 C0,28.9355878 1.77391304,30.6602254 3.94202899,30.6602254 L3.94202899,17.2463768 C3.94202899,16.1924316 4.82898551,15.3301127 5.91304348,15.3301127 L25.6231884,15.3301127 C26.7072464,15.3301127 27.5942029,16.1924316 27.5942029,17.2463768 L27.5942029,30.6602254 C29.7623188,30.6602254 31.5362319,28.9355878 31.5362319,26.8276973 L31.5362319,9.58132045 C31.5362319,8.5273752 30.907971,7.05424718 30.1442029,6.31169485 Z M21.6811594,7.66505636 C21.6811594,8.71900161 20.7942029,9.58132045 19.7101449,9.58132045 L5.91304348,9.58132045 C4.82898551,9.58132045 3.94202899,8.71900161 3.94202899,7.66505636 L3.94202899,1.91626409 L13.7971014,1.91626409 L13.7971014,7.66505636 L17.7391304,7.66505636 L17.7391304,1.91626409 L21.6811594,1.91626409 L21.6811594,7.66505636 Z"/>
      </g>
    </g>
  </g>
</svg>
