<svg xmlns="http://www.w3.org/2000/svg" width="200" height="100" viewBox="0 0 200 100">
  <defs>
    <linearGradient id="plugin-icon-theme-white-a" x1="50%" x2="50%" y1="0%" y2="100%">
      <stop offset="0%" stop-color="#FFF" stop-opacity="0"/>
      <stop offset="100%" stop-opacity=".188"/>
    </linearGradient>
  </defs>
  <g fill="none" fill-rule="evenodd">
    <rect width="200" height="100" fill="#0199F9"/>
    <rect width="200" height="100" y="1" fill="url(#plugin-icon-theme-white-a)" fill-rule="nonzero"/>
    <g fill="#FFF" transform="translate(64 15)">
      <path d="M16.7142383,39.1806735 C15.3707095,39.8055447 14.2605056,40.983768 13.8344087,42.7024677 C13.1813614,45.3365918 12.8555006,46.9672105 12.8531695,48.2820678 C12.8530741,48.3353597 12.8530741,48.3353597 12.8530829,48.3945402 C12.8531157,48.4169621 12.8531157,48.4169621 12.8531884,48.4400813 C12.8545289,48.8090701 12.8633987,49.0199654 12.9159398,49.3087932 C12.9557926,49.5278713 13.013827,49.7385764 13.1261134,49.9844447 C13.4687605,50.7347227 14.0727239,51.3699097 15.1879326,51.5214155 C16.2875312,51.6708006 17.0415232,51.2329217 17.5685441,50.6102408 C17.6073283,50.5880643 17.6519187,50.5631856 17.7017156,50.5361301 C18.0186373,50.363941 18.3795599,50.1875087 19.1856805,49.8055909 C20.4675776,49.1982906 20.9341403,48.965973 21.4445464,48.6491961 C22.675656,47.8851239 23.4909146,46.8319419 23.914594,45.6925302 C24.66377,45.4457436 25.3556949,44.9940719 25.8999753,44.3454238 L33.490236,35.2997034 C33.6632544,35.093508 33.8140799,34.8760762 33.9429664,34.6503114 C35.2166565,34.2157373 36.4873812,33.3357483 37.7229161,32.0883549 C39.548864,30.2448818 40.5223523,28.8817989 44.6979466,22.6604974 C45.3857379,21.6357433 45.9087126,20.863783 46.4315576,20.104887 C46.7978491,19.5732245 47.1665888,19.0424666 47.5505802,18.49403 C60.7603383,16.695625 72.9862318,32.6335046 71.1140373,46.1750992 C69.6941763,56.444963 55.211318,66.5250144 48.1712855,69.3693722 C30.9630918,76.3219337 10.8237847,64.8281534 3.53641445,46.7912792 C-3.75095578,28.7544049 4.29146066,8.49646459 21.4996543,1.54390304 C34.2991313,-3.62742134 26.7531096,14.3356803 32.1753472,19.787008 C29.8614943,22.0946196 29.1030376,22.9943778 28.1026912,24.4370899 C27.4495543,25.3790521 26.964615,26.3097828 26.667583,27.2151695 C26.1222093,27.4771592 25.6225026,27.8567095 25.2083015,28.3503352 L17.6180408,37.3960556 C17.1683218,37.9320099 16.8685413,38.5438795 16.7142383,39.1806735 Z M17.2029528,19.6022568 C19.6114112,20.8828569 23.1304872,18.9745769 25.0630291,15.3399942 C26.995571,11.7054116 26.6097645,7.72086869 24.2013061,6.44026864 C21.7928477,5.15966859 18.2737716,7.06794856 16.3412297,10.7025312 C14.4086878,14.3371139 14.7944944,18.3216568 17.2029528,19.6022568 Z M53.9140802,35.3399984 C57.0754849,34.062708 58.6660341,30.6207928 57.4666713,27.6522657 C56.2673085,24.6837387 52.732208,23.3127204 49.5708033,24.5900109 C46.4093986,25.8673013 44.8188494,29.3092164 46.0182122,32.2777435 C47.217575,35.2462706 50.7526755,36.6172888 53.9140802,35.3399984 Z M60.9943357,50.818824 C64.1557405,49.5415336 65.7462897,46.0996184 64.5469269,43.1310913 C63.3475641,40.1625642 59.8124636,38.791546 56.6510589,40.0688364 C53.4896542,41.3461269 51.8991049,44.788042 53.0984677,47.7565691 C54.2978305,50.7250962 57.832931,52.0961144 60.9943357,50.818824 Z M46.3912312,64.3255221 C49.5526359,63.0482317 51.1431851,59.6063166 49.9438223,56.6377895 C48.7444595,53.6692624 45.209359,52.2982442 42.0479543,53.5755346 C38.8865496,54.852825 37.2960003,58.2947401 38.4953631,61.2632672 C39.6947259,64.2317943 43.2298265,65.6028125 46.3912312,64.3255221 Z M27.6284821,62.2334581 C30.7898868,60.9561677 32.380436,57.5142526 31.1810732,54.5457255 C29.9817104,51.5771984 26.4466099,50.2061802 23.2852052,51.4834706 C20.1238005,52.760761 18.5332513,56.2026761 19.7326141,59.1712032 C20.9319768,62.1397303 24.4670774,63.5107485 27.6284821,62.2334581 Z"/>
      <path d="M35.4292581,47.3813582 C36.4091117,47.964308 37.1994112,49.2322222 36.6238863,50.9852966 C36.1946098,52.2928916 34.6185929,55.1546637 34.7710993,55.702714 C34.8475194,55.977339 34.5616606,55.6354366 34.3301241,55.3585065 C33.5431759,54.4172742 32.5197401,52.3733731 31.840447,50.9852966 C31.0428201,49.355415 32.0276078,47.9554053 33.127924,47.3471517 C32.2492131,47.1363919 31.5961081,46.3455919 31.5961081,45.402251 L31.5961081,34.0817066 C31.5961081,33.3206512 32.0211955,32.6588803 32.6468901,32.3208743 C30.1351112,30.0851766 31.5422379,22.8740016 32.2699416,14.1288713 C33.1500943,3.55169488 33.3954085,-4.78149806 34.7837422,-4.78149806 C36.172076,-4.78149806 36.3258555,3.91591823 37.2975429,14.1288713 C38.1429257,23.0142967 39.6020557,30.752572 36.4979137,32.6141584 C36.8922688,32.9794653 37.139113,33.5017591 37.139113,34.0817066 L37.139113,45.402251 C37.139113,46.4082785 36.396324,47.2408184 35.4292581,47.3813582 Z" transform="rotate(40 34.802 25.511)"/>
    </g>
  </g>
</svg>
