<svg xmlns="http://www.w3.org/2000/svg" xmlns:xlink="http://www.w3.org/1999/xlink" viewBox="0 0 345.7 72.3">
  <defs>
    <style>
      .a {
        fill: #999;
      }

      .b {
        fill: #4f79f7;
      }
    </style>
    <symbol id="a" data-name="logo no shdw" viewBox="0 0 345.7 72.3">
      <path class="a" d="M29.2,1.7c8.5,0,13.1,4.6,13.1,13.1V41.5c0,8.5-4.6,13.1-13.1,13.1H13.1C4.6,54.6,0,50,0,41.5V14.8C0,6.3,4.6,1.7,13.1,1.7Zm4.1,13.2c0-3.3-1.7-5.3-5.3-5.3H14.2c-3.3,0-5.3,1.9-5.3,5.3V41.4c0,3.4,2,5.3,5.3,5.3H28c3.5,0,5.3-1.9,5.3-5.3Z"/>
      <path class="a" d="M76.7,1.7c8.6,0,13.2,4.6,13.2,13.1V41.5c0,8.5-4.6,13.1-13.2,13.1H71.5c-6.4,0-11-3.8-15.3-7.8V72.3H47.3V1.7h8.9V9.5c4.3-4,8.9-7.8,15.3-7.8Zm4.1,13.2c0-3.3-1.7-5.3-5.3-5.3H70.7c-5.3,0-9.8,2.1-14.5,5.3V41.4c4.7,3.2,9.2,5.3,14.5,5.3h4.8c3.6,0,5.3-2,5.3-5.3Z"/>
      <path class="a" d="M103.9,41.8c0,3.4,1.8,5.3,5.3,5.3h13.2c3.4,0,5.3-2,5.3-5.3V37.9h9v3.6c0,8.5-4.6,13.1-13.1,13.1H108c-8.5,0-13.1-4.6-13.1-13.1V14.8c0-8.5,4.6-13.1,13.1-13.1h15.6c8.5,0,13.1,4.6,13.1,13.1V30.3H103.9Zm5.3-32.5c-3.5,0-5.3,1.8-5.3,5.2v9.2h23.8V14.5c0-3.4-1.8-5.2-5.3-5.2Z"/>
      <path class="a" d="M141.6,1.7h8.9V9.5c4.2-4,8.8-7.8,15.3-7.8h4.1c8.6,0,13.2,4.6,13.2,13.1V54.6h-9V15.1c0-3.4-1.8-5.3-5.2-5.3H165c-5.4,0-9.8,2-14.5,5.3V54.6h-8.9Z"/>
      <path class="b" d="M262.4,54.6c-7.2,0-10.6-3.4-10.6-10.6V10.6c0-7.1,3.6-10.6,10.8-10.6h24.3c7.2,0,10.4,3.5,10.4,10.6V20.9H282.7V13.6c0-1.1-.3-1.4-1.4-1.4H267.9c-1.1,0-1.4.3-1.4,1.4V41.1c0,1,.3,1.4,1.4,1.4h13.4c1.1,0,1.4-.4,1.4-1.4V33.8h14.6V44c0,7.2-3.4,10.6-10.6,10.6Z"/>
      <path class="b" d="M330.6,12.5V54.6H315.9V12.5H300.8V0h44.9V12.5Z"/>
      <path class="b" d="M222,48l10.1-24.5v28a3.1,3.1,0,0,0,3.1,3.2h10.9V3.1A3.1,3.1,0,0,0,243,0H229.6L217.4,28.5,205.2,0H191.8a3.1,3.1,0,0,0-3.1,3.1V54.7h11a3.1,3.1,0,0,0,3.1-3.2v-28l10,24.5Z"/>
    </symbol>
  </defs>
  <title>logo-app</title>
  <use width="345.7" height="72.27" xlink:href="#a"/>
</svg>
