<?xml version="1.0" encoding="utf-8"?>
<!-- Generator: Adobe Illustrator 18.1.1, SVG Export Plug-In . SVG Version: 6.00 Build 0)  -->
<svg version="1.1" id="Layer_1" xmlns="http://www.w3.org/2000/svg" xmlns:xlink="http://www.w3.org/1999/xlink" x="0px" y="0px"
	 viewBox="20 0 640 150" enable-background="new 20 0 640 150" xml:space="preserve">
<filter  height="130%" width="150%" id="AI_Shadow_Custom" x="-15%" filterUnits="objectBoundingBox" y="-15%">
	<feGaussianBlur  in="SourceAlpha" result="blur" stdDeviation="6"></feGaussianBlur>
	<feOffset  in="blur" dy="3" result="offsetBlurredAlpha" dx="0"></feOffset>
	<feMerge>
		<feMergeNode  in="offsetBlurredAlpha"></feMergeNode>
		<feMergeNode  in="SourceGraphic"></feMergeNode>
	</feMerge>
</filter>
<g filter="url(#AI_Shadow_Custom)">
	<path fill="#FFFFFF" d="M90.7,13.2c14.8,0,22.8,8,22.8,22.8v46.3c0,14.8-8,22.8-22.8,22.8H62.8c-14.8,0-22.8-8-22.8-22.8V36
		c0-14.8,8-22.8,22.8-22.8H90.7z M97.8,36.2c0-5.8-3.1-9.2-9.2-9.2h-24c-5.8,0-9.2,3.2-9.2,9.2v45.9c0,6,3.4,9.2,9.2,9.2h24
		c6,0,9.2-3.2,9.2-9.2V36.2z"/>
	<path fill="#FFFFFF" d="M173.2,13.2c14.8,0,22.8,8,22.8,22.8v46.3c0,14.8-8,22.8-22.8,22.8h-9c-11.2,0-19.2-6.6-26.5-13.6v44.2
		h-15.5V13.2h15.5v13.6c7.3-7,15.3-13.6,26.5-13.6H173.2z M180.3,36.2c0-5.8-3.1-9.2-9.2-9.2h-8.3c-9.4,0-17,3.6-25.2,9.2v45.9
		c8.2,5.6,15.8,9.2,25.2,9.2h8.3c6.1,0,9.2-3.4,9.2-9.2V36.2z"/>
	<path fill="#FFFFFF" d="M220.3,82.8c0,6,3.2,9.2,9.2,9.2h23c6,0,9.2-3.4,9.2-9.2V76h15.6v6.3c0,14.8-8,22.8-22.8,22.8h-27
		c-14.8,0-22.8-8-22.8-22.8V36c0-14.8,8-22.8,22.8-22.8h27c14.8,0,22.8,8,22.8,22.8v26.9h-57V82.8z M229.5,26.3
		c-6,0-9.2,3.2-9.2,9.2v15.8h41.3V35.5c0-6-3.1-9.2-9.2-9.2H229.5z"/>
	<path fill="#FFFFFF" d="M285.7,13.2h15.5v13.6c7.3-7,15.3-13.6,26.5-13.6h7.1c14.8,0,22.8,8,22.8,22.8v69.1h-15.5V36.6
		c0-6-3.2-9.2-9.2-9.2h-6.6c-9.4,0-17,3.4-25.2,9.2v68.5h-15.5V13.2z"/>
	<path fill="#4F79F7" d="M495.4,105.1c-12.5,0-18.4-6-18.4-18.4V28.7c0-12.5,6.2-18.4,18.7-18.4h42.2c12.5,0,18.1,6,18.1,18.4v17.7
		h-25.4V33.9c0-1.9-0.5-2.4-2.4-2.4h-23.3c-1.9,0-2.4,0.5-2.4,2.4v47.6c0,1.9,0.5,2.4,2.4,2.4h23.3c1.9,0,2.4-0.5,2.4-2.4V69H556
		v17.7c0,12.5-6,18.4-18.4,18.4H495.4z"/>
	<path fill="#4F79F7" d="M613.7,32v73.1h-25.4V32H562V10.3h78V32H613.7z"/>
	<path fill="#4F79F7" d="M425.3,93.6l17.4-42.4v48.6c0,3,2.4,5.4,5.4,5.4h19V15.7c0-3-2.4-5.4-5.4-5.4h-23.3l-21.2,49.4l-21.2-49.4
		h-23.3c-3,0-5.4,2.4-5.4,5.4v89.5h19c3,0,5.4-2.4,5.4-5.4V51.2l17.4,42.4H425.3z"/>
</g>
</svg>
