<?xml version="1.0" encoding="utf-8"?>
<!-- Generator: Adobe Illustrator 17.0.2, SVG Export Plug-In . SVG Version: 6.00 Build 0)  -->
<!DOCTYPE svg PUBLIC "-//W3C//DTD SVG 1.1//EN" "http://www.w3.org/Graphics/SVG/1.1/DTD/svg11.dtd">
<svg version="1.1" id="NASA_insignia_color" xmlns="http://www.w3.org/2000/svg" xmlns:xlink="http://www.w3.org/1999/xlink"
	 x="0px" y="0px" width="318px" height="260px" viewBox="0 0 318 260" enable-background="new 0 0 318 260" xml:space="preserve">
<path fill="#0B3D91" d="M275.948,130.19c0,69.085-56.915,125.944-126.068,125.944S23.811,199.275,23.811,130.19
	c0-69.086,56.915-125.944,126.068-125.944S275.948,61.104,275.948,130.19z"/>
<path fill="#FFFFFF" d="M178.316,196.477c53.713,22.095,44.551-33.774,15.798-76.703c-16.269-24.291-37.487-44.525-50.87-54.292
	c-44.55-32.512-71.723-12.626-40.443,51.136c10.133,20.655,23.146,34.595,33.313,47.733c7.762,10.03,22.884,15.054,17.557,19.815
	c-6.004,5.366-20.538-18.308-20.538-18.308c-10.742-12.941-20.972-26.762-31.516-45.711C77.525,76.845,81,32.654,124.603,51.909
	c37.008,16.343,72.355,62.183,86.571,94.737c6.587,15.086,24.332,74.451-32.542,50.463"/>
<path fill="#FC3D21" d="M10.826,167.524c23.697-15.783,46.161-25.971,84.393-38.597c53.718-17.741,94.156-29.671,143.763-54.607
	c24.158-12.144,59.858-35.653,74.25-58.396c-4.121,8.423-16.642,25.26-22.434,32.512C223.499,132.715,80.125,127.94,11.77,168.405"
	/>
<path fill="#FFFFFF" d="M45.201,105.929c21.582,0.167,19.56-0.044,19.812,0.209c0.379,0,17.315,29.166,17.315,29.418
	c0,0.127-0.126-10.365-0.126-23.484c0-1.515-4.171-5.935-4.045-5.935c6.191,0,14.282,0.126,14.282,0.126
	c-3.033,3.535-3.639,3.245-3.665,5.429c-0.084,7.028-0.166,20.012,0,34.595c0.025,2.186,1.643,3.03,4.297,6.818H73.228
	c-6.446-10.732-18.256-30.865-18.2-30.808c0.092,0.092-0.252,12.626,0.127,22.726c0.125,3.337,1.643,4.419,4.424,7.45
	c0,0,3.202-0.085-15.545,0.125c5.687-3.029,4.931-6.817,4.929-6.943c-0.205-13.952-0.042-25.884-0.042-33.586
	c0-1.263-0.084-1.137-4.002-5.935"/>
<g>
	<path fill="#FFFFFF" d="M112.971,127.475c1.818-6.321,3.375-11.973,4.112-15.656c0.126-0.631-1.39-2.904-3.792-5.176l-0.169-0.353
		c11.58,0.038,23.677,0.1,23.677,0.1c3.16,7.702,10.363,29.292,15.798,42.549c1.437,3.505,3.918,4.167,3.918,4.167
		c-9.858-0.127-28.152-0.042-28.058-0.127c4.929-4.418,4.297-4.418,2.148-10.857h-15.419c-3.16,7.322,0.985,10.759,1.517,10.731
		c-3.51,0.181-15.419,0-15.419,0c6.445-4.546,6.066-5.935,6.066-5.935C109.122,140.62,111.175,133.721,112.971,127.475l6.324,0.001
		c-1.358,4.357-2.717,8.712-2.717,8.712h12.259l-6.825-17.424c0,0-1.358,4.356-2.717,8.711L112.971,127.475z"/>
</g>
<g>
	<path fill="#FFFFFF" d="M218.881,128.106c1.818-6.321,3.375-11.973,4.112-15.655c0.126-0.632-1.391-2.904-3.791-5.177l-0.169-0.353
		c11.58,0.038,23.676,0.1,23.676,0.1c3.16,7.702,10.364,29.292,15.798,42.55c1.437,3.505,3.919,4.166,3.919,4.166
		c-9.858-0.126-28.152-0.041-28.058-0.126c4.929-4.419,4.297-4.419,2.148-10.858h-15.419c-3.16,7.322,0.985,10.76,1.517,10.732
		c-3.511,0.18-15.419,0-15.419,0c6.445-4.546,6.066-5.935,6.066-5.935C215.032,141.252,217.085,134.353,218.881,128.106l6.324,0
		c-1.359,4.356-2.717,8.712-2.717,8.712h12.259l-6.824-17.424c0,0-1.359,4.356-2.718,8.712L218.881,128.106z"/>
</g>
<path fill="#FFFFFF" d="M198.98,117.753c-0.253-8.964,0-11.869,0-11.869c-3.918,3.157-1.939,2.756-11.754,1.136
	c-28.311-4.671-30.459,21.717-15.04,27.652c12.918,4.971,17.49,5.943,15.545,10.605c-0.632,1.515-12.386,7.07-24.518-4.167
	l0.254,15.657c1.516-1.562,5.688-4.42,5.688-4.42c0.125,0,13.147,5.739,24.897-0.252c18.072-9.217,9.051-24.133-10.237-30.05
	c-16.051-4.924-0.885-16.414,15.039-4.167"/>
<path fill="#FC3D21" d="M313.486,16.375c-19.213,56.998-96.179,101.005-160.969,143.028
	c-39.086,25.352-77.893,54.537-104.606,79.367c-7.044,6.547,1.436-2.449-1.264,0.316c37.283-42.93,80.167-68.494,103.864-84.592
	c40.082-27.229,62.877-34.09,132.019-97.784"/>
<path fill="#FFFFFF" d="M178.316,196.477c53.713,22.095,44.551-33.774,15.798-76.703c-16.269-24.291-36.335-43.56-50.87-54.292
	c-16.976-12.535-18.642-13.573-18.642-13.573c37.916,17.992,72.355,62.183,86.571,94.737c6.587,15.086,24.332,74.451-32.542,50.463"
	/>
<path fill="#FFFFFF" d="M151.617,15.688c0,0.562-0.463,1.025-1.026,1.025c-0.563,0-1.026-0.463-1.026-1.025
	c0-0.563,0.463-1.026,1.026-1.026C151.154,14.662,151.617,15.125,151.617,15.688z"/>
<path fill="#FFFFFF" d="M158.727,31.233c0,0.693-0.57,1.263-1.264,1.263s-1.264-0.57-1.264-1.263c0-0.692,0.57-1.262,1.264-1.262
	S158.727,30.541,158.727,31.233z"/>
<path fill="#FFFFFF" d="M177.21,56.644c0,0.692-0.57,1.263-1.263,1.263c-0.694,0-1.264-0.57-1.264-1.263
	c0-0.693,0.569-1.263,1.264-1.263C176.64,55.381,177.21,55.951,177.21,56.644z"/>
<path fill="#FFFFFF" d="M147.51,39.993c0,0.563-0.463,1.026-1.026,1.026c-0.564,0-1.027-0.463-1.027-1.026
	c0-0.562,0.463-1.025,1.027-1.025C147.047,38.967,147.51,39.43,147.51,39.993z"/>
<path fill="#FFFFFF" d="M158.568,45.833c0,0.562-0.463,1.026-1.026,1.026c-0.564,0-1.026-0.463-1.026-1.026
	c0-0.563,0.463-1.026,1.026-1.026C158.105,44.807,158.568,45.27,158.568,45.833z"/>
<path fill="#FFFFFF" d="M144.193,29.498c0,0.692-0.571,1.263-1.264,1.263c-0.693,0-1.264-0.57-1.264-1.263
	c0-0.693,0.57-1.263,1.264-1.263C143.622,28.235,144.193,28.805,144.193,29.498z"/>
<path fill="#FFFFFF" d="M127.447,39.677c0,0.562-0.463,1.026-1.027,1.026s-1.027-0.463-1.027-1.026s0.463-1.026,1.027-1.026
	S127.447,39.115,127.447,39.677z"/>
<path fill="#FFFFFF" d="M130.448,41.729c0,0.562-0.463,1.026-1.027,1.026c-0.563,0-1.027-0.463-1.027-1.026
	c0-0.563,0.464-1.026,1.027-1.026C129.985,40.703,130.448,41.166,130.448,41.729z"/>
<path fill="#FFFFFF" d="M133.45,43.781c0,0.562-0.464,1.026-1.027,1.026c-0.563,0-1.027-0.463-1.027-1.026
	c0-0.563,0.463-1.026,1.027-1.026C132.986,42.755,133.45,43.218,133.45,43.781z"/>
<path fill="#FFFFFF" d="M128.869,47.726c0,0.563-0.464,1.026-1.027,1.026c-0.563,0-1.027-0.463-1.027-1.026
	c0-0.562,0.463-1.025,1.027-1.025C128.405,46.701,128.869,47.164,128.869,47.726z"/>
<path fill="#FFFFFF" d="M105.014,64.456c0,0.563-0.464,1.026-1.027,1.026c-0.563,0-1.027-0.463-1.027-1.026
	c0-0.562,0.464-1.025,1.027-1.025C104.55,63.43,105.014,63.893,105.014,64.456z"/>
<path fill="#FFFFFF" d="M109.437,69.822c0,0.563-0.463,1.026-1.027,1.026c-0.563,0-1.027-0.463-1.027-1.026
	c0-0.562,0.463-1.026,1.027-1.026C108.974,68.796,109.437,69.259,109.437,69.822z"/>
<path fill="#FFFFFF" d="M105.961,156.468c0,0.562-0.463,1.025-1.027,1.025c-0.563,0-1.027-0.463-1.027-1.025
	s0.463-1.025,1.027-1.025C105.498,155.442,105.961,155.905,105.961,156.468z"/>
<path fill="#FFFFFF" d="M106.593,180.378c0,0.693-0.57,1.264-1.264,1.264c-0.693,0-1.264-0.57-1.264-1.264
	c0-0.691,0.571-1.262,1.264-1.262C106.023,179.116,106.593,179.687,106.593,180.378z"/>
<path fill="#FFFFFF" d="M93.007,192.61c0,0.562-0.463,1.025-1.027,1.025c-0.563,0-1.027-0.463-1.027-1.025s0.464-1.026,1.027-1.026
	C92.543,191.584,93.007,192.048,93.007,192.61z"/>
<path fill="#FFFFFF" d="M76.735,197.581c0,0.693-0.571,1.263-1.264,1.263c-0.693,0-1.264-0.569-1.264-1.263
	c0-0.692,0.57-1.262,1.264-1.262C76.165,196.319,76.735,196.889,76.735,197.581z"/>
<path fill="#FFFFFF" d="M73.417,186.534c0,0.691-0.571,1.262-1.264,1.262c-0.693,0-1.264-0.57-1.264-1.262
	c0-0.693,0.571-1.264,1.264-1.264C72.847,185.27,73.417,185.841,73.417,186.534z"/>
<path fill="#FFFFFF" d="M71.521,193.557c0,0.563-0.463,1.026-1.027,1.026c-0.563,0-1.027-0.463-1.027-1.026
	c0-0.562,0.464-1.026,1.027-1.026C71.058,192.53,71.521,192.994,71.521,193.557z"/>
<path fill="#FFFFFF" d="M59.357,187.718c0,0.562-0.464,1.025-1.027,1.025c-0.563,0-1.027-0.463-1.027-1.025s0.464-1.026,1.027-1.026
	C58.894,186.691,59.357,187.155,59.357,187.718z"/>
<path fill="#FFFFFF" d="M101.854,207.445c0,0.563-0.463,1.026-1.027,1.026c-0.563,0-1.027-0.463-1.027-1.026
	c0-0.562,0.463-1.026,1.027-1.026C101.391,206.419,101.854,206.883,101.854,207.445z"/>
<path fill="#FFFFFF" d="M114.65,198.055c0,0.692-0.571,1.263-1.264,1.263c-0.693,0-1.264-0.57-1.264-1.263
	c0-0.692,0.571-1.263,1.264-1.263C114.08,196.792,114.65,197.362,114.65,198.055z"/>
<path fill="#FFFFFF" d="M116.072,210.128c0,0.562-0.464,1.027-1.027,1.027c-0.563,0-1.027-0.465-1.027-1.027
	s0.463-1.025,1.027-1.025C115.608,209.103,116.072,209.565,116.072,210.128z"/>
<path fill="#FFFFFF" d="M168.68,198.606c0,0.563-0.463,1.027-1.027,1.027c-0.562,0-1.026-0.464-1.026-1.027
	c0-0.562,0.464-1.025,1.026-1.025C168.217,197.581,168.68,198.044,168.68,198.606z"/>
<path fill="#FFFFFF" d="M144.193,207.288c0,0.562-0.464,1.025-1.027,1.025c-0.564,0-1.027-0.463-1.027-1.025
	s0.464-1.026,1.027-1.026C143.729,206.262,144.193,206.726,144.193,207.288z"/>
<path fill="#FFFFFF" d="M210.07,219.755c0,0.562-0.464,1.027-1.026,1.027c-0.563,0-1.027-0.465-1.027-1.027s0.464-1.025,1.027-1.025
	C209.606,218.729,210.07,219.192,210.07,219.755z"/>
<path fill="#FFFFFF" d="M215.441,171.225c0,0.692-0.57,1.263-1.264,1.263c-0.692,0-1.264-0.57-1.264-1.263
	c0-0.692,0.571-1.263,1.264-1.263C214.871,169.962,215.441,170.532,215.441,171.225z"/>
<path fill="#FFFFFF" d="M205.331,178.09c0,0.563-0.463,1.026-1.026,1.026c-0.564,0-1.027-0.463-1.027-1.026
	c0-0.562,0.463-1.026,1.027-1.026C204.868,177.063,205.331,177.527,205.331,178.09z"/>
<path fill="#FFFFFF" d="M215.283,180.062c0,0.692-0.569,1.263-1.264,1.263c-0.692,0-1.264-0.57-1.264-1.263s0.571-1.263,1.264-1.263
	C214.714,178.8,215.283,179.37,215.283,180.062z"/>
<path fill="#FFFFFF" d="M205.331,192.294c0,0.562-0.463,1.025-1.026,1.025c-0.564,0-1.027-0.463-1.027-1.025
	s0.463-1.025,1.027-1.025C204.868,191.269,205.331,191.731,205.331,192.294z"/>
<path fill="#FFFFFF" d="M231.082,164.358c0,0.563-0.464,1.027-1.026,1.027c-0.564,0-1.027-0.464-1.027-1.027
	c0-0.562,0.464-1.025,1.027-1.025C230.618,163.333,231.082,163.796,231.082,164.358z"/>
<path fill="#FFFFFF" d="M233.609,170.593c0,0.693-0.57,1.264-1.264,1.264s-1.264-0.57-1.264-1.264c0-0.692,0.57-1.262,1.264-1.262
	S233.609,169.9,233.609,170.593z"/>
<path fill="#FFFFFF" d="M251.303,178.011c0,0.693-0.57,1.263-1.263,1.263c-0.694,0-1.264-0.569-1.264-1.263
	c0-0.692,0.569-1.262,1.264-1.262C250.732,176.749,251.303,177.318,251.303,178.011z"/>
<path fill="#FFFFFF" d="M233.294,191.189c0,0.562-0.464,1.026-1.027,1.026c-0.563,0-1.027-0.464-1.027-1.026
	s0.464-1.026,1.027-1.026C232.83,190.163,233.294,190.627,233.294,191.189z"/>
<path fill="#FFFFFF" d="M244.668,180.458c0,0.562-0.463,1.025-1.026,1.025c-0.563,0-1.027-0.463-1.027-1.025
	c0-0.563,0.464-1.026,1.027-1.026C244.205,179.432,244.668,179.895,244.668,180.458z"/>
<path fill="#FFFFFF" d="M242.614,197.028c0,0.564-0.463,1.026-1.026,1.026c-0.564,0-1.027-0.463-1.027-1.026
	c0-0.562,0.464-1.025,1.027-1.025C242.151,196.003,242.614,196.466,242.614,197.028z"/>
<g>
	<path fill="#FFFFFF" d="M247.394,169.488c0,0.866-0.713,1.579-1.58,1.579c-0.866,0-1.579-0.713-1.579-1.579
		s0.713-1.578,1.579-1.578C246.681,167.91,247.394,168.622,247.394,169.488z"/>
</g>
<g>
	<polygon fill="#FFFFFF" points="245.813,164.675 245.34,169.015 241.035,169.488 245.379,169.962 245.852,174.46 246.327,169.962 
		250.592,169.409 246.287,169.015 	"/>
</g>
<g>
	<path fill="#FFFFFF" d="M236.335,196.95c0,0.865-0.713,1.578-1.58,1.578c-0.866,0-1.579-0.713-1.579-1.578
		c0-0.865,0.713-1.578,1.579-1.578C235.622,195.372,236.335,196.085,236.335,196.95z"/>
</g>
<g>
	<polygon fill="#FFFFFF" points="234.755,192.136 234.281,196.477 229.977,196.95 234.32,197.423 234.794,201.921 235.269,197.423 
		239.533,196.871 235.228,196.477 	"/>
</g>
<g>
	<path fill="#FFFFFF" d="M118.481,66.587c0,0.866-0.713,1.578-1.58,1.578c-0.866,0-1.58-0.712-1.58-1.578
		c0-0.866,0.713-1.578,1.58-1.578C117.768,65.008,118.481,65.721,118.481,66.587z"/>
</g>
<g>
	<polygon fill="#FFFFFF" points="116.901,61.773 116.428,66.113 112.123,66.587 116.467,67.06 116.941,71.558 117.415,67.06 
		121.681,66.507 117.375,66.113 	"/>
</g>
<g>
	<path fill="#FFFFFF" d="M177.25,28.393c0,0.866-0.714,1.579-1.58,1.579s-1.58-0.713-1.58-1.579s0.714-1.578,1.58-1.578
		S177.25,27.527,177.25,28.393z"/>
</g>
<g>
	<polygon fill="#FFFFFF" points="175.67,23.579 175.196,27.919 170.891,28.393 175.235,28.866 175.71,33.364 176.184,28.866 
		180.449,28.314 176.144,27.919 	"/>
</g>
<g>
	<path fill="#FFFFFF" d="M105.843,222.202c0,0.865-0.713,1.578-1.58,1.578s-1.58-0.713-1.58-1.578c0-0.865,0.713-1.578,1.58-1.578
		S105.843,221.337,105.843,222.202z"/>
</g>
<g>
	<polygon fill="#FFFFFF" points="104.263,217.388 103.789,221.729 99.484,222.202 103.829,222.675 104.303,227.173 104.776,222.675 
		109.042,222.124 104.737,221.729 	"/>
</g>
<path fill="#EF3E42" d="M26.852,157.585c-6.899,3.377-13.081,6.711-18.324,9.967l3.191,1.16c4.584-2.822,10.091-5.771,15.891-8.365"
	/>
<path fill="#EF3E42" d="M63.279,221.362c-6.307,5.506-12.825,11.383-19.365,17.543l-0.29,4.35
	c5.988-6.168,13.34-12.828,21.829-19.895"/>
</svg>
