<svg xmlns="http://www.w3.org/2000/svg" width="200" height="100" viewBox="0 0 200 100">
  <defs>
    <linearGradient id="plugin-icon-time-white-a" x1="50%" x2="50%" y1="0%" y2="100%">
      <stop offset="0%" stop-color="#FFF" stop-opacity="0"/>
      <stop offset="100%" stop-opacity=".188"/>
    </linearGradient>
  </defs>
  <g fill="none" fill-rule="evenodd">
    <rect width="200" height="100" fill="#0199F9"/>
    <rect width="200" height="100" y="1" fill="url(#plugin-icon-time-white-a)" fill-rule="nonzero"/>
    <path fill="#FFF" fill-rule="nonzero" d="M36,0 C16.1184375,0 0,16.1184375 0,36 C0,55.8815625 16.1184375,72 36,72 C55.8815625,72 72,55.8815625 72,36 C72,16.1184375 55.8815625,0 36,0 Z M54.984375,48.515625 C54.0792159,50.0834084 52.4057878,51.0485383 50.5954688,51.046875 C49.7065772,51.0477097 48.8332848,50.8133763 48.0642188,50.3676562 L32.4759375,41.3676562 L32.45625,41.3564062 C32.4,41.3235937 32.3442188,41.289375 32.2889063,41.25375 L32.2284375,41.214375 L32.0976563,41.124375 L32.0090625,41.0610937 L31.9204688,40.9935937 L31.8009375,40.899375 L31.7559375,40.8614062 C31.7053125,40.8192187 31.6546875,40.775625 31.6054688,40.7320312 C31.2481165,40.4076357 30.9393244,40.0334859 30.6885938,39.6210937 C30.6689063,39.58875 30.650625,39.555 30.6309375,39.5226562 C30.61125,39.4903125 30.5901563,39.45375 30.5704688,39.4185937 C30.3388339,38.9955395 30.1692837,38.5413534 30.0670313,38.07 L30.0670313,38.0615625 C30.0529688,37.996875 30.0403125,37.9321875 30.0290625,37.8675 C30.0290625,37.8478125 30.0220313,37.828125 30.0178125,37.8084375 C30.009375,37.7592187 30.0023438,37.7085937 29.9967188,37.6579687 C29.9910938,37.6073437 29.986875,37.5848437 29.9826563,37.546875 C29.9784375,37.5089062 29.975625,37.4751562 29.9728125,37.4385937 C29.97,37.4020313 29.964375,37.333125 29.9601563,37.2810937 C29.9601563,37.2571875 29.9601563,37.2332812 29.9601563,37.2079687 C29.9601563,37.1423437 29.9601563,37.0771875 29.9601563,37.0125 C29.9601563,37.0054688 29.9601563,36.9970312 29.9601563,36.99 L29.9601563,11.390625 C29.9601563,8.59468345 32.2267147,6.328125 35.0226563,6.328125 C37.8185978,6.328125 40.0851563,8.59468345 40.0851563,11.390625 L40.0851563,34.0621875 L53.1421875,41.6010938 C55.559037,43.0027401 56.383502,46.0973162 54.984375,48.515625 Z" transform="translate(64 15)"/>
  </g>
</svg>
