<svg xmlns="http://www.w3.org/2000/svg" width="200" height="100" viewBox="0 0 200 100">
  <defs>
    <linearGradient id="plugin-icon-telemetry-visualization-a" x1="50%" x2="50%" y1="0%" y2="100%">
      <stop offset="0%" stop-color="#FFF" stop-opacity="0"/>
      <stop offset="100%" stop-opacity=".188"/>
    </linearGradient>
  </defs>
  <g fill="none" fill-rule="evenodd">
    <rect width="200" height="100" fill="#0199F9"/>
    <rect width="200" height="100" fill="url(#plugin-icon-telemetry-visualization-a)" fill-rule="nonzero"/>
    <g fill-rule="nonzero" transform="translate(54 15)">
      <path fill="#FFF" d="M75.4762479,41.3156166 C76.9528645,39.1245074 78.1678022,36.7873242 79.0836783,34.3405856 C78.1678022,31.893847 76.9528645,29.5566638 75.4762479,27.3655546 C73.3641255,24.2067054 70.7473366,21.4495597 67.7193381,19.1123765 C64.6726482,16.7751933 61.2708226,14.949269 57.6260096,13.6893812 C53.8690484,12.3929749 49.8877911,11.7356421 45.8504597,11.7356421 C41.8131283,11.7356421 37.8505623,12.3929749 34.0749098,13.6893812 C30.4300967,14.949269 27.0469626,16.7569341 23.9815813,19.1123765 C20.9535828,21.4495597 18.3367939,24.2249647 16.2246715,27.3655546 C14.7667462,29.5566638 13.5518086,31.893847 12.6172411,34.3405856 C13.5331172,36.7873242 14.7480549,39.1245074 16.2246715,41.3156166 C18.3367939,44.4744657 20.9535828,47.2316115 23.9815813,49.5687947 C27.0282712,51.9059778 30.4300967,53.7319022 34.0749098,54.99179 C37.831871,56.2881963 41.8131283,56.945529 45.8504597,56.945529 C49.8877911,56.945529 53.8503571,56.2881963 57.6260096,54.99179 C61.2708226,53.7319022 64.6539568,51.9242371 67.7193381,49.5687947 C70.7473366,47.2316115 73.3641255,44.4562065 75.4762479,41.3156166 Z M74.944847,58.8522575 C70.8815551,61.9744956 66.3715905,64.3942717 61.4837263,66.0838133 C56.4638945,67.8074204 51.197402,68.6811712 45.8504597,68.6811712 C40.4942087,68.6811712 35.203512,67.804446 30.1940692,66.0758468 C25.3452137,64.3997626 20.816755,61.9673018 16.7357861,58.8366345 C12.6759084,55.7029877 9.19205587,52.0053341 6.41053134,47.8452007 C4.41554385,44.8848956 2.78134672,41.729186 1.54699454,38.431647 L0,34.2988922 L1.57462577,30.1764528 C2.81487732,26.9294198 4.42628381,23.8177199 6.40427126,20.8452692 C9.21713666,16.6627197 12.7013647,12.9585348 16.7560723,9.82891368 C20.8193643,6.70667553 25.3293288,4.28689945 30.2171931,2.59735785 C35.2370249,0.873750722 40.5035174,0 45.8504597,0 C51.2067106,0 56.4974073,0.876725142 61.5068502,2.60532431 C66.3557056,4.28140858 70.8841643,6.7138694 74.9651333,9.84453667 C79.025011,12.9781834 82.5088635,16.675837 85.290388,20.8359705 C87.2853755,23.7962755 88.9195727,26.9519852 90.1539248,30.2495242 L91.6853125,34.3405856 L90.1539248,38.431647 C88.9202187,41.7274601 87.287086,44.8815925 85.29352,47.8405526 C82.4811997,52.0211973 78.9980517,55.7237964 74.944847,58.8522575 Z"/>
      <g transform="translate(28.622 17.378)">
        <ellipse cx="17.889" cy="17.378" fill="#FFF" rx="17.889" ry="17.378"/>
        <ellipse cx="18.348" cy="16.932" fill="#069AF7" rx="12.843" ry="12.476"/>
        <ellipse cx="11.467" cy="10.248" fill="#FFF" rx="5.963" ry="5.793"/>
      </g>
    </g>
  </g>
</svg>
