<?xml version="1.0" standalone="no"?>
<!DOCTYPE svg PUBLIC "-//W3C//DTD SVG 1.1//EN" "http://www.w3.org/Graphics/SVG/1.1/DTD/svg11.dtd" >
<svg>
<metadata>
Created by FontForge 20110222 at Mon Feb 23 21:13:56 2015
 By deploy user
Copyright 2015 Adobe Systems Incorporated. All rights reserved.
</metadata>
<defs>
<font id="WTDSymbols" horiz-adv-x="500" >
  <font-face 
    font-family="WTDSymbols"
    font-weight="400"
    font-stretch="normal"
    units-per-em="1000"
    panose-1="0 0 0 0 0 0 0 0 0 0"
    ascent="750"
    descent="-250"
    x-height="579"
    cap-height="782"
    bbox="-33 -19 1143 787"
    underline-thickness="50"
    underline-position="-50"
    unicode-range="U+0020-2044"
  />
<missing-glyph 
 />
    <glyph glyph-name=".notdef" 
 />
    <glyph glyph-name=".null" horiz-adv-x="0" 
 />
    <glyph glyph-name="nonmarkingreturn" horiz-adv-x="333" 
 />
    <glyph glyph-name="space" unicode=" " 
 />
    <glyph glyph-name="exclam" unicode="!" horiz-adv-x="636" 
d="M476 730q65 0 112.5 -46.5t47.5 -111.5v-413q0 -66 -47 -112.5t-113 -46.5h-317q-66 0 -112.5 46.5t-46.5 112.5v413q0 65 46.5 111.5t112.5 46.5h317zM405 108v63q0 8 -6.5 13.5t-13.5 5.5h-135q-21 0 -21 -19v-63q0 -10 6.5 -16t14.5 -6h135q7 0 13.5 6.5t6.5 15.5z
M389 277l28 355q0 19 -20 19h-163q-20 0 -20 -19l28 -355q0 -8 6.5 -13.5t13.5 -5.5h108q19 0 19 19z" />
    <glyph glyph-name="asterisk" unicode="*" horiz-adv-x="709" 
d="M284 733h139l-23 -285l237 163l71 -122l-263 -123l263 -122l-71 -122l-237 162l23 -284h-139l23 288l-237 -166l-70 122l259 122l-259 123l70 122l237 -166z" />
    <glyph glyph-name="plus" unicode="+" horiz-adv-x="735" 
d="M696 476q16 0 27.5 -11.5t11.5 -27.5v-139q0 -16 -11.5 -27.5t-27.5 -11.5h-220v-220q0 -16 -11.5 -27.5t-27.5 -11.5h-139q-16 0 -27.5 11.5t-11.5 27.5v220h-220q-16 0 -27.5 11.5t-11.5 27.5v139q0 16 11.5 27.5t27.5 11.5h220v220q0 16 11.5 27.5t27.5 11.5h139
q16 0 27.5 -11.5t11.5 -27.5v-220h220z" />
    <glyph glyph-name="period" unicode="." horiz-adv-x="1144" 
d="M282 63l-282 264l282 260v-524zM1143 327l-281 -264v524zM754 327q0 -77 -53.5 -130.5t-130.5 -53.5q-74 0 -126.5 54t-52.5 130q0 74 52.5 127t126.5 53q77 0 130.5 -52.5t53.5 -127.5z" />
    <glyph glyph-name="zero" unicode="0" horiz-adv-x="535" 
d="M266 624l266 -624h-532z" />
    <glyph glyph-name="one" unicode="1" horiz-adv-x="534" 
d="M267 0l-267 623h532z" />
    <glyph glyph-name="two" unicode="2" horiz-adv-x="686" 
d="M246 0l-246 246v291l246 -243l440 441v-295z" />
    <glyph glyph-name="three" unicode="3" horiz-adv-x="805" 
d="M340 730v-730h-340v730h340zM805 730v-304h-341v304h341zM805 304v-304h-341v304h341z" />
    <glyph glyph-name="four" unicode="4" horiz-adv-x="805" 
d="M341 732v-159h-341v159h341zM341 445v-158h-341v158h341zM341 159v-159h-341v159h341zM806 732v-159h-341v159h341zM806 445v-158h-341v158h341zM806 159v-159h-341v159h341z" />
    <glyph glyph-name="five" unicode="5" horiz-adv-x="807" 
d="M807 311l-403 -311l-404 311h807zM0 419l404 310l403 -310h-807z" />
    <glyph glyph-name="six" unicode="6" horiz-adv-x="806" 
d="M655 366h151l-5 -21q-44 -152 -89 -235q-27 -47 -56 -73q-41 -37 -89 -37q-50 0 -89 37q-31 28 -57 73q-46 84 -88 235q-52 186 -95 231q-40 -48 -87 -210h-151l4 18l1 1q43 153 88 236q26 45 57 73q41 36 88 36q49 0 90 -36q29 -26 56 -73q47 -83 88 -236
q52 -180 95 -231q42 53 88 212z" />
    <glyph glyph-name="seven" unicode="7" horiz-adv-x="669" 
d="M193 787v-193h-193v193h193zM193 491v-195h-193v195h193zM193 193v-193h-193v193h193zM671 732v-82h-388v82h388zM671 435v-81h-388v81h388zM671 138v-82h-388v82h388z" />
    <glyph glyph-name="eight" unicode="8" horiz-adv-x="636" 
d="M625 735v-318h-625v318h625zM625 315v-315h-625v315h625z" />
    <glyph glyph-name="nine" unicode="9" horiz-adv-x="636" 
d="M267 735v-319h-267v319h267zM267 315v-315h-267v315h267zM630 735v-319h-267v319h267zM630 315v-315h-267v315h267z" />
    <glyph glyph-name="colon" unicode=":" horiz-adv-x="625" 
d="M625 -19l-397 397l397 397v-794zM173 756v-735h-173v735h173z" />
    <glyph glyph-name="semicolon" unicode=";" horiz-adv-x="624" 
d="M0 774l396 -397l-396 -396v793zM451 0v734h173v-734h-173z" />
    <glyph glyph-name="less" unicode="&#x3c;" horiz-adv-x="352" 
d="M352 0l-352 367l352 368v-735z" />
    <glyph glyph-name="greater" unicode="&#x3e;" horiz-adv-x="353" 
d="M352 366l-352 -366v735z" />
    <glyph glyph-name="A" unicode="A" horiz-adv-x="812" 
d="M446 735l366 -368l-366 -367l-130 130l147 147h-156q-51 -76 -140 -76q-69 0 -118 48.5t-49 117.5t49 117.5t118 48.5q90 0 140 -75h156l-147 146zM167 295q30 0 51 21.5t21 50.5q0 30 -21 51.5t-51 21.5t-52 -21.5t-22 -51.5q0 -29 22.5 -50.5t51.5 -21.5z" />
    <glyph glyph-name="C" unicode="C" horiz-adv-x="750" 
d="M374 750q157 0 266.5 -109t109.5 -267q0 -155 -110 -264.5t-266 -109.5q-154 0 -264 110t-110 264q0 158 109.5 267t264.5 109zM558 281q7 14 3 29.5t-18 22.5l-131 68v260q0 36 -38 36q-16 0 -26 -9.5t-10 -26.5v-309l167 -85q9 -4 20 -4q22 0 33 18z" />
    <glyph glyph-name="D" unicode="D" horiz-adv-x="811" 
d="M719 418q76 26 92 40v-313q0 -56 -116 -93.5t-287 -37.5t-289.5 37.5t-118.5 93.5v313q57 -30 97 -40q131 -43 311 -43q182 0 311 43zM811 615q0 -55 -117 -95t-286 -40t-288.5 40t-119.5 95q0 52 119.5 89.5t288.5 37.5t286 -37.5t117 -89.5z" />
    <glyph glyph-name="E" unicode="E" horiz-adv-x="977" 
d="M488 727q162 0 294.5 -100.5t194.5 -263.5q-63 -162 -195 -262.5t-294 -100.5q-161 0 -293 100t-195 263q63 163 195 263.5t293 100.5zM488 170q80 0 136.5 56.5t56.5 136.5q0 81 -56.5 137.5t-136.5 56.5t-136.5 -56.5t-56.5 -137.5q0 -80 56.5 -136.5t136.5 -56.5z" />
    <glyph glyph-name="F" unicode="F" horiz-adv-x="849" 
d="M227 601q-41 0 -79 -26t-49 -61l-99 -317v255v95v164q0 20 14 34.5t34 14.5h234q22 0 37 -14.5t15 -34.5v-62h251q29 0 53 -13t35 -35h-446zM771 525q43 0 66 -25.5t12 -61.5l-111 -351q-11 -34 -49.5 -60.5t-80.5 -26.5h-486q-42 0 -65 26.5t-11 60.5l109 351
q12 36 51.5 61.5t82.5 25.5h482z" />
    <glyph glyph-name="G" unicode="G" horiz-adv-x="724" 
d="M658 381q0 -31 -3 -47l68 -72l-39 -68l-41 -69l-96 22q-44 -36 -79 -47l-26 -100h-161l-26 100q-25 8 -79 52l-100 -27l-38 69l-38 68l68 72q-4 16 -4 47q0 34 4 50l-68 69l76 136l100 -24q35 30 79 46l26 95h161l26 -95q43 -15 79 -46l96 24l41 -69l39 -67l-68 -69
q3 -16 3 -50zM361 224q66 0 113 45.5t47 111.5q0 65 -47 112.5t-113 47.5q-65 0 -112 -47.5t-47 -112.5q0 -66 46.5 -111.5t112.5 -45.5z" />
    <glyph glyph-name="H" unicode="H" horiz-adv-x="774" 
d="M0 0v700h180v-700h-180zM297 0v700h180v-700h-180zM594 192v508h180v-508h-180z" />
    <glyph glyph-name="I" unicode="I" horiz-adv-x="853" 
d="M635 582h-439l220 200zM663 209v349l190 -174zM169 558v-349l-191 175zM196 185h439l-219 -199z" />
    <glyph glyph-name="J" unicode="J" 
 />
    <glyph glyph-name="L" unicode="L" horiz-adv-x="817" 
d="M0 575q0 67 47 113.5t114 46.5h303v-735h-303q-67 0 -114 47t-47 113v415zM652 735q66 0 113.5 -46.5t47.5 -113.5v-172h-271v332h110zM542 0v324h271v-164q0 -66 -47.5 -113t-113.5 -47h-110z" />
    <glyph glyph-name="M" unicode="M" horiz-adv-x="768" 
d="M560 299l199 -202l-98 -97l-200 202q-63 -44 -152 -44q-121 0 -207 86q-87 86 -87 209t87 211q82 86 207 86q124 0 210 -86q73 -73 84 -176.5t-43 -188.5zM421 340q49 51 49 114q0 66 -49 112q-46 49 -112 49q-63 0 -114 -49q-44 -44 -44 -112q0 -65 44 -114
q53 -48 114 -48q64 0 112 48z" />
    <glyph glyph-name="N" unicode="N" horiz-adv-x="778" 
d="M0 588q117 7 212 -25t148 -80v-483q-53 49 -148 80.5t-212 24.5v483zM418 483q55 48 149.5 80t211.5 25v-483q-118 7 -212.5 -24.5t-148.5 -80.5v483zM105 735q92 -13 160 -67.5t107 -130.5q-107 84 -267 99v99z" />
    <glyph glyph-name="O" unicode="O" horiz-adv-x="849" 
d="M383 606q0 -56 -40.5 -97t-95.5 -41q-59 0 -100.5 40.5t-41.5 97.5q0 59 41.5 100t100.5 41q56 0 96 -41.5t40 -99.5zM247 445q101 0 172.5 -72t71.5 -175v-198h-491v198q0 103 72.5 175t174.5 72zM602 468q-56 0 -98 41t-42 97q0 58 41.5 99.5t98.5 41.5t98 -41.5
t41 -99.5q0 -56 -41.5 -97t-97.5 -41zM602 445q102 0 174 -72.5t72 -174.5v-198h-287v198q0 60 -27.5 113t-75.5 87q65 47 144 47z" />
    <glyph glyph-name="P" unicode="P" horiz-adv-x="562" 
d="M441 590q0 -66 -47.5 -112t-112.5 -46q-67 0 -113.5 45.5t-46.5 112.5q0 65 47 112.5t113 47.5q64 0 112 -48t48 -112zM281 403q117 0 199 -82.5t82 -199.5v-121h-562v121q0 117 82.5 199.5t198.5 82.5z" />
    <glyph glyph-name="Q" unicode="Q" horiz-adv-x="808" 
d="M749 122q22 0 38.5 14t20.5 35v-119q0 -22 -15.5 -37t-36.5 -15h-347h-283q-52 0 -89 37t-37 89v483q0 52 37 89t89 37h336v-224l111 56l113 -56v224h70q21 0 36.5 -15.5t15.5 -37.5v-389q-4 -21 -20.5 -35t-38.5 -14h-565q-25 0 -43 -18t-18 -43t17.5 -43t43.5 -18h565z
" />
    <glyph glyph-name="S" unicode="S" horiz-adv-x="815" 
d="M119 619v-505h100v-114h-153q-28 0 -47 19t-19 47v601q0 27 19 46.5t47 19.5h153v-114h-100zM744 733q27 0 46.5 -19.5t19.5 -46.5v-601q0 -28 -19.5 -47t-46.5 -19h-154v114h101v505h-101v114h154zM176 472v108h319v-108h-319zM277 313v107h356v-107h-356zM226 154v107
h336v-107h-336z" />
    <glyph glyph-name="T" unicode="T" horiz-adv-x="743" 
d="M466 86q53 0 85 75.5t34 177.5h158q-12 -143 -118.5 -241t-251.5 -98q-147 0 -253 98t-120 241h346q2 -106 34 -179.5t86 -73.5zM466 148q-9 0 -21.5 20.5t-24.5 67t-14 103.5h119q-4 -58 -15.5 -104t-23 -66.5t-20.5 -20.5zM282 603q7 0 19 -20.5t24 -66.5t16 -103h-120
q2 58 13 103.5t24 66t24 20.5zM282 666q-54 0 -85 -73.5t-39 -179.5h-158q14 142 120.5 240t252.5 98q145 0 251.5 -98t118.5 -240h-341q-6 105 -37 179t-83 74z" />
    <glyph glyph-name="U" unicode="U" horiz-adv-x="800" 
d="M800 733l-396 -397l-397 397h793zM69 0q-29 0 -49 20t-20 49v123q0 29 20 49t49 20h671q28 0 48.5 -20.5t20.5 -48.5v-123q0 -28 -20.5 -48.5t-48.5 -20.5h-671z" />
    <glyph glyph-name="V" unicode="V" horiz-adv-x="679" 
d="M339 727l340 -236v-491h-340h-339v491zM339 255l252 176l-252 174l-252 -174z" />
    <glyph glyph-name="X" unicode="X" horiz-adv-x="753" 
d="M471 471v-95h-95v-94h-94v94h-94v95h94v94h94v-94h95zM753 94l-94 -94l-149 149q-81 -55 -181 -55q-137 0 -232 97q-97 95 -97 233q0 137 97 232q95 97 232 97q138 0 233 -97q97 -95 97 -232q0 -100 -55 -181zM329 235q79 0 134 55t55 134q0 78 -55 133t-134 55
q-78 0 -133 -55t-55 -133q0 -79 55 -134t133 -55z" />
    <glyph glyph-name="Y" unicode="Y" 
d="M471 471v-95h-283v95h283zM753 94l-94 -94l-149 149q-81 -55 -181 -55q-137 0 -232 97q-97 95 -97 233q0 137 97 232q95 97 232 97q138 0 233 -97q97 -95 97 -232q0 -100 -55 -181zM329 235q79 0 134 55t55 134q0 78 -55 133t-134 55q-78 0 -133 -55t-55 -133
q0 -79 55 -134t133 -55z" />
    <glyph glyph-name="Z" unicode="Z" horiz-adv-x="808" 
d="M808 573v-129h-79v-371q0 -29 -22 -51t-52 -22h-502q-30 0 -51.5 21.5t-21.5 51.5v371h-80v129q0 30 21.5 51.5t51.5 21.5h247v41q0 20 15.5 34.5t37.5 14.5h62q22 0 37 -14.5t15 -34.5v-41h248q30 0 51.5 -21.5t21.5 -51.5zM172 88h83v356h-83v-356zM362 88h83v356h-83
v-356zM635 88v356h-83v-356h83z" />
    <glyph glyph-name="bracketleft" unicode="[" horiz-adv-x="742" 
d="M373 602l-238 -237l237 -237l236 238zM373 731q39 0 66 -28l270 -270q29 -28 29 -67.5t-29 -67.5l-271 -271q-26 -27 -66 -27q-41 0 -68 27l-271 271q-27 27 -27 67t27 67l271 271q28 28 69 28z" />
    <glyph glyph-name="backslash" unicode="\" horiz-adv-x="810" 
d="M806 0h-178l-228 265q-20 -6 -41 -6q-65 0 -111 47t-46 112q0 34 12 63l-214 251h178l139 -162q23 5 42 5q65 0 112 -46t47 -111q0 -30 -14 -65zM286 418q0 -31 21 -53t52 -22t53 22t22 53t-22 52t-53 21t-52 -21t-21 -52z" />
    <glyph glyph-name="bracketright" unicode="]" horiz-adv-x="807" 
d="M128 237l-61 61q-27 27 -27 67t27 67l271 271q28 28 69 28q39 0 67 -28l61 -60l-85 -85l-43 44l-238 -237l44 -44zM683 494l61 -61q28 -28 28 -67.5t-28 -67.5l-271 -271q-27 -27 -67 -27q-41 0 -68 27l-61 62l84 84l45 -45l237 238l-44 44zM697 731h149l-731 -731h-148z
" />
    <glyph glyph-name="asciicircum" unicode="^" horiz-adv-x="818" 
d="M394 492l393 -377h-787z" />
    <glyph glyph-name="underscore" unicode="_" horiz-adv-x="807" 
d="M807 603v-122h-143q-48 0 -82 33.5t-34 81.5v136h122v-129h137zM138 732h121v-136q0 -48 -34 -81.5t-81 -33.5h-144v122h138v129zM0 129v122h144q47 0 81 -34.5t34 -81.5v-135h-121v129h-138zM670 0h-122v135q0 47 34.5 81.5t81.5 34.5h143v-122h-137v-129z" />
    <glyph glyph-name="a" unicode="a" horiz-adv-x="661" 
d="M661 234h-278v-182l-52 -52l-54 52v182h-277q0 57 53 103t140 69v232q-81 36 -81 97h437q0 -61 -81 -97v-232q87 -23 140 -69t53 -103z" />
    <glyph glyph-name="c" unicode="c" horiz-adv-x="800" 
d="M558 556q0 -9 -6.5 -15t-14.5 -6h-516q-9 0 -15 6t-6 15v149q0 9 6 15t15 6h516q8 0 14.5 -6t6.5 -15v-149zM779 458q9 0 15 -6t6 -15v-148q0 -9 -6 -15t-15 -6h-582q-8 0 -14 6t-6 15v148q0 9 6 15t14 6h582zM656 191q9 0 15 -6t6 -15v-149q0 -9 -6 -15t-15 -6h-549
q-8 0 -14.5 6t-6.5 15v149q0 9 6.5 15t14.5 6h549z" />
    <glyph glyph-name="d" unicode="d" horiz-adv-x="741" 
d="M372 745q150 0 259.5 -36t109.5 -82v-505q0 -22 -15 -34l-152 152q42 69 33.5 153t-66.5 144q-70 71 -169 71q-101 0 -171 -71q-71 -70 -71 -170.5t71 -169.5q68 -71 171 -71q67 0 125 37l126 -129q-122 -34 -251 -34q-153 0 -262.5 36t-109.5 86v505q0 46 110 82t262 36
zM277 459q45 38 95 38q48 0 91 -38q38 -45 38 -92q0 -48 -38 -93q-43 -38 -91 -38q-50 0 -95 38q-37 44 -37 93q0 48 37 92z" />
    <glyph glyph-name="e" unicode="e" horiz-adv-x="978" 
d="M489 728q162 0 294.5 -100.5t194.5 -264.5q-63 -162 -195 -262.5t-294 -100.5q-161 0 -293.5 100.5t-195.5 262.5q63 164 195.5 264.5t293.5 100.5zM489 100q105 0 194.5 60.5t140.5 162.5q-56 -50 -144.5 -78.5t-190.5 -28.5t-190.5 28.5t-144.5 78.5
q51 -102 140 -162.5t195 -60.5z" />
    <glyph glyph-name="f" unicode="f" horiz-adv-x="855" 
d="M229 597q-42 0 -80.5 -25.5t-49.5 -61.5l-99 -314v255v95v163q0 22 15 37t36 15h233q21 0 35.5 -15t14.5 -37v-60h254q59 0 88 -52h-447zM774 523q43 0 64.5 -25t10.5 -61l-110 -350q-11 -36 -49.5 -61.5t-81.5 -25.5h-485q-43 0 -65 25.5t-10 61.5l111 350q11 36 49 61
t80 25h486zM666 296q4 8 -0.5 14t-13.5 6h-115l36 117q3 8 -1 14t-13 6h-73q-21 0 -28 -20l-37 -117h-116q-20 0 -27 -20l-23 -73q-5 -21 15 -21h116l-37 -116q-2 -9 1.5 -15t12.5 -6h74q17 0 27 21l36 116h116q21 0 28 21z" />
    <glyph glyph-name="g" unicode="g" horiz-adv-x="812" 
d="M735 735q32 0 54.5 -23.5t22.5 -55.5v-578q0 -32 -22.5 -55t-54.5 -23h-398q-32 0 -69 18t-55 44l-188 242q-19 26 -19 62.5t19 63.5l188 242q18 26 55 44.5t69 18.5h398zM250 269q41 0 69.5 28.5t28.5 68.5q0 42 -28.5 70.5t-69.5 28.5t-69.5 -28.5t-28.5 -70.5
q0 -41 28.5 -69t69.5 -28z" />
    <glyph glyph-name="i" unicode="i" horiz-adv-x="751" 
d="M375 751q156 0 266 -110t110 -266q0 -155 -110 -265t-266 -110q-155 0 -265 110t-110 265q0 156 110 266t265 110zM332 628v-67q0 -21 20 -21h67q20 0 20 21v67q0 21 -20 21h-67q-20 0 -20 -21zM549 150v69q0 8 -6 14t-14 6h-90v232q0 20 -20 20h-176q-21 0 -21 -20v-68
q0 -8 6 -14t15 -6h89v-144h-89q-9 0 -15 -6t-6 -14v-69q0 -20 21 -20h286q8 0 14 5.5t6 14.5z" />
    <glyph glyph-name="j" unicode="j" horiz-adv-x="797" 
d="M123 367l-123 123v147l123 -123l220 221v-147zM123 0l-123 123v147l123 -123l220 220v-147zM485 537v71h313v-71h-313zM798 240v-71h-313v71h313z" />
    <glyph glyph-name="k" unicode="k" horiz-adv-x="798" 
d="M123 93l-123 123v147l123 -123l220 220v-147zM485 262v71h313v-71h-313z" />
    <glyph glyph-name="l" unicode="l" horiz-adv-x="617" 
d="M551 386h66v-386h-617v386h63v106q0 100 72 171.5t173 71.5q99 0 171 -71.5t72 -171.5v-106zM173 492v-106h267v106q0 56 -38.5 94.5t-93.5 38.5q-56 0 -95.5 -39t-39.5 -94z" />
    <glyph glyph-name="m" unicode="m" horiz-adv-x="804" 
d="M804 729v-156h-804v156h804zM804 445v-160h-804v160h804zM804 158v-158h-804v158h804z" />
    <glyph glyph-name="n" unicode="n" horiz-adv-x="738" 
d="M690 697q48 -50 48 -88q0 -18 -10 -26l-243 -243l-3 -3l-4 -2l-227 -78l77 228l2 4l3 3l242 243q22 19 57 3q29 -14 58 -41zM461 371l1 2l-3 50l-34 2h-9v10v28l-51 6l-2 -1l-32 -97l33 -33zM249 512l-134 -389l304 104v-215q-136 -8 -246.5 29t-172.5 93v561
q48 -42 125 -75.5t172 -43.5l-24 -25l-17 -17z" />
    <glyph glyph-name="o" unicode="o" horiz-adv-x="717" 
d="M358 767l359 -192v-383l-359 -192l-358 192v383zM358 385l267 141l-267 143l-265 -143z" />
    <glyph glyph-name="p" unicode="p" horiz-adv-x="776" 
d="M695 695q33 -34 54.5 -74.5t21.5 -65.5q0 -7 -7.5 -22.5t-7.5 -23.5l-385 -385h-16l-355 -124l124 355v16l385 385q38 36 94 0q62 -31 92 -61zM185 124l139 61h15l-15 77h-47h-15v15v47l-77 15v-15l-61 -139z" />
    <glyph glyph-name="r" unicode="r" horiz-adv-x="920" 
d="M443 0q-129 0 -225.5 88.5t-108.5 217.5h-131l214 158l218 -158h-128q11 -58 56.5 -96t104.5 -38q58 0 103 37l16 13l122 -122l-18 -16q-93 -84 -223 -84zM734 272l-218 158h128q-11 58 -56.5 95t-105.5 37q-58 0 -103 -37l-16 -13l-121 122l17 16q96 85 223 85t225 -90
q98 -89 109 -215h131z" />
    <glyph glyph-name="s" unicode="s" horiz-adv-x="911" 
d="M221 113v-113h-154q-28 0 -47.5 19t-19.5 45v605q0 29 19 48t48 19h154v-113h-102v-510h102zM841 736q27 0 47 -19.5t20 -47.5v-605q0 -26 -20 -45t-47 -19h-154v113h101v510h-101v113h154zM647 392q47 17 56 25v-193q0 -34 -71.5 -57t-176.5 -23t-178 23t-73 57v193
q40 -20 61 -25q78 -27 190 -27q113 0 192 27zM703 513q0 33 -72 56t-176 23t-177.5 -23.5t-73.5 -55.5q0 -33 74 -58t177 -25q104 0 176 25t72 58z" />
    <glyph glyph-name="t" unicode="t" horiz-adv-x="819" 
d="M0 332h379q2 -101 39 -175t96 -74q62 0 97 72t42 177h166v-166q0 -46 -16.5 -80.5t-40.5 -50t-47.5 -24.5t-40.5 -10l-16 -1h-492q-46 0 -80.5 17t-50 41.5t-24.5 49t-10 41.5l-1 17v166zM444 332h139q-4 -57 -18 -102.5t-27.5 -65.5t-23.5 -20t-24 20t-28 65.5
t-18 102.5zM374 404h-138q4 57 18 103.5t28 67.5t24 21q9 0 23 -21t27.5 -67.5t17.5 -103.5zM819 404h-375q-7 106 -42 180t-96 74q-62 0 -97.5 -74t-42.5 -180h-166v170q0 45 17 78t41.5 48.5t49 24t41.5 9.5l17 1h492q45 0 78 -16.5t48.5 -40.5t24 -47.5t9.5 -40.5l1 -16
v-170z" />
    <glyph glyph-name="u" unicode="u" horiz-adv-x="809" 
d="M405 396l-397 -396h794zM740 732q29 0 49 -20t20 -49v-122q0 -29 -20 -49.5t-49 -20.5h-671q-29 0 -49 20.5t-20 49.5v122q0 29 20 49t49 20h671z" />
    <glyph glyph-name="v" unicode="v" horiz-adv-x="787" 
d="M394 202l-394 377h787q-63 -61 -194.5 -187t-198.5 -190z" />
    <glyph glyph-name="x" unicode="x" horiz-adv-x="726" 
d="M726 110q6 -6 6 -15t-6 -14l-72 -73q-6 -6 -15 -6t-14 6l-258 258l-257 -258q-6 -6 -15 -6t-15 6l-72 73q-6 5 -6 14t6 15l257 257l-257 258q-14 15 0 29l72 73q6 6 15 6t15 -6l257 -258l258 258q5 6 14 6t15 -6l72 -73q14 -14 0 -29l-257 -258z" />
    <glyph glyph-name="y" unicode="y" horiz-adv-x="806" 
d="M505 122v96l122 122v-225q0 -48 -34 -81.5t-82 -33.5h-396q-48 0 -81.5 33.5t-33.5 81.5v320q0 48 33.5 81.5t81.5 33.5h302l-122 -122h-173v-306h383zM349 730h457v-457h-91v275l-274 -275l-92 91l275 275h-275v91z" />
    <glyph glyph-name="z" unicode="z" horiz-adv-x="806" 
d="M548 610v122h143q48 0 81.5 -34t33.5 -82v-135h-121v129h-137zM122 481h-122v135q0 48 34 82t81 34h143v-122h-136v-129zM258 122v-122h-143q-47 0 -81 33.5t-34 81.5v136h122v-129h136zM685 251h121v-136q0 -48 -33.5 -81.5t-81.5 -33.5h-143v122h137v129z" />
    <glyph glyph-name="braceleft" unicode="{" horiz-adv-x="223" 
d="M223 525l-132 -263l132 -262h-92l-131 262l131 263h92z" />
    <glyph glyph-name="braceright" unicode="}" horiz-adv-x="223" 
d="M0 0l131 262l-131 262h91l132 -262l-132 -262h-91z" />
    <glyph glyph-name="asciitilde" unicode="~" horiz-adv-x="799" 
d="M658 363h141q-36 -150 -70 -227q-28 -58 -58 -88q-45 -46 -102 -48h-7q-55 0 -98 40q-34 31 -60 86q-35 72 -71 222q-35 137 -61 194q-9 18 -17.5 30t-12.5 15t-6 3q-3 0 -8 -4t-14.5 -18t-19.5 -35q-28 -62 -53 -170h-141q36 152 70 227q25 57 58 88q41 42 102 49
q57 2 105 -40q33 -31 60 -86q34 -73 70 -222q36 -140 62 -194q9 -18 17.5 -30t12.5 -15.5t5 -3.5q15 0 42 57q30 66 54 170z" />
    <glyph glyph-name="fraction" unicode="&#x2044;" horiz-adv-x="761" 
d="M380 751q158 0 269.5 -111.5t111.5 -268.5q0 -133 -82.5 -236.5t-209.5 -134.5l-4 491l-176 -490q-126 31 -207.5 134.5t-81.5 235.5q0 157 111.5 268.5t268.5 111.5zM168 488l55 20l-34 94l-56 -20zM410 530v100h-59v-100h59zM593 488l34 94l-55 20l-34 -94z" />
    <glyph glyph-name="H.002" horiz-adv-x="803" 
d="M0 0v726h187v-726h-187zM308 0v726h187v-726h-187zM616 199v527h187v-527h-187z" />
    <glyph glyph-name="H.001" 
 />
  </font>
</defs>
</svg>
