<svg xmlns="http://www.w3.org/2000/svg" width="200" height="100" viewBox="0 0 200 100">
  <defs>
    <linearGradient id="plugin-icon-telemetry-source-white-a" x1="50%" x2="50%" y1="0%" y2="100%">
      <stop offset="0%" stop-color="#FFF" stop-opacity="0"/>
      <stop offset="100%" stop-opacity=".188"/>
    </linearGradient>
  </defs>
  <g fill="none" fill-rule="evenodd">
    <rect width="200" height="100" fill="#0199F9"/>
    <rect width="200" height="100" x="1" fill="url(#plugin-icon-telemetry-source-white-a)" fill-rule="nonzero"/>
    <g fill="#FFF" fill-rule="nonzero" transform="translate(65 14)">
      <path d="M2.25066551,44.1748247 C3.25502464,43.7817929 6.07960884,40.850139 8.78884649,33.9643888 C11.7751972,26.3848885 16.9700127,17.3437573 24.7573126,17.3437573 C28.4427761,17.3437573 31.8905131,19.3830471 35.0048703,23.4056791 C37.6311147,26.797502 39.5652797,31.0229441 40.7257787,33.9713823 C43.4350163,40.8515376 46.2596006,43.7831916 47.2639597,44.1818182 C48.2683188,43.7887863 51.092903,40.8571324 53.8021407,33.9713823 C56.432605,27.2926382 60.7749813,19.4851515 67.0909091,17.7144101 C60.6319128,6.73826803 48.8001696,-0.00531221884 36.0106361,3.1398939e-06 C16.1232001,3.1398939e-06 8.01653566e-07,16.0317862 8.01653566e-07,35.8064633 C-0.000501545781,38.1791572 0.235090209,40.5460797 0.703333523,42.8726445 C1.37431294,43.6265383 1.91447247,44.0433479 2.25066551,44.1748247 Z"/>
      <path d="M69.7493345,27.8251753 C68.7449754,28.2182071 65.9203912,31.1484624 63.2111535,38.0356112 C60.2248028,45.6151115 55.0299873,54.6562427 47.2426874,54.6562427 C43.5572239,54.6562427 40.1094869,52.6169529 36.9951297,48.5943209 C34.3688853,45.202498 32.4347203,40.9770559 31.2742213,38.0286177 C28.5649837,31.1484624 25.7403994,28.2168084 24.7360403,27.8181818 C23.7316812,28.2112137 20.907097,31.1414689 18.1978593,38.0286177 C15.567395,44.7073618 11.2250187,52.5148485 4.90909091,54.2855899 C11.3680872,65.261732 23.1998304,72.0053122 35.9893639,71.9999969 C55.8767999,71.9999969 71.9999992,55.9682138 71.9999992,36.1935367 C72.0005015,33.8208428 71.7649098,31.4539203 71.2966665,29.1273555 C70.6256871,28.3734617 70.0855275,27.9566521 69.7493345,27.8251753 Z"/>
    </g>
  </g>
</svg>
